<svg width="2500" height="960" fill="none" xmlns="http://www.w3.org/2000/svg"><mask id="a" style="mask-type:alpha" maskUnits="userSpaceOnUse" x="0" y="0" width="2500" height="960"><path transform="matrix(1 0 0 -1 0 960)" fill="#233B3F" d="M0 0h2500v960H0z"/></mask><g opacity=".8" fill="#137D44" mask="url(#a)"><path opacity=".043" d="M2215.78-59.653c7.91-9.718 15.18-19.736 21.66-29.958l-1.52-.943c-42.65 66.966-114.2 121.919-218.67 167.994-31.6 13.971-64.22 26.745-95.73 39.162-52.83 20.82-107.47 42.233-158.73 69.564-2.59 1.363-5.09 2.718-7.64 4.036-11.93 6.305-24.28 12.856-36.12 19.965-16.47 9.983-30.52 19.719-43.04 29.826-12.35 10.01-24.61 21.433-37.5 34.996-10.38 11.028-20.53 22.765-31.06 35.964a693.38 693.38 0 00-55 79.944c-17.34 29.272-32.8 61.118-45.93 88.657l-1.1 2.35c-15.81 33.103-32.08 67.309-51.08 97.157-15.85 24.808-31.63 43.467-49.69 58.656-14.86 12.544-32.58 23.428-52.58 32.388-28.46 12.837-63.03 22.394-105.68 29.36-13.45 2.188-26.89 4.011-39.49 5.706-10.03 1.352-20.11 2.586-29.8 3.78-32.13 4.019-62.45 7.812-92.58 14.27-4.11.867-8.28 1.823-12.36 2.851-41.15 10.107-80.631 25.413-120.62 46.873-20.402 10.914-40.495 23.261-61.73 36.375-2.867 1.798-5.778 3.56-8.726 5.367l-5.589 3.419c-20.821 12.787-40.528 24.932-59.658 39.54-22.072 16.861-43.974 37.772-65.155 62.149-17.651 20.314-35.119 43.213-54.954 72.008l1.484.987c19.799-28.751 37.194-51.561 54.809-71.83 21.109-24.288 42.939-45.111 64.894-61.92 19.094-14.563 38.684-26.655 59.505-39.442l5.59-3.419c2.911-1.762 5.814-3.605 8.725-5.367 21.235-13.115 41.284-25.498 61.65-36.367 39.88-21.327 79.195-36.616 120.235-46.671 4.12-.992 8.25-1.984 12.35-2.851 30.06-6.45 60.38-10.243 92.43-14.253 9.72-1.238 19.8-2.473 29.83-3.825 12.6-1.695 26.08-3.562 39.49-5.706 42.81-6.982 77.54-16.636 106.16-29.489 20.19-9.021 37.99-19.994 53-32.635 18.21-15.286 34.11-34.078 50.05-59.1 18.99-29.928 35.38-64.187 51.15-97.326l1.1-2.35c13.09-27.495 28.56-59.26 45.86-88.488a690.671 690.671 0 0154.82-79.723c10.49-13.154 20.64-24.89 30.95-35.83 12.78-13.51 25-24.889 37.32-34.854 12.47-10.063 26.49-19.754 42.85-29.685 11.8-7.146 24.11-13.652 36.03-19.957 2.55-1.318 5.09-2.717 7.68-4.08 51.19-27.243 105.74-48.728 158.53-69.504 31.56-12.38 64.17-25.235 95.82-39.17 48.18-21.28 88.24-43.643 122.47-68.54 29.51-21.283 54.72-44.811 75.29-70.06z"/><path opacity=".087" d="M2210.6-64.9a312.256 312.256 0 0021.59-29.95l-1.57-.979c-41.48 65.341-110.85 118.891-212.1 163.743-33.47 14.813-67.95 28.51-101.25 41.76-48.47 19.276-98.66 39.217-146.32 62.844-6.31 3.127-12.72 6.101-18.89 8.97-8.74 4.026-17.75 8.202-26.51 12.88-18.08 9.701-32.39 18.934-44.9 29.122-12.58 10.195-24.73 22.299-37.01 37.02-9.21 10.949-17.95 22.581-28.35 37.801-17.63 25.722-34.05 53.68-48.87 83.019-8.45 16.73-16.22 33.877-24.41 52.003-5.88 12.927-11.91 26.317-18.28 39.659-18.3 38.238-37.64 71.051-57.43 97.522-16.99 22.769-33.87 39.872-53.15 53.843-15.6 11.359-33.5 20.837-54.67 29.063-34.77 13.604-74.68 21.917-109.14 28.168-5.63 1.023-11.26 2.047-16.86 3.026a2289.56 2289.56 0 00-23.28 4.212c-45.28 8.373-82.77 15.625-118.5 26.602a388.962 388.962 0 00-11.54 3.743c-37.19 12.59-73.69 30.398-111.523 54.647-9.356 5.961-18.716 12.288-28.606 18.994-12.974 8.771-26.363 17.87-40.452 26.47-8.079 4.935-16.271 9.556-24.185 14.108-15.297 8.724-29.67 16.946-43.961 27.154-22.477 16.089-44.379 37-66.923 63.957-18.019 21.491-34.758 44.762-50.926 67.243-1.71 2.372-3.456 4.788-5.166 7.159l1.536 1.107c1.71-2.374 3.42-4.746 5.167-7.162 16.168-22.481 32.915-45.672 50.853-67.154 22.472-26.868 44.221-47.683 66.589-63.638 14.22-10.119 28.592-18.342 43.809-27.058 7.915-4.552 16.106-9.173 24.221-14.152 14.09-8.6 27.558-17.707 40.488-26.514 9.89-6.707 19.25-13.033 28.57-18.95 37.719-24.116 74.059-41.907 111.139-54.445 3.85-1.289 7.71-2.579 11.5-3.698 35.61-10.925 73.03-18.169 118.26-26.578 7.66-1.434 15.61-2.858 23.28-4.212 5.6-.979 11.23-2.002 16.86-3.026 34.54-6.339 74.57-14.624 109.46-28.281 21.32-8.242 39.3-17.81 55.05-29.265 19.39-14.105 36.42-31.305 53.52-54.207 19.86-26.56 39.2-59.453 57.6-97.824 6.37-13.342 12.48-26.741 18.32-39.703 8.19-18.127 15.93-35.149 24.34-51.914 14.78-29.295 31.21-57.173 48.76-82.806 10.42-15.139 19.11-26.727 28.25-37.668 12.25-14.596 24.25-26.602 36.79-36.754 12.43-10.098 26.63-19.279 44.64-28.891 8.72-4.634 17.69-8.766 26.44-12.792 6.17-2.869 12.62-5.807 18.97-8.978 47.58-23.619 97.69-43.551 146.16-62.747 33.39-13.259 67.86-26.955 101.33-41.768 85.71-38.177 148.67-82.407 191.28-134.724z"/><path opacity=".13" d="M2205.57-70.324a309.37 309.37 0 0021.48-29.817l-1.65-1.052C2185.1-37.396 2117.86 14.715 2019.85 58.3c-36.88 16.383-74.87 31.577-111.64 46.28-42.6 17.049-86.68 34.656-129.02 54.201-7.73 3.597-15.6 6.639-23.26 9.619-7.82 3.078-15.96 6.27-23.88 9.928-19.25 9.047-34.07 18.088-46.84 28.425-12.7 10.329-24.99 23.423-36.57 39.008-10.3 13.827-18.72 27.786-25.64 39.64-15.36 26.465-29.76 55.477-42.82 86.101-4.61 10.927-8.98 21.909-13.57 33.524-7.85 19.882-15.96 40.44-25.85 61.018-16.7 34.82-38.38 67.871-62.64 95.573-18.13 20.729-36.11 36.277-56.62 48.95-15.83 9.837-34.41 18.246-56.72 25.694-32.92 10.974-69.75 18.402-105.3 25.537l-7.26 1.474c-13.15 2.647-27.17 5.546-40.79 8.77-47.39 11.152-82.73 22.007-114.54 35.145-3.47 1.454-7.06 2.96-10.68 4.591-33.33 14.921-64.92 34.139-102.425 62.423-4.984 3.764-9.997 7.653-15.27 11.772-16.316 12.692-33.242 25.773-52.435 37.377-10.459 6.317-21.125 11.801-31.405 17.083-13.136 6.795-26.702 13.755-39.648 22.401-22.881 15.317-45.325 36.894-68.727 65.81-12.524 15.559-24.538 32.124-36.163 48.119-6.84 9.486-13.977 19.247-21.067 28.677l1.545 1.18c7.09-9.426 14.183-19.222 21.067-28.672 11.625-15.996 23.559-32.552 36.127-48.075 23.213-28.775 45.593-50.183 68.276-65.438 12.794-8.55 25.74-15.203 39.459-22.26 10.317-5.327 20.983-10.811 31.522-17.136 19.274-11.612 36.192-24.773 52.588-37.474 5.274-4.119 10.286-8.008 15.27-11.772 37.396-28.151 68.826-47.352 102.006-62.177 3.58-1.586 7.16-3.173 10.64-4.546 31.69-13.085 66.95-23.932 114.26-35.076 13.62-3.224 27.64-6.123 40.76-8.725l7.25-1.474c35.64-7.144 72.5-14.616 105.54-25.643 22.5-7.508 41.16-16.006 57.11-25.896 20.62-12.807 38.75-28.451 57.03-49.358 24.36-27.835 46.15-61.019 62.91-96.008 9.89-20.659 18.03-41.262 25.92-61.187 4.59-11.615 8.91-22.634 13.57-33.524 13.02-30.58 27.35-59.503 42.72-85.888 6.85-11.765 15.23-25.68 25.49-39.462 11.48-15.452 23.69-28.458 36.23-38.689 12.59-10.196 27.37-19.193 46.42-28.179 7.85-3.65 15.9-6.833 23.77-9.875 7.66-2.981 15.57-6.067 23.37-9.672 42.31-19.5 86.31-37.099 128.95-54.112 36.77-14.704 74.76-29.897 111.68-46.325 82.74-36.612 143.64-79.492 185.02-130.301z"/><path opacity=".174" d="M2200.46-75.74a306.122 306.122 0 0021.37-29.684l-1.69-1.088C2181.02-44.341 2115.96 6.449 2021.2 48.766c-43.61 19.47-88.56 37.41-131.98 54.746-33.49 13.392-68.16 27.229-101.75 41.568-8.5 3.635-17.24 6.481-25.66 9.214-7.6 2.445-15.44 4.996-23.09 8.138-20.11 8.199-35.56 17.02-48.7 27.721-13.03 10.647-25.21 24.422-36.12 40.996-8.63 13.126-15.4 26.063-22.85 41.469-13.16 27.218-25.51 57.24-36.72 89.221-2.78 7.85-5.35 15.72-8.12 24.017-7.92 23.956-16.13 48.714-28.07 73.529-16.27 33.84-39.73 66.179-67.84 93.624-19.15 18.718-38.23 32.71-60.04 44.094-16.34 8.545-35.05 15.666-58.81 22.368-24.83 7.014-52.45 12.645-79.1 18.097-12.2 2.468-24.79 5.057-36.92 7.722-16.32 3.54-29.49 6.84-41.5 10.265-41.94 11.978-78.1 26.294-110.65 43.698a397.828 397.828 0 00-9.85 5.482c-28.81 16.615-55.86 36.954-93.3 70.154a503.277 503.277 0 00-8.012 7.205c-16.765 15.058-35.764 32.133-58.307 45.585-11.923 7.118-24.083 12.714-35.812 18.144-12.627 5.807-25.676 11.86-38.14 19.644-23.43 14.722-46.505 36.892-70.45 67.653-9.926 12.731-19.499 26.117-28.783 39.148-9.537 13.341-19.355 27.119-29.577 40.122l1.589 1.22c10.222-13 20.076-26.824 29.614-40.166 9.248-12.987 18.821-26.373 28.71-39.059 23.881-30.592 46.731-52.576 69.927-67.193 12.349-7.731 25.325-13.696 37.871-19.494 11.81-5.439 24.006-11.079 36.009-18.205 22.696-13.549 41.767-30.713 58.649-45.823 2.721-2.434 5.405-4.824 8.012-7.206 37.33-33.147 64.22-53.389 92.95-69.915 3.35-1.928 6.62-3.768 9.78-5.474 32.35-17.343 68.44-31.57 110.22-43.531 11.93-3.418 25.06-6.673 41.33-10.249 12.09-2.701 24.73-5.254 36.88-7.758 26.69-5.496 54.3-11.128 79.21-18.15 23.93-6.718 42.76-13.892 59.21-22.49 21.97-11.481 41.23-25.614 60.54-44.43 28.3-27.586 51.86-60.138 68.22-94.192 11.97-24.94 20.25-49.786 28.21-73.787 2.77-8.297 5.34-16.167 8.09-23.973 11.17-31.936 23.49-61.833 36.61-89.007 7.47-15.326 14.2-28.218 22.75-41.255 10.77-16.397 22.8-30.075 35.68-40.545 12.95-10.559 28.25-19.283 48.17-27.421 7.53-3.09 15.36-5.64 22.93-8.041 8.51-2.741 17.24-5.588 25.86-9.275 33.55-14.375 68.18-28.168 101.67-41.559 43.42-17.337 88.37-35.276 132.06-54.755 79.83-35.583 138.55-77.141 178.66-126.397z"/><path opacity=".217" d="M2195.36-81.076c7.77-9.54 14.86-19.418 21.22-29.587l-1.78-1.079C2176.87-51.116 2113.94-1.765 2022.46 39.24c-59.08 26.504-119.98 50.346-178.85 73.331-15.72 6.164-32.07 12.555-47.98 18.86-9.15 3.621-18.54 6.086-27.61 8.438-7.49 1.946-15.21 3.996-22.8 6.603-20.73 7.327-37.28 16.138-50.56 27.016-13.48 11.019-25.47 25.466-35.63 43.02-8.54 14.745-14.64 29.484-20.14 43.308-11.14 28.272-21.19 58.466-30.63 92.259-1.63 5.903-3.23 11.761-4.88 17.95-7.21 26.894-14.66 54.706-28.04 82.557-16.24 33.715-41.55 65.43-73.04 91.674-20.05 16.736-40.21 29.171-63.51 39.282-16.63 7.193-35.39 13.098-60.9 19.043-17.84 4.143-36.5 7.761-56.29 11.575-20.94 4.054-42.56 8.218-63.09 13.124-16.01 3.793-29.77 7.642-42.16 11.797-40.23 13.512-74.17 30.082-106.68 52.241-2.93 1.968-5.93 4.105-9 6.33-29.37 21.472-54.46 46.941-84.2 77.929l-3.09 3.244c-17.118 17.941-36.52 38.231-61.874 53.231-12.929 7.627-26.24 13.097-39.086 18.357-12.495 5.102-25.376 10.406-37.774 17.654-24.087 14.26-47.756 36.979-72.253 69.506-8.347 11.063-16.474 22.674-24.349 33.975-11.178 15.991-22.709 32.506-35.105 47.726l1.642 1.34c12.432-15.27 23.999-31.827 35.177-47.818 7.839-11.256 15.966-22.867 24.276-33.886 24.361-32.268 47.761-54.838 71.659-68.957 12.245-7.151 25.091-12.411 37.505-17.504 12.926-5.268 26.274-10.783 39.355-18.507 25.623-15.15 45.134-35.573 62.327-53.602l3.09-3.245c29.65-30.979 54.64-56.315 83.94-77.698 3.03-2.181 6.03-4.318 8.91-6.322 32.36-22.063 66.11-38.571 106.18-51.986 12.31-4.147 26.07-7.996 42-11.78 20.49-4.863 42.11-9.027 63.01-13.117 19.79-3.813 38.45-7.431 56.38-11.583 25.58-5.953 44.5-11.874 61.25-19.12 23.49-10.172 43.81-22.704 64.05-39.581 31.75-26.475 57.2-58.367 73.62-92.385 13.52-28.027 20.96-55.921 28.2-82.939 1.65-6.189 3.25-12.047 4.88-17.95 9.44-33.793 19.42-63.898 30.57-92.09 5.46-13.779 11.53-28.393 20-43.049 10.06-17.342 21.91-31.611 35.16-42.444 13.1-10.736 29.41-19.443 49.91-26.664 7.46-2.635 15.14-4.641 22.63-6.587 9.16-2.36 18.58-4.87 27.89-8.507 15.91-6.305 32.23-12.652 47.99-18.86 58.9-23.029 119.8-46.871 178.91-73.42 76.44-34.217 133.1-74.427 171.91-122.085z"/><path opacity=".261" d="M2190.61-86.936c7.66-9.407 14.6-19.107 20.79-29.055l-1.87-1.151c-36.76 59-97.55 106.994-185.78 146.731-62.92 28.32-132.79 56.295-219.89 88.024-9.69 3.553-19.65 5.549-29.26 7.467-7.49 1.499-15.27 3.067-22.8 5.343-21.59 6.479-38.77 15.071-52.43 26.312-13.7 11.204-25.9 26.811-35.22 45.053-7.69 15.065-12.41 29.378-17.43 45.145-9 28.908-17.04 60.076-24.53 95.378-.93 4.488-1.91 9.145-2.84 13.633-5.99 29.291-12.21 59.581-26.89 89.842-20.85 43.096-54.08 72.57-78.24 89.725-20.82 14.781-42.12 25.705-66.98 34.39-20.97 7.352-43.63 12.07-62.95 15.673-11.42 2.144-23.09 4.151-35.49 6.233-29.06 4.966-59.05 10.067-87.35 17.275-16.1 4.087-30.14 8.451-42.82 13.328-39.1 15.023-71.82 34.356-102.75 60.829a255.425 255.425 0 00-8.09 7.214c-20.71 19.08-37.84 40.114-57.64 64.431-5.57 6.834-11.31 13.889-17.39 21.264l-1.48 1.819c-15.72 18.937-35.271 42.577-62.177 58.305-13.701 8.032-27.903 13.146-41.631 18.13-12.589 4.582-25.616 9.251-38.091 16.14-24.717 13.674-48.973 37.023-74.022 71.314-7.318 9.982-14.461 20.476-21.396 30.622-12.313 18.019-25.088 36.692-39.196 53.472l1.651 1.42c14.224-16.83 26.954-35.544 39.303-53.607 6.899-10.102 14.043-20.596 21.361-30.578 24.868-34.069 48.862-57.188 73.31-70.712 12.322-6.793 25.269-11.453 37.778-16.027 13.808-4.992 28.127-10.159 41.98-18.287 27.168-15.959 46.87-39.696 62.73-58.81l1.45-1.775c6.12-7.338 11.86-14.475 17.42-21.308 19.77-24.273 36.83-45.218 57.46-64.21 2.72-2.515 5.44-4.949 8.06-7.169 30.79-26.295 63.27-45.524 102.14-60.442 12.64-4.912 26.56-9.224 42.62-13.267 28.27-7.163 58.21-12.3 87.19-17.258 12.36-2.118 24.07-4.089 35.49-6.233 19.48-3.619 42.22-8.346 63.31-15.75 25.06-8.746 46.54-19.812 67.52-34.689 24.42-17.305 57.95-47.054 78.97-90.532 14.73-30.511 20.98-60.926 27.04-90.387.94-4.693 1.91-9.144 2.83-13.632 7.51-35.222 15.51-66.346 24.52-95.173 4.95-15.678 9.67-29.911 17.26-44.843 9.18-17.983 21.16-33.324 34.64-44.343 13.43-11.055 30.34-19.497 51.73-25.916 7.5-2.231 15.19-3.791 22.64-5.326 9.69-1.926 19.69-3.966 29.57-7.58 87.14-31.774 157.09-59.756 220.05-88.121 40.79-18.37 74.98-38.056 104.48-60.233 23.78-17.686 44.36-37.242 61.34-58.098z"/><path opacity=".304" d="M2185.58-92.36c7.63-9.364 14.53-19.019 20.64-28.878l-1.91-1.188c-35.54 57.412-94.18 104.048-179.22 142.481-71.42 32.322-143.05 60.558-212.99 83.901-10.15 3.397-20.61 4.915-30.67 6.391-7.53 1.097-15.35 2.262-23.04 4.188-22.48 5.676-40.26 14.003-54.37 25.615-17.86 14.681-28.77 33.696-34.72 47.078-6.92 15.473-10.76 30.429-14.68 47.02-6.87 29.462-12.93 61.648-18.45 98.416-.51 3.347-.97 6.811-1.51 10.283-4.34 29.896-9.25 63.835-24.94 96.152-21.34 43.959-57.16 71.988-83.45 87.776-21.5 12.897-43.89 22.266-70.44 29.578-21.12 5.822-43.75 9.316-65.08 12.311-5.09.724-10.23 1.413-15.44 2.189-35.13 4.896-74.88 10.466-110.82 20.163-16.31 4.353-30.54 9.225-43.55 14.868-38.72 16.733-70.11 38.778-98.83 69.417a323.226 323.226 0 00-7.26 8.106c-16.22 18.825-29.26 38.464-44.26 61.232-6.8 10.255-13.81 20.857-21.68 32.238-15.45 22.326-34.28 47.439-62.228 63.721-14.437 8.392-29.449 13.141-44.032 17.724-12.727 4.027-25.929 8.184-38.598 14.768-25.571 13.274-50.297 37.199-75.789 73.122-6.578 9.256-13.027 18.987-19.267 28.371-13.151 19.772-26.763 40.207-42.418 58.157l1.694 1.45c15.728-18.04 29.412-38.558 42.599-58.375 6.24-9.384 12.697-19.034 19.276-28.29 25.275-35.657 49.82-59.361 75.005-72.432 12.516-6.487 25.557-10.627 38.248-14.61 14.699-4.636 29.828-9.438 44.498-17.935 28.412-16.493 47.382-41.863 62.972-64.367 7.87-11.381 14.88-21.983 21.68-32.238 15.01-22.688 27.97-42.318 44.13-60.974 2.43-2.812 4.84-5.499 7.19-8.017 28.41-30.445 59.53-52.34 97.98-68.924 12.89-5.59 27-10.41 43.24-14.755 35.78-9.68 75.49-15.206 110.54-20.093 5.25-.741 10.39-1.429 15.48-2.153 21.37-3.04 44.08-6.542 65.37-12.381 26.78-7.336 49.33-16.802 70.98-29.796 26.56-15.937 62.79-44.294 84.32-88.76 15.86-32.7 20.79-66.765 25.16-96.865.5-3.428 1-6.856 1.51-10.284 5.48-36.723 11.5-68.865 18.42-98.291 3.89-16.466 7.7-31.296 14.55-46.601 5.9-13.132 16.56-31.836 34.12-46.243 13.85-11.382 31.31-19.595 53.48-25.158 7.58-1.873 15.31-3.03 22.85-4.127 10.14-1.484 20.68-3.01 31.06-6.512 69.98-23.388 141.69-51.632 213.18-84.043 38.8-17.555 72.71-37.254 100.91-58.566 22.66-17.124 42.26-35.848 58.56-55.86z"/><path opacity=".348" d="M2180.52-97.741c7.59-9.319 14.42-18.885 20.48-28.78l-1.95-1.224c-33.91 55.048-92 101.546-172.66 138.23-76.07 34.587-143.45 60.68-206.05 79.814-10.61 3.242-21.48 4.273-31.96 5.263-7.66.702-15.59 1.473-23.4 3.085-23.31 4.784-41.75 12.935-56.23 24.911-18.46 15.23-28.79 35.081-34.23 49.102-6.74 17.245-9.5 34.042-11.92 48.894-4.87 29.989-8.92 63.149-12.36 101.535-.23 2.465-.43 4.966-.65 7.511-2.78 31.688-5.94 67.645-22.57 101.929-21.87 45.071-60.28 71.576-88.64 85.826-22.05 11.123-45.57 18.98-73.91 24.686-21.08 4.311-43.46 6.601-67.18 8.986-36.35 3.678-86.16 8.731-129.71 21.159-16.57 4.664-30.99 10.044-44.21 16.4-38.7 18.521-68.87 43.329-94.9 78.005a184.684 184.684 0 00-6.4 8.953c-12.1 17.753-21.83 36.322-32.19 56.011-7.49 14.271-15.25 29.058-24.67 45.154-14.09 24.099-32.38 50.906-60.88 67.326-15.055 8.699-30.886 13.003-46.198 17.214-13.018 3.568-26.43 7.259-39.329 13.582-26.382 12.908-51.738 37.427-77.593 74.974-6.02 8.751-11.963 17.861-17.689 26.704-13.808 21.304-28.113 43.311-45.135 62.221l1.703 1.53c17.094-19 31.472-41.09 45.351-62.483 5.726-8.843 11.669-17.953 17.653-26.66 25.602-37.235 50.697-61.524 76.693-74.231 12.746-6.226 26.042-9.863 38.943-13.38 15.473-4.226 31.421-8.583 46.751-17.432 28.99-16.756 47.5-43.828 61.73-68.186 9.45-16.139 17.21-30.927 24.7-45.198 10.32-19.645 20.02-38.169 32.04-55.833 2.08-3.101 4.22-6.086 6.37-8.909 25.85-34.374 55.76-58.951 94.07-77.351 13.07-6.259 27.41-11.631 43.81-16.278 43.36-12.367 93.04-17.449 129.31-21.118 23.76-2.43 46.18-4.683 67.42-9.011 28.57-5.811 52.26-13.684 74.49-24.949 28.67-14.443 67.54-41.24 89.68-86.908 16.84-34.63 20.01-70.793 22.77-102.722.22-2.545.46-5.01.65-7.511 3.45-38.305 7.5-71.466 12.37-101.374 2.44-14.691 5.21-31.408 11.81-48.395 5.35-13.727 15.51-33.275 33.6-48.142 14.21-11.745 32.28-19.695 55.23-24.401 7.69-1.56 15.54-2.322 23.15-3.06 10.64-1.007 21.6-2.046 32.41-5.349 62.72-19.107 130.18-45.207 206.32-79.883 37.31-16.996 70.06-36.088 97.34-56.9 21.51-16.356 40.23-34.256 55.77-53.337z"/><path opacity=".391" d="M2175.49-103.166c7.55-9.274 14.35-18.796 20.34-28.602l-2.04-1.216c-32.72 53.503-88.6 98.555-166.09 133.98-77.72 35.529-141 59.574-199.11 75.647-11.08 3.085-22.33 3.585-33.22 4.09-7.82.351-15.87.728-23.88 2.034-23.81 3.86-43.35 12-58.13 24.171-14.86 12.258-26.87 30.449-33.79 51.089-5.95 17.815-7.61 34.542-9.21 50.732-2.95 30.811-4.92 64.043-6.3 104.618-.07 1.716-.1 3.387-.17 5.103-1.06 33.383-2.31 71.26-19.83 107.261-23.76 48.845-68.99 73.566-93.8 83.914-22.86 9.579-46.72 15.681-77.37 19.873-18.57 2.591-38.02 3.726-58.6 4.977-3.51.237-7.07.438-10.63.64-41.51 2.578-89.83 6.992-133.13 20.003-16.58 4.95-31.7 11.012-44.86 17.931-38.37 20.196-68.14 48.502-91 86.638a216.164 216.164 0 00-5.59 9.845c-9.14 17.207-16.21 34.771-23.66 53.431-7 17.475-14.25 35.627-24.02 55.501-10.84 22.018-28.79 53.386-59.57 70.975-15.68 8.926-32.245 12.857-48.214 16.606-13.264 3.147-27.012 6.343-40.222 12.412-27.192 12.545-53.179 37.657-79.36 76.783-5.615 8.343-11.107 17.081-16.472 25.481-14.356 22.699-29.246 46.149-47.49 65.839l1.755 1.65c18.434-19.83 33.315-43.36 47.743-66.149 5.321-8.435 10.858-17.137 16.436-25.437 25.973-38.779 51.582-63.608 78.388-75.95 12.976-5.965 26.599-9.189 39.747-12.283 16.166-3.809 32.889-7.757 48.879-16.877 31.32-17.889 49.51-49.647 60.48-72.004 9.84-19.962 17.1-38.114 24.09-55.67 7.42-18.535 14.45-36.055 23.52-53.173 1.81-3.398 3.63-6.636 5.51-9.757 22.62-37.744 52.09-65.776 90.04-85.725 13.05-6.866 27.97-12.868 44.43-17.765 43.1-12.95 91.22-17.303 132.61-19.909 3.56-.202 7.12-.403 10.64-.641 20.65-1.258 40.14-2.438 58.83-5.001 30.86-4.173 54.87-10.372 78.01-20.019 19.47-8.134 51.34-24.981 75.92-55.156 7.15-8.786 13.7-18.73 19.19-29.908 17.75-36.473 18.97-74.592 20.09-108.225.07-1.716.14-3.431.17-5.102 1.35-40.531 3.36-73.727 6.27-104.493 1.57-16.066 3.21-32.668 9.07-50.189 6.79-20.301 18.52-38.057 33.08-50.041 14.4-11.887 33.6-19.87 56.97-23.644 7.84-1.29 15.86-1.623 23.55-2.002 11.01-.476 22.39-1.03 33.74-4.184 58.27-16.089 121.63-40.142 199.51-75.769 35.86-16.4 67.4-35.003 93.72-55.268 20.44-15.758 38.21-32.871 53.03-51.065z"/><path opacity=".435" d="M2170.49-108.635a257.025 257.025 0 0020.12-28.417l-2.12-1.287C2156.9-86.417 2103.28-42.776 2029-8.575c-77.78 35.78-137.03 57.866-192.21 71.525-11.47 2.84-23.14 2.855-34.37 2.864-7.97.002-16.18.028-24.34.985-24.67 3.011-44.85 10.933-60 23.466-20.67 17.124-29.77 40.631-33.33 53.158-5.28 18.438-5.86 35.826-6.46 52.607-1 31.14-1.04 65.354-.17 107.692l.06 3.004c.73 34.99 1.54 74.69-16.82 112.284-24.51 50.304-72.56 72.954-99.05 82.009-23.31 7.957-48.26 12.584-80.87 15.025-16.31 1.261-33.16 1.561-50.95 1.835-6.66.111-13.48.24-20.42.42-56.88 1.426-100.28 7.411-136.58 18.812-16.91 5.268-32.23 11.838-45.56 19.507-38.78 22.149-67.24 53.291-87.03 95.261-1.6 3.418-3.22 7.042-4.68 10.73-6.99 17.109-11.95 34.253-17.21 52.405-5.87 20.247-11.95 41.127-21.38 64.221-14.87 36.382-33.93 60.786-58.19 74.616-16.22 9.225-33.48 12.659-50.189 15.954-13.555 2.688-27.63 5.47-41.142 11.368-28.083 12.187-54.62 37.885-81.164 78.634-5.273 8.105-10.477 16.489-15.463 24.605-14.833 24.008-30.154 48.808-49.593 69.138l1.8 1.69c19.619-20.56 35.013-45.44 49.918-69.54 4.986-8.117 10.19-16.5 15.427-24.561 26.263-40.314 52.423-65.728 80.038-77.706 13.279-5.792 27.193-8.557 40.632-11.193 16.906-3.356 34.326-6.806 50.936-16.234 11.69-6.646 22.16-15.609 31.56-27.146 10.55-12.957 19.72-29.109 27.73-48.64 9.46-23.219 15.58-44.143 21.47-64.434 5.23-18.108 10.2-35.172 17.12-52.192 1.5-3.651 3.05-7.186 4.65-10.604 19.6-41.463 47.69-72.241 86.05-94.144 13.17-7.572 28.34-14.045 45.05-19.253 36.07-11.296 79.26-17.3 135.91-18.701 6.93-.181 13.75-.309 20.41-.42 17.83-.319 34.68-.618 51.06-1.888 32.83-2.421 57.9-7.101 81.48-15.127 20.32-6.919 39.54-17.101 55.65-29.447 19.65-15.068 34.72-33.125 44.77-53.801 18.63-38.19 17.84-78.177 17.12-113.452l-.07-3.004c-.86-42.258-.78-76.436.19-107.532.58-16.655 1.17-33.882 6.36-52.026 3.46-12.233 12.34-35.188 32.52-51.896 14.77-12.25 34.57-19.97 58.75-22.932 8.04-.984 16.17-1.003 24.06-.996 11.39-.026 23.19-.013 34.97-2.967 55.3-13.71 114.71-35.814 192.64-71.69 60.71-28.054 107.84-62.367 140.4-102.349z"/><path opacity=".478" d="M2165.36-113.926c7.48-9.185 14.16-18.655 20.07-28.453l-2.17-1.324c-30.36 50.333-81.81 92.572-152.93 125.514-50.99 23.642-118.11 52.597-185.27 67.357-11.89 2.64-23.91 2.08-35.51 1.639-8.13-.348-16.5-.672-24.89.024-25.45 2.155-46.27 9.776-61.91 22.725-21.33 17.681-29.69 42.17-32.83 55.183-4.56 19.096-4.14 37.074-3.67 54.436.86 31.845 2.69 66.031 5.88 110.775l.07 1.091c2.6 36.508 5.53 77.943-13.6 117.202-26.3 53.863-81.6 73.92-104.2 80.096-30.27 8.262-59.61 9.758-84.3 10.168-14.3.242-28.77-.108-44.19-.484-9.5-.208-19.33-.463-29.26-.586-55.5-.547-102.61 5.37-140 17.655-17.17 5.58-32.75 12.666-46.22 21.039-21.23 13.115-39.36 29.572-53.85 48.913-12.1 16.206-21.69 34.15-29.25 54.937-1.36 3.76-2.67 7.636-3.85 11.621-5.18 17.33-8.52 34.471-11.99 52.603-4.36 22.575-8.85 45.936-17.51 71.798-12.66 37.742-31.81 64.067-56.84 78.221-16.77 9.444-34.74 12.38-52.06 15.25-13.878 2.274-28.28 4.642-42.183 10.295-28.973 11.831-56.098 38.158-82.888 80.478-4.975 7.831-9.917 15.984-14.679 23.915-15.236 25.238-30.917 51.288-51.515 72.228l1.808 1.77c20.778-21.17 36.604-47.4 51.912-72.718 4.726-7.887 9.668-16.04 14.644-23.871 26.553-41.848 53.263-67.848 81.725-79.505 13.626-5.584 27.867-7.935 41.636-10.157 17.56-2.895 35.68-5.847 52.88-15.538 25.65-14.461 45.16-41.23 58.04-79.604 8.69-25.988 13.25-49.437 17.6-72.093 3.48-18.051 6.78-35.147 11.93-52.353 1.19-3.904 2.46-7.817 3.79-11.452 16.46-45.127 43.25-78.661 82.06-102.562 13.31-8.277 28.7-15.222 45.67-20.74 37.16-12.18 83.94-18.064 139.2-17.492 9.98.078 19.77.378 29.27.586 15.41.376 29.94.761 44.27.475 24.85-.426 54.43-1.947 84.94-10.234 21.33-5.802 41.68-15.287 58.79-27.329 20.83-14.7 36.67-32.876 47.03-54.111 19.47-39.864 16.5-81.621 13.83-118.487l-.07-1.091c-3.2-44.745-5.02-78.85-5.91-110.65-.42-17.246-.86-35.018 3.65-53.784 3.05-12.719 11.23-36.62 32-53.796 15.23-12.622 35.57-20.113 60.5-22.174 8.23-.68 16.52-.348 24.57.008 11.77.505 23.9 1.013 36.15-1.704 67.4-14.785 134.72-43.88 185.79-67.532 57.62-26.883 102.54-59.75 133.84-98.178z"/><path opacity=".522" d="M2160.18-119.172c7.45-9.142 14.13-18.611 19.99-28.445l-2.25-1.316c-29.18 48.788-78.41 89.58-146.32 121.218-49.24 22.934-113.99 50.873-178.33 63.271-12.33 2.36-24.64 1.34-36.62.369-8.28-.698-16.86-1.408-25.43-.937-26.27 1.263-47.73 8.664-63.81 22.065-16.04 13.356-27.86 34.213-32.34 57.207-3.92 19.763-2.39 38.359-.96 56.274 3.42 41.02 8.18 82.391 11.93 113.858 4.32 35.844 9.65 80.41-10.3 121.217-27.18 55.581-85.55 73.144-109.4 78.147-30.71 6.435-60.37 6.337-87.81 5.32-12.41-.439-24.91-1.317-38.18-2.237-12.09-.839-24.62-1.672-37.37-2.239-56.02-2.446-104.26 3.139-143.46 16.463-17.5 5.898-33.27 13.492-46.87 22.571-39.24 25.979-65.84 63.805-79.13 112.473-1.09 4.057-2.12 8.231-2.99 12.469-3.71 17.79-5.52 35.141-7.5 53.527-2.6 24.754-5.35 50.337-12.92 78.569-7.29 27.268-22.9 63.563-55.49 81.825-17.32 9.663-35.94 12.137-53.88 14.501-14.29 1.869-29.02 3.823-43.261 9.347-29.856 11.556-57.575 38.432-84.692 82.331-4.786 7.689-9.459 15.693-14.04 23.402-15.523 26.402-31.644 53.722-53.328 75.182l1.816 1.84c21.901-21.72 38.094-49.13 53.762-75.706 4.537-7.746 9.218-15.668 14.004-23.358 26.808-43.339 54.113-69.888 83.421-81.225 13.973-5.375 28.538-7.312 42.668-9.164 18.22-2.433 37.05-4.888 54.79-14.797 11.23-6.275 20.43-14.578 28.06-23.941 15.1-18.549 23.78-41.077 28.73-59.482 7.67-28.445 10.37-54.145 13-78.943 1.95-18.342 3.76-35.612 7.45-53.277.91-4.202 1.87-8.368 2.96-12.345 13.07-48.035 39.35-85.381 78.06-110.981 13.45-8.901 29.03-16.434 46.3-22.227 38.88-13.211 86.84-18.727 142.53-16.328 12.75.567 25.25 1.445 37.29 2.247 13.27.92 25.81 1.754 38.26 2.229 27.61 1.081 57.44 1.163 88.42-5.342 15.57-3.261 39.01-10.296 61.94-25.21 22-14.332 38.6-32.626 49.23-54.378 20.28-41.492 14.87-86.497 10.6-122.671-3.79-31.423-8.55-72.794-11.96-113.733-1.46-17.791-2.89-36.153.9-55.578 4.42-22.458 15.89-42.71 31.49-55.695 15.59-12.985 36.53-20.212 62.24-21.417 8.42-.374 16.91.263 25.12.97 12.1 1 24.61 2.038 37.3-.399 64.63-12.387 129.58-40.386 178.92-63.453 54.75-25.818 97.5-57.282 127.46-94.068z"/><path opacity=".565" d="M2155.05-124.384a238.561 238.561 0 0019.95-28.481l-2.29-1.352c-28 47.243-75.03 86.59-139.77 116.968-47.23 22.2-109.38 48.937-171.39 59.103-12.72 2.115-25.41.565-37.64-.91-8.48-1.003-17.22-2.062-26.03-1.933-18.6.275-45.09 4.164-65.71 21.324-16.53 13.772-28.15 35.381-31.89 59.276-3.24 20.466-.67 39.607 1.79 58.068l.01.08c5.56 40.842 12.25 82.015 18.06 116.933 6.09 36.475 13.62 81.875-7.11 124.185-28.87 58.927-95.01 73.258-114.56 76.234-29.52 4.524-57.86 3.436-91.23.463-10.76-.934-21.5-2.153-32.89-3.388-14.49-1.61-29.38-3.26-44.75-4.413-38.95-2.932-96.11-2.617-146.92 15.271-17.78 6.254-33.84 14.363-47.57 24.066-39.84 28.075-65.12 68.818-75.15 121.098-.82 4.354-1.58 8.826-2.13 13.397-2.35 18.383-2.89 36.174-3.4 55.02-.77 26.682-1.52 54.338-7.93 84.77-4.85 23.357-18.39 65.543-54.18 85.475-17.91 9.926-37.15 11.894-55.75 13.796-14.57 1.491-29.67 2.995-44.259 8.311-30.818 11.288-59.123 38.793-86.458 84.138-4.553 7.585-9.082 15.411-13.474 22.979-15.855 27.536-32.263 56.016-55.033 77.996l1.869 1.96c22.986-22.24 39.503-50.86 55.458-78.605 4.392-7.567 8.876-15.43 13.438-22.933 27.026-44.785 54.881-71.919 85.072-82.98 14.277-5.203 29.217-6.69 43.627-8.164 18.92-1.936 38.45-3.892 56.81-14.109 15.36-8.527 28.19-21.84 38.15-39.414 7.78-13.813 13.66-29.913 17.36-47.783 6.38-30.674 7.21-58.419 7.96-85.262.56-18.81 1.06-36.556 3.38-54.814.56-4.491 1.29-8.918 2.11-13.192 9.9-51.576 34.84-91.713 74.07-119.4 13.58-9.606 29.36-17.566 46.91-23.795 50.36-17.803 107.09-18.032 145.78-15.155 15.33 1.116 30.27 2.802 44.67 4.42 11.36 1.279 22.14 2.455 32.93 3.425 33.59 2.992 62.09 4.064 91.93-.494 16.3-2.521 40.82-8.528 65.12-23.135 23.22-13.928 40.5-32.333 51.48-54.609 21.1-43.04 13.44-88.914 7.31-125.792-5.81-34.918-12.46-76.055-18.05-116.852l-.01-.081c-2.44-18.299-4.94-37.162-1.79-57.254 3.64-23.234 14.92-44.238 30.96-57.595 19.98-16.646 45.83-20.47 64.03-20.704 8.65-.113 17.34.91 25.7 1.887 12.44 1.493 25.28 3.027 38.41.871 62.33-10.2 124.75-37.085 172.1-59.339 51.73-24.37 92.26-54.387 120.92-89.576z"/><path opacity=".609" d="M1718.15 415.886c5.67-6.967 10.51-14.54 14.52-22.638 21.89-44.544 11.62-93.283 4.11-128.922-8.07-38.307-16.58-79.335-24.11-119.935l-.05-.117c-3.43-18.808-7.01-38.253-4.54-59.048 2.91-24.054 14-45.73 30.45-59.494 20.5-17.107 47.06-20.272 65.77-19.947 8.88.149 17.73 1.522 26.32 2.84 12.77 1.988 25.96 4.015 39.48 2.185 61.11-8.244 123.57-35.46 165.28-55.224 28.68-13.55 54.19-29.38 75.78-46.925 24.56-20.003 44.31-42.525 58.61-66.89l-2.38-1.424c-26.85 45.662-71.62 83.598-133.2 112.717-41.56 19.667-103.75 46.734-164.41 54.972-13.12 1.79-26.1-.218-38.67-2.187-8.68-1.31-17.65-2.71-26.7-2.924-19.15-.319-46.44 2.92-67.57 20.62-17.02 14.189-28.44 36.55-31.4 61.3-2.51 21.206 1.05 40.856 4.54 59.862l.05.117c7.53 40.599 16.05 81.708 24.11 120.015 7.43 35.2 17.57 83.465-3.88 127.11-29.86 60.777-99.22 72.264-119.72 74.32-30.2 3.008-58.6.543-94.74-4.384-9.24-1.252-18.41-2.673-28.13-4.161-16.61-2.531-33.8-5.166-51.6-7.046-25.78-2.692-51.01-3.163-74.95-1.325-27.8 2.153-53.14 7.348-75.38 15.44-18.12 6.572-34.37 15.189-48.27 25.642-21.76 16.3-39.01 36.939-51.2 61.332-10.16 20.362-16.88 43.381-19.98 68.389-.54 4.652-.98 9.457-1.26 14.245-1.1 19.109-.36 37.501.45 56.984 1.18 28.558 2.37 58.091-2.69 90.581-3.81 24.43-15.65 68.516-52.89 89.044-18.36 10.136-37.38 11.552-57.45 12.995-14.98 1.085-30.44 2.219-45.41 7.37-31.747 10.976-60.603 39.067-88.264 85.991-4.365 7.443-8.74 15.172-12.979 22.644-16.107 28.66-32.847 58.27-56.585 80.72l1.913 2c24.116-22.73 40.876-52.55 57.127-81.39 4.239-7.466 8.534-15.187 12.943-22.594 27.28-46.275 55.686-73.994 86.755-84.779 14.63-4.994 29.93-6.112 44.75-7.18 19.54-1.43 39.73-2.925 58.63-13.36 15.83-8.738 28.74-22.506 38.36-40.941 9.57-18.267 13.92-37.302 15.9-50.156 5.04-32.731 3.87-62.389 2.68-91.108-.8-19.403-1.5-37.759-.43-56.743.25-4.743.7-9.468 1.25-14.039 6.74-55.035 30.32-98.045 70.07-127.819 13.68-10.266 29.69-18.779 47.53-25.282 40.66-14.857 93.61-19.785 149.08-13.947 17.73 1.889 34.88 4.488 51.49 7.019 9.71 1.488 18.89 2.909 28.16 4.116 36.31 4.991 64.92 7.476 95.39 4.399 17.04-1.702 42.68-6.724 68.27-21.016 15.64-8.516 28.73-19.333 39.07-32.024z"/><path opacity=".652" d="M1736 408.283c5.31-6.523 10.03-13.757 13.93-21.723 9.73-19.829 13.77-41.924 12.37-67.57-1.23-22.329-6.34-44.057-11.51-64.436-9.44-37.354-20.34-80.7-30.2-123.054l-.06-.117c-4.46-19.354-9.06-39.344-7.2-60.85 2.09-24.499 13.25-47.444 29.93-61.393 21.02-17.568 48.3-20.154 67.55-19.235 9.08.454 18.2 2.125 26.99 3.748 13.06 2.447 26.58 4.969 40.5 3.464 45.15-4.781 95.52-21.038 158.46-51.11 27.27-13 51.58-28.259 72.17-45.294 23.29-19.263 42.02-40.909 55.66-64.27l-2.46-1.416c-25.29 43.469-69.08 81.02-126.64 108.466-62.63 29.959-112.69 46.102-157.51 50.85-13.52 1.464-26.84-1.038-39.7-3.466-8.91-1.65-18.07-3.357-27.36-3.832-19.74-.95-47.74 1.711-69.48 19.88-17.19 14.41-28.77 38.048-30.95 63.288-1.86 21.953 2.77 42.185 7.29 61.736l.06.117c9.86 42.353 20.73 85.744 30.16 123.098 11.34 44.807 19.79 88.444-.69 130.078-24.51 49.856-80.61 70.076-124.96 72.415-34.1 1.821-67.2-3.581-98.21-9.277-7.91-1.427-16.01-3-23.89-4.552-18.63-3.586-37.93-7.348-57.9-10.024-32.87-4.408-96.59-8.629-153.78 12.922-18.41 6.928-34.93 16.061-48.92 27.174-51.03 40.366-64.72 97.494-67.17 138.301-.27 4.95-.44 10.052-.41 15.093.08 19.924 2.08 39.042 4.15 59.251 3.1 30.353 6.35 61.709 2.74 96.045-2.17 20.52-11.52 70.697-51.54 92.648-18.83 10.347-38.47 11.257-59.19 12.238-15.35.715-31.22 1.444-46.62 6.395-32.67 10.664-62.112 39.384-90.028 87.799-4.247 7.39-8.47 15.022-12.557 22.4-16.401 29.74-33.348 60.52-58.145 83.35l1.921 2.09c25.167-23.2 42.214-54.19 58.679-84.11 4.087-7.373 8.265-15.041 12.521-22.351 27.571-47.81 56.491-76.07 88.459-86.498 15-4.83 30.71-5.542 45.85-6.277 20.16-.923 41.01-1.876 60.42-12.567 41.25-22.646 50.82-73.902 52.98-94.87 3.66-34.665.39-66.182-2.72-96.617-2.06-20.128-4.05-39.166-4.12-59.009-.03-5.041.11-10.018.42-14.931 2.44-40.236 15.88-96.526 66.08-136.238 13.77-10.927 29.97-19.947 48.15-26.769 56.71-21.054 119.9-16.901 152.52-12.549 19.88 2.685 39.14 6.41 57.77 9.996 7.89 1.553 16.02 3.08 23.93 4.508 31.17 5.68 64.47 11.101 98.87 9.291 38.03-1.938 84.7-17.002 113.39-52.236z"/><path opacity=".696" d="M1753.71 400.859c5.31-6.523 9.81-13.491 13.47-20.985 21.56-43.778 10.66-90.744-2.35-135.137-12.49-42.573-24.64-84.286-36.25-126.136l-.01-.081c-5.49-19.9-11.13-40.434-9.95-62.724 1.36-25.319 12.32-48.936 29.4-63.293 21.43-17.975 49.54-19.955 69.3-18.478 9.31.716 18.59 2.737 27.57 4.665 13.35 2.905 27.24 5.878 41.62 4.815 43.3-3.332 92.87-18.693 151.56-46.987C2093-89.97 2135-126.4 2159.37-168.84l-2.5-1.452c-24.11 41.924-65.61 78.02-120.08 104.215-58.38 28.182-107.63 43.43-150.53 46.72-13.93 1.058-27.57-1.86-40.76-4.78-9.08-2.002-18.44-4.014-27.95-4.75-20.29-1.544-49.16.555-71.38 19.14-17.69 14.825-29.06 39.216-30.46 65.312-1.22 22.7 4.49 43.513 10.04 63.61l.01.08c11.6 41.851 23.76 83.564 36.3 126.173 12.86 43.837 23.62 90.167 2.54 133.002-25.34 51.405-83.83 70.12-130.12 70.502-34.87.313-67.99-6.51-101.67-14.088-6.67-1.515-13.5-3.095-20.13-4.654-20.54-4.773-41.75-9.722-63.8-13.285-33.46-5.404-98.35-11.092-157.24 11.731-18.74 7.246-35.45 16.887-49.58 28.705-51.8 43.13-62.94 103.659-63.19 146.926-.03 5.291.11 10.646.41 15.985 1.28 20.819 4.54 41.637 7.78 61.767 5.07 32.024 10.37 65.123 8.21 101.303-.98 16.697-7.58 73.02-50.23 96.298-19.35 10.521-39.56 10.961-60.91 11.436-15.75.31-32.03.632-47.77 5.456-18.49 5.675-36.36 17.549-53.092 35.288-13.469 14.273-26.173 32.047-38.702 54.318-4.131 7.338-8.237 14.922-12.207 22.242-16.616 30.82-33.778 62.68-59.625 85.99l1.93 2.16c26.18-23.63 43.523-55.71 60.239-86.75 3.97-7.32 8.032-14.932 12.171-22.19 27.825-49.3 57.296-78.145 90.146-88.298 15.38-4.665 31.46-5.008 47-5.337 20.79-.417 42.26-.865 62.22-11.773 16.64-9.106 29.69-23.865 38.79-43.914 9.19-20.263 12.12-40.982 12.94-54.775 2.17-36.466-3.11-69.771-8.23-101.912-3.36-20.971-6.49-40.787-7.71-61.489-.34-5.294-.47-10.569-.43-15.779.24-42.615 11.22-102.234 62.12-144.701 13.9-11.632 30.3-21.079 48.77-28.256 58.26-22.597 122.54-16.968 155.71-11.575 21.97 3.571 43.13 8.484 63.6 13.265 6.62 1.56 13.46 3.139 20.16 4.61 33.85 7.642 67.17 14.484 102.33 14.184 25.93-.212 52.46-6.139 74.6-16.743 18.05-8.476 33.16-20.151 44.62-34.218z"/><path opacity=".739" d="M1771.35 393.603a109.81 109.81 0 0013.17-20.424c10.24-20.737 13.82-43.882 10.9-70.757-2.57-24.021-9.89-47.395-16.54-67.501-15.94-48.038-29.18-88.053-42.35-129.256-6.48-20.408-13.24-41.56-12.66-64.562.58-26.094 11.4-50.427 28.93-65.156 21.99-18.48 50.77-19.837 71.04-17.72 9.58 1.012 19.13 3.33 28.36 5.6 13.64 3.364 27.74 6.803 42.52 6.146 41.55-1.89 90.27-16.31 144.74-42.873 51.85-25.235 91.55-60.212 114.74-101.187l-2.59-1.443c-28.95 51.042-77.71 82.552-113.44 99.955-54.17 26.368-102.45 40.704-143.59 42.552-14.3.608-28.23-2.767-41.66-6.03-9.3-2.262-18.95-4.652-28.73-5.685-20.85-2.14-50.48-.736-73.25 18.434-18.17 15.242-29.38 40.43-29.97 67.337-.52 23.484 6.26 44.879 12.85 65.52 13.12 41.167 26.41 81.218 42.34 129.256 14.86 44.65 27.51 91.926 5.74 135.97-26.15 53.034-89.2 70.1-135.32 68.634-35.67-1.152-68.76-9.279-105.14-18.981-5.56-1.506-11.25-3.039-16.77-4.509-22.26-6.021-45.31-12.247-69.24-16.755-26.67-5.041-54.5-7.036-80.32-5.778-29.63 1.404-56.65 6.933-80.34 16.353-19.07 7.565-36.01 17.758-50.27 30.281-22.36 19.576-38.7 44.352-48.56 73.672-8.36 24.855-11.93 52.353-10.63 81.833.25 5.589.67 11.241 1.32 16.869 2.4 21.803 6.97 43.464 11.36 64.453 7.06 33.65 14.36 68.456 13.68 106.356-.34 17.364-4.8 75.949-48.89 99.903-19.81 10.731-40.6 10.702-62.57 10.59-16.12-.06-32.84-.099-49.01 4.524-19 5.483-37.3 17.524-54.356 35.662-13.722 14.583-26.537 32.857-39.242 55.797-4.014 7.285-8.003 14.817-11.893 22.127-16.876 31.87-34.253 64.8-61.077 88.5l1.938 2.24c27.238-24.02 44.788-57.26 61.764-89.34 3.853-7.27 7.842-14.798 11.857-22.083 28.079-50.791 58.099-80.221 91.789-90.054 15.77-4.501 32.25-4.437 48.16-4.397 21.41.089 43.55.183 64.01-10.98 17.07-9.272 30.15-24.522 38.96-45.396 9.01-21.301 11.24-42.804 11.45-57.103.72-38.231-6.59-73.198-13.75-107.001-4.38-20.909-8.91-42.533-11.33-64.211-.65-5.547-1.02-11.164-1.29-16.627-1.95-44.913 6.52-107.977 58.17-153.083 14-12.293 30.63-22.292 49.39-29.744 59.8-23.852 125.29-16.72 159.01-10.365 23.81 4.48 46.78 10.713 69.03 16.735 5.52 1.469 11.21 3.003 16.78 4.508 36.58 9.722 69.8 17.878 105.83 19.032 26.9.87 54.52-4.315 77.75-14.623 19.26-8.6 35.24-20.527 47.2-35.215z"/><path opacity=".783" d="M1788.89 386.481c5.02-6.168 9.35-12.834 12.89-19.989 10.48-21.208 13.79-44.856 10.21-72.354-3.11-23.641-11-47.119-19.02-68.997l-.5-1.372c-15.92-43.077-32.36-87.607-47.93-130.923-7.51-20.953-15.26-42.615-15.41-66.356-.15-26.913 10.43-51.955 28.41-67.055 23.7-19.957 55.79-19.212 72.82-17.008 9.9 1.347 19.73 3.962 29.22 6.53 13.9 3.785 28.29 7.683 43.31 7.448 40.43-.515 86.81-13.517 137.93-38.758 34-16.74 80.36-47.108 108.21-96.981l-2.68-1.516c-27.48 49.143-73.3 79.132-106.88 95.705-50.77 25.003-96.72 37.92-136.65 38.465-14.62.194-28.76-3.647-42.49-7.369-9.62-2.596-19.49-5.247-29.59-6.613-17.49-2.28-50.55-3.007-75.16 17.694-18.65 15.657-29.67 41.597-29.51 69.405.16 24.268 8.02 46.163 15.6 67.394 15.58 43.316 32.01 87.845 47.89 130.967l.51 1.372c16.04 43.471 31.3 93.693 8.92 138.939-27 54.625-92.54 70.035-140.47 66.72-36.51-2.571-70.82-12.282-108.65-23.829-4.32-1.307-8.65-2.614-13.01-3.957-24.15-7.415-49.14-15.069-75.06-20.676-27.23-5.798-55.63-8.262-82.13-7.26-30.27 1.184-57.85 6.771-81.98 16.642-19.41 7.884-36.54 18.585-50.93 31.813-22.54 20.611-38.57 46.82-47.64 77.81-7.72 26.335-10.28 55.397-7.53 86.275.52 5.886 1.21 11.835 2.18 17.716 3.59 22.859 9.37 45.496 14.94 67.38 9.02 35.241 18.31 71.593 19.14 111.168.34 18.067-2.13 79.012-47.58 103.552-20.27 10.942-41.65 10.362-64.2 9.781-16.56-.422-33.66-.911-50.24 3.592-19.55 5.336-38.24 17.498-55.66 36.08-13.784 14.753-27.153 33.978-39.744 57.232-3.934 7.272-7.843 14.792-11.616 22.052-17.055 32.91-34.647 66.92-62.448 91l2.026 2.32c28.252-24.45 46.017-58.77 63.208-91.93 3.772-7.26 7.645-14.74 11.579-22.015 27.915-51.588 59.335-82.463 93.485-91.773 16.19-4.381 33.04-3.948 49.35-3.502 22.03.595 44.79 1.196 65.76-10.143 17.42-9.429 30.65-25.223 39.18-46.841 6.85-17.379 10.38-38.486 10.03-59.44-.87-39.898-10.22-76.447-19.25-111.848-5.57-21.804-11.38-44.396-14.88-67.103-.92-5.844-1.6-11.713-2.11-17.519-3.39-38.704-.88-111.125 54.21-161.546 14.09-12.953 30.92-23.46 50.01-31.231 44.59-18.228 103.8-21.6 162.3-9.237 25.87 5.571 50.73 13.197 74.84 20.576 4.37 1.343 8.69 2.65 13.01 3.957 38 11.531 72.44 21.35 109.31 23.925 27.86 1.95 56.57-2.492 80.89-12.505 20.37-8.429 37.19-20.644 49.58-35.864z"/><path opacity=".826" d="M1806.43 379.358a105.86 105.86 0 0012.64-19.598c23.56-47.603 6.13-99.515-12.1-144.472l-3.32-8.243c-16.89-41.798-34.4-84.997-51.16-127.134-8.5-21.462-17.28-43.67-18.16-68.15-.72-21.403 6.25-50.713 27.86-68.91 24.31-20.425 57.16-18.986 74.52-16.287 10.21 1.6 20.32 4.593 30.17 7.45 14.13 4.127 28.73 8.41 44.06 8.795 38.65.847 84.04-11.118 131.15-34.608 31.81-15.864 75.34-44.845 101.64-92.729l-2.75-1.508c-25.97 47.199-68.89 75.792-100.32 91.454-46.63 23.279-91.51 35.15-129.66 34.335-14.93-.345-29.35-4.565-43.23-8.636-9.9-2.893-20.13-5.914-30.55-7.534-17.94-2.802-51.81-4.26-77.06 16.953-9.85 8.29-17.68 19.626-22.7 32.953-4.59 12.062-6.72 25.38-6.32 38.477.85 25.052 9.74 47.492 18.34 69.188 16.76 42.137 34.24 85.38 51.17 127.215l3.33 8.243c17.95 44.292 35.1 95.46 12.19 141.899-25.95 52.525-91.85 70.371-145.71 64.816-37.71-3.994-73.08-15.386-112.07-28.686-3.41-1.156-6.87-2.349-10.28-3.505-25.68-8.804-52.23-17.885-79.92-24.49-27.72-6.561-56.71-9.576-83.88-8.749-30.86.919-58.99 6.644-83.61 16.931-19.7 8.239-37.1 19.456-51.59 33.345-56.65 54.161-56.4 131.423-51.16 172.664.79 6.183 1.8 12.467 3 18.609 4.71 23.762 11.75 47.286 18.51 69.985 11.01 36.867 22.36 75.042 24.71 116.294 2.08 38.675-8.99 87.156-46.27 107.2-20.75 11.153-42.7 10.103-65.92 8.98-16.97-.828-34.46-1.642-51.51 2.705-20.01 5.179-39.14 17.427-56.92 36.453-14.04 15.063-27.599 34.796-40.249 58.666-3.853 7.271-7.646 14.731-11.338 21.991-17.233 33.94-35.04 69.03-63.864 93.46l2.035 2.39c7.672-6.52 14.581-13.73 20.906-21.5 17.78-21.83 30.921-47.66 43.753-72.93 3.692-7.26 7.485-14.72 11.302-21.95 28.135-53.031 60.135-84.535 95.175-93.57 16.57-4.217 33.86-3.422 50.54-2.606 22.65 1.1 46.03 2.207 67.55-9.35 9.21-4.969 16.91-11.615 23.2-19.336 20.06-24.628 26.34-60.62 24.68-90.755-2.35-41.699-13.75-79.99-24.83-117.055-6.74-22.618-13.7-46.07-18.43-69.707a287.589 287.589 0 01-2.98-18.367c-5.13-40.641-5.4-116.804 50.26-170.009 14.18-13.614 31.28-24.637 50.63-32.718 45.72-19.158 106.11-22.081 165.59-8.029 27.48 6.586 54 15.63 79.63 24.398 3.41 1.156 6.87 2.348 10.28 3.504 39.2 13.401 74.74 24.776 112.78 28.818 28.86 2.986 58.7-.757 84.07-10.43 21.64-8.356 39.32-20.822 52.19-36.62z"/><path opacity=".87" d="M1823.86 372.449c4.77-5.857 8.99-12.309 12.46-19.376 24.07-48.591 4.7-101.646-15.34-147.557-19.48-44.136-39.28-89.419-60.58-138.496-9.52-21.927-19.32-44.6-20.82-69.952-1.27-21.998 5.28-52.16 27.34-70.81 24.86-20.93 58.49-18.714 76.3-15.574 10.61 1.925 21.08 5.207 31.2 8.362 14.34 4.513 29.09 9.147 44.64 10.078 47.39 2.8 93.77-15.082 124.36-30.537 20.19-10.201 38.48-22.689 54.27-36.995 17.01-15.448 30.77-32.802 40.85-51.528l-2.8-1.544c-24.45 45.254-64.47 72.371-93.75 87.203-30.21 15.253-76.04 32.916-122.69 30.203-15.14-.892-29.77-5.497-43.89-9.91-10.21-3.227-20.8-6.537-31.62-8.482-18.35-3.288-53.04-5.557-78.92 16.249-22.99 19.356-29.8 50.642-28.53 73.454 1.56 25.916 11.51 48.857 21.1 71.062 21.29 49.077 41.14 94.396 60.58 138.496 19.76 45.247 38.86 97.477 15.39 144.868-26.73 54.029-95.09 70.54-150.87 62.902-38.71-5.396-73.74-17.84-115.58-33.534-2.62-.952-5.24-1.985-7.91-2.974-27.12-10.202-55.21-20.753-84.38-28.426-61.18-15.872-123.53-13.359-170.95 6.99-20.07 8.602-37.66 20.327-52.24 34.876-22.93 22.806-38.32 51.756-45.84 86.004-6.31 28.957-6.8 61.916-1.37 95.204 1.07 6.481 2.39 13.017 3.87 19.456 5.84 24.908 14.12 49.444 22.12 73.154 12.96 38.377 26.33 78.053 30.1 120.908 3.45 40.082-6.47 90.236-44.96 110.77-21.21 11.363-43.71 9.799-67.55 8.17-17.33-1.197-35.31-2.409-52.74 1.774-36.84 8.893-70.15 41.548-98.939 96.923-3.773 7.26-7.485 14.72-11.096 21.97-17.413 34.97-35.399 71.1-65.2 95.91l2.043 2.48c30.287-25.23 48.446-61.66 66.031-96.94 3.611-7.24 7.323-14.7 11.096-21.96 28.385-54.525 60.945-86.615 96.825-95.329 16.96-4.053 34.65-2.852 51.78-1.675 23.22 1.57 47.23 3.263 69.29-8.512 18.32-9.806 31.62-26.583 39.57-49.851 6.48-18.927 9-41.679 7.08-64.059-3.86-43.213-17.29-83.087-30.31-121.661-7.99-23.63-16.23-48.129-22.05-72.876-1.47-6.359-2.78-12.815-3.8-19.259-6.92-42.534-10.11-122.262 46.3-178.472 14.36-14.283 31.57-25.806 51.25-34.205 46.84-20.086 108.38-22.597 168.89-6.821 29.01 7.609 56.97 18.132 84.05 28.299 2.66.988 5.25 1.985 7.91 2.974 42 15.757 77.25 28.301 116.25 33.709 49.77 6.951 109.18-5.107 141.78-45.133z"/><path opacity=".913" d="M1841.33 365.416c4.77-5.858 8.83-12.213 12.25-19.03 11.2-22.542 13.82-47.787 8.01-77.172-5.08-25.759-15.79-50.575-26.56-73.514a41569.747 41569.747 0 01-66.63-141.58c-10.51-22.436-21.39-45.69-23.57-71.745-1.87-22.629 4.24-53.6 26.86-72.672 25.46-21.48 59.86-18.489 78.05-14.818 11.01 2.25 21.92 5.894 32.44 9.373 14.45 4.828 29.4 9.767 45.1 11.334 35.79 3.54 77.54-5.857 117.54-26.423 38.92-19.967 70.39-49.912 88.59-84.316l-2.88-1.536c-17.86 33.8-48.85 63.248-87.19 82.953-39.46 20.266-80.53 29.552-115.71 26.072-15.32-1.484-30.1-6.44-44.34-11.166-10.61-3.552-21.6-7.188-32.86-9.493-18.82-3.811-54.36-6.848-80.83 15.508-23.59 19.904-29.9 52.035-28.03 75.478 2.24 26.7 13.22 50.186 23.89 72.892 23.62 50.384 45.4 96.685 66.67 141.615 21.63 46.032 42.69 99.2 18.58 147.836-27.41 55.319-100.11 70.362-156.06 61.034-42.81-7.256-83.3-23.778-119.04-38.346l-5.78-2.339c-28.52-11.645-57.95-23.727-88.53-32.395-62.24-17.553-125.81-15.444-174.4 5.798-20.41 8.921-38.19 21.153-52.94 36.452-23.1 23.922-38.22 54.268-44.92 90.141-5.71 30.482-5.08 64.953 1.74 99.727a297.852 297.852 0 004.76 20.34c7.02 26.089 16.59 51.673 25.84 76.395 14.85 39.851 30.25 81.028 35.52 125.398 4.66 39.591-3.96 93.314-43.66 114.419-21.68 11.573-44.75 9.459-69.17 7.36-17.78-1.559-36.13-3.221-53.98.842-37.8 8.626-71.66 41.866-100.74 98.782-3.69 7.25-7.36 14.74-10.893 21.98-17.591 36.01-35.8 73.14-66.499 98.33l2.052 2.55c31.265-25.61 49.638-63.12 67.37-99.39 3.53-7.23 7.19-14.73 10.85-21.94 28.6-56.047 61.75-88.686 98.52-97.044 17.38-3.933 35.48-2.327 52.97-.78 23.81 2.121 48.47 4.276 71-7.71 18.49-9.822 32.21-27.579 39.82-51.341 6.33-19.725 8.27-43.313 5.58-66.388-5.42-45.005-20.88-86.38-35.83-126.383-9.19-24.686-18.76-50.19-25.72-76.081-1.77-6.612-3.32-13.41-4.7-20.143-8.73-44.382-14.86-127.755 42.3-186.891 14.46-14.943 31.91-26.938 51.88-35.692 47.93-20.971 110.65-23.033 172.22-5.657 30.46 8.641 59.8 20.651 88.2 32.268l5.77 2.338c35.87 14.677 76.58 31.299 119.75 38.558 30.71 5.157 62.79 2.935 90.37-6.192 23.96-7.942 43.27-20.778 56.97-37.596z"/><path opacity=".957" d="M1858.8 358.462c4.62-5.68 8.66-11.91 12.11-18.771 11.44-23.014 13.81-48.761 7.29-78.725-5.78-26.623-17.98-52.873-29.08-75.047-22.96-45.57-46.76-92.925-72.72-144.697-11.55-22.983-23.41-46.745-26.28-73.584-2.42-23.224 3.2-55.04 26.34-74.572 26.02-21.984 61.18-18.299 79.83-14.105 11.53 2.603 22.97 6.6 33.97 10.397 14.47 5.069 29.49 10.285 45.22 12.541 34.54 4.887 73.92-3.046 110.76-22.272 35.87-18.761 65.02-47.206 82.07-80.11l-2.96-1.528c-16.71 32.3-45.3 60.24-80.59 78.658-36.22 18.918-74.84 26.732-108.73 21.941-15.35-2.172-30.2-7.325-44.54-12.366-11.1-3.869-22.58-7.901-34.36-10.561-14.78-3.328-29.58-4.092-42.82-2.25-15.68 2.214-29.09 7.897-39.87 17.054-24.15 20.41-30.05 53.393-27.54 77.502 2.89 27.447 14.98 51.471 26.6 74.73 25.96 51.773 49.79 99.084 72.72 144.698 25.23 50.22 45.35 103.282 21.81 150.76-28.23 56.868-103.39 70.495-161.26 59.166-43.92-8.687-85.67-27.035-122.51-43.239l-3.92-1.714c-29.77-13.104-60.52-26.637-92.52-36.381-29.14-8.898-60.03-13.466-89.26-13.284-32.73.215-62.58 6.238-88.6 17.89-20.74 9.239-38.75 22.024-53.59 37.983-23.32 25.002-38.14 56.701-44.06 94.242-5.02 31.999-3.37 68.034 4.84 104.17a337.009 337.009 0 005.59 21.232c8.15 27.234 19.02 53.946 29.55 79.717 16.79 41.279 34.18 84.003 40.9 129.851 5.98 40.961-1.53 96.401-42.35 118.068-22.15 11.703-45.8 9.199-70.77 6.506-18.18-1.964-36.97-3.988-55.29-.081-38.73 8.314-73.22 42.147-102.51 100.589-3.61 7.24-7.23 14.77-10.72 22.04-17.778 36.97-36.158 75.22-67.842 100.71l2.096 2.59c8.686-6.95 16.379-14.86 23.317-23.38 18.901-23.2 32.309-51.18 45.469-78.48 3.48-7.27 7.07-14.75 10.73-21.96 28.81-57.499 62.51-90.722 100.2-98.849 17.76-3.769 36.31-1.801 54.24.107 24.43 2.627 49.68 5.332 72.76-6.873 9.07-4.792 16.59-11.215 22.7-18.715 22.4-27.512 26.21-69.8 21.42-102.787-6.77-46.251-24.25-89.127-41.11-130.604-10.48-25.734-21.29-52.33-29.43-79.403a385.143 385.143 0 01-5.57-20.99c-17.94-78.748-3.94-149.943 38.35-195.354 14.56-15.604 32.19-28.106 52.5-37.18 48.97-21.891 112.91-23.549 175.47-4.483 31.75 9.688 62.46 23.185 92.15 36.297l3.92 1.714c37.01 16.269 78.93 34.761 123.22 43.451 51.97 10.142 117.96.341 152.66-42.259z"/><path d="M1876.15 351.562a97.829 97.829 0 0011.97-18.594c24.87-50.015 2.65-104.936-25.03-156.857l-78.78-147.78c-12.53-23.492-25.51-47.791-29.02-75.378-3.01-23.855 2.2-56.442 25.85-76.516 19.43-16.428 49.16-21.299 81.58-13.347 12.23 3.02 24.31 7.398 35.93 11.62 14.4 5.238 29.32 10.669 44.87 13.593 32.93 6.151 69.48-.028 102.91-17.603 33.39-17.531 60.59-44.68 76.58-76.458l-3.08-1.555c-32.25 64.152-109.46 104.674-175.78 92.216-15.26-2.832-30.05-8.235-44.33-13.445-11.74-4.25-23.87-8.664-36.3-11.704-15.07-3.707-30.26-4.715-43.8-3.046-16.06 2.05-29.79 7.766-40.8 17.109-10.67 9.024-18.73 21.645-23.36 36.478-4.22 13.611-5.5 28.508-3.69 43.049 3.58 28.23 17.27 53.921 29.39 76.56l78.81 147.736c27.24 51.113 49.16 105.129 25 153.728-29.05 58.416-106.59 70.619-166.46 57.217-45.13-10.11-87.43-29.946-128.29-49.198-30.97-14.526-63.03-29.634-96.23-40.435-41.24-13.436-85.46-17.862-124.62-12.555-21.82 2.965-42 8.893-60.07 17.575-19.58 9.447-36.7 22.221-50.8 37.901-25.85 28.76-40.82 65.803-44.39 110.059-3.03 37.531 2.36 78.675 15.63 119.012 9.38 28.451 21.54 56.212 33.28 83.119 18.73 42.709 38.05 86.861 46.19 134.232 7.88 45.608-1.71 100.976-41.04 121.717-22.62 11.914-46.81 8.896-72.44 5.66-18.63-2.325-37.83-4.754-56.56-.967-39.66 8.002-74.74 42.465-104.32 102.435-3.56 7.28-7.11 14.81-10.59 22.08-17.92 37.95-36.483 77.24-69.109 103.07l2.148 2.71c33.273-26.27 52.001-65.93 70.081-104.27 3.41-7.26 6.95-14.79 10.56-22.03 29.04-58.943 63.32-92.796 101.86-100.602 18.18-3.649 37.13-1.276 55.43 1.002 25.05 3.133 50.89 6.388 74.43-6.027 19.3-10.191 33.16-28.938 40.25-54.313 5.88-21.266 6.79-46.499 2.62-71.008-8.26-47.765-27.65-92.115-46.43-135.02-11.74-26.828-23.88-54.507-33.17-82.806-29.34-89.216-18.81-173.561 28.06-225.663 60.3-67.063 162.61-64.552 231.92-41.987 33.03 10.737 64.95 25.737 95.85 40.272 41.06 19.271 83.49 39.215 129 49.409 32.09 7.171 67.29 6.459 96.65-1.954 26.14-7.352 47.08-20.558 61.64-38.441z"/></g></svg>