<svg width="2300" height="900" viewBox="0 0 2300 900" fill="none" xmlns="http://www.w3.org/2000/svg">
<g clip-path="url(#clip0_2665_341)">
<path d="M-1663.41 926.008C-1664.29 926.008 -1665.12 926.008 -1666 925.959L-1665.82 921.54C-1638.27 922.227 -1612.3 911.277 -1590.74 889.918C-1572.31 871.7 -1557.59 845.971 -1550.41 819.406C-1546.64 805.412 -1543.87 790.73 -1541.16 776.539C-1534.16 739.467 -1526.91 701.068 -1500.77 670.085C-1481.81 647.596 -1452.6 630.852 -1418.51 622.995C-1384.41 615.09 -1349.08 616.906 -1318.93 628.004C-1271.7 645.435 -1240.08 681.084 -1209.46 715.554C-1199.16 727.191 -1188.5 739.172 -1177.43 750.269C-1154.4 773.348 -1124.37 792.301 -1095.11 802.22C-1071.2 810.371 -1035.87 816.558 -1003.25 799.863C-969.034 782.383 -954.96 747.029 -949.19 720.464C-946.716 709.121 -945.068 697.435 -943.537 686.141C-940.71 666.058 -937.825 645.239 -930.17 625.647C-923.162 607.724 -911.797 591.029 -896.369 576.004C-881.53 561.568 -863.688 549.39 -843.255 539.766C-822.881 530.142 -801.152 523.66 -778.658 520.518C-755.28 517.228 -732.256 517.719 -710.233 521.942C-653.232 532.892 -605.712 565.201 -559.781 596.431C-504.9 633.749 -453.081 668.955 -386.482 671.116C-312.816 673.522 -250.398 633.356 -190.041 594.565C-180.913 588.721 -171.551 582.682 -162.306 576.937C-112.724 546.051 -56.1945 522.138 5.69397 505.885C62.2827 491.007 124.937 482.119 191.889 479.468C252.011 477.062 317.315 479.664 386.034 487.079C446.038 493.609 510.635 504.068 578 518.161L576.705 522.433C450.572 495.966 336.983 482.709 235.229 482.709C75.9441 482.709 -54.4867 515.215 -159.185 580.423C-168.371 586.119 -177.734 592.159 -186.861 598.002C-246.217 636.155 -307.517 675.584 -380.24 675.584C-382.419 675.584 -384.598 675.535 -386.776 675.486C-417.514 674.504 -448.135 666.304 -480.463 650.542C-509.199 636.498 -536.639 617.839 -563.196 599.819C-608.715 568.884 -655.705 536.918 -711.529 526.214C-799.444 509.322 -897.312 555.479 -925.223 627.022C-932.702 646.221 -935.587 666.795 -938.355 686.681C-939.945 698.073 -941.593 709.858 -944.067 721.299C-950.073 748.796 -964.676 785.378 -1000.6 803.693C-1027.92 817.638 -1061.37 818.571 -1097.23 806.345C-1127.26 796.131 -1158.06 776.736 -1181.61 753.117C-1192.74 741.971 -1203.46 729.892 -1213.82 718.205C-1244.03 684.177 -1275.24 649.02 -1321.17 632.079C-1381.53 609.786 -1458.55 627.611 -1496.53 672.638C-1521.97 702.787 -1529.09 740.645 -1535.98 777.227C-1538.69 791.467 -1541.46 806.247 -1545.29 820.388C-1552.65 847.64 -1567.78 874.008 -1586.74 892.766C-1608.7 914.567 -1635.14 926.008 -1663.41 926.008Z" fill="#F1EFE6"/>
<path d="M-1665.47 932.637C-1665.59 932.637 -1665.76 932.637 -1665.88 932.637V928.218C-1665.76 928.218 -1665.65 928.218 -1665.53 928.218C-1604.58 928.218 -1560.48 875.678 -1543.81 823.531C-1539.28 809.34 -1535.69 794.511 -1532.27 780.173C-1523.2 742.511 -1513.78 703.573 -1486.22 671.951C-1467.09 649.953 -1438.17 633.454 -1404.78 625.401C-1371.34 617.348 -1336.54 618.527 -1306.74 628.74C-1259.34 644.895 -1226.95 679.169 -1195.57 712.264C-1185.44 723.017 -1174.9 734.066 -1164.06 744.377C-1119.78 786.704 -1046.76 820.143 -991.234 793.48C-964.088 780.517 -945.421 755.278 -935.764 718.5C-932.878 707.55 -930.817 696.207 -928.815 685.208C-927.402 677.352 -925.871 669.201 -924.105 661.197C-921.101 647.743 -917.804 636.94 -913.741 627.169C-902.199 599.573 -880.353 574.727 -850.557 555.282C-821.821 536.525 -786.961 524.151 -752.395 520.469C-734.023 518.505 -715.886 518.946 -698.456 521.745C-643.163 530.682 -596.702 559.947 -551.832 588.28C-497.952 622.21 -447.134 654.274 -382.007 654.814C-381.477 654.814 -380.888 654.814 -380.358 654.814C-309.401 654.814 -248.632 615.581 -189.864 577.575C-180.678 571.634 -171.139 565.496 -161.835 559.653C-112.842 528.963 -57.0191 505.001 3.98606 488.454C59.8682 473.281 121.639 463.902 187.473 460.661C246.888 457.715 311.308 459.63 378.909 466.357C438.5 472.299 502.332 482.169 568.578 495.672L567.341 499.944C254.602 436.159 10.3456 457.421 -158.596 563.188C-167.841 568.982 -177.381 575.12 -186.567 581.061C-246.041 619.46 -307.517 659.184 -380.299 659.184C-380.888 659.184 -381.418 659.184 -382.007 659.184C-412.038 658.938 -442.07 651.917 -473.809 637.726C-501.956 625.156 -528.925 608.166 -554.953 591.766C-599.352 563.777 -645.342 534.807 -699.398 526.066C-716.24 523.366 -733.787 522.924 -751.63 524.839C-821.585 532.302 -886.182 574.973 -908.618 628.593C-912.622 638.168 -915.861 648.774 -918.805 661.983C-920.571 669.937 -922.044 678.039 -923.457 685.896C-925.459 696.944 -927.579 708.385 -930.464 719.433C-934.939 736.422 -941.476 751.35 -949.896 763.674C-960.083 778.602 -973.038 789.895 -988.525 797.31C-1002.6 804.037 -1018.26 807.425 -1035.1 807.425C-1050.65 807.425 -1067.08 804.528 -1084.1 798.783C-1113.6 788.815 -1144.16 770.009 -1168.01 747.274C-1178.96 736.913 -1189.5 725.767 -1199.69 714.965C-1230.6 682.262 -1262.64 648.479 -1308.74 632.767C-1367.81 612.487 -1443.88 630.802 -1481.92 674.504C-1508.78 705.39 -1518.08 743.837 -1527.03 781.008C-1530.51 795.395 -1534.1 810.322 -1538.69 824.611C-1547.7 852.747 -1563.66 878.82 -1583.74 897.97C-1607.35 920.705 -1635.62 932.637 -1665.47 932.637Z" fill="#F1EFE6"/>
<path d="M-1665.76 939.315L-1665.88 934.896C-1599.52 933.815 -1555 876.463 -1537.1 827.655C-1531.86 813.317 -1527.44 798.341 -1523.2 783.856C-1512.02 745.604 -1500.47 706.077 -1471.5 673.816C-1431.58 629.329 -1355.44 610.277 -1294.43 629.477C-1246.5 644.551 -1212.94 677.696 -1180.55 709.76C-1170.83 719.335 -1160.82 729.253 -1150.52 738.583C-1126.49 760.335 -1097.52 777.619 -1068.96 787.244C-1035.46 798.537 -1004.37 798.537 -979.044 787.195C-952.193 775.263 -933.055 751.497 -922.161 716.585C-918.864 705.979 -916.332 694.931 -913.858 684.226C-912.151 676.861 -910.443 669.25 -908.441 661.737C-904.967 648.676 -901.375 638.168 -897.135 628.74C-885.064 601.832 -863.335 577.379 -834.363 558.032C-805.804 538.98 -772.828 526.508 -738.91 521.991C-721.068 519.634 -703.461 519.536 -686.561 521.696C-632.976 528.669 -587.575 554.89 -543.706 580.276C-490.886 610.818 -440.951 639.69 -377.355 638.61C-307.693 637.431 -247.689 598.493 -189.629 560.782C-180.325 554.742 -170.668 548.457 -161.246 542.565C-112.783 512.072 -57.7255 488.061 2.33745 471.219C57.5718 455.751 118.4 445.931 183.174 442.002C241.942 438.467 305.42 439.744 371.902 445.734C431.081 451.086 494.088 460.367 559.274 473.281L558.038 477.602C251.717 416.911 10.8169 439.94 -158.007 546.1C-167.429 551.993 -177.027 558.229 -186.331 564.268C-245.098 602.421 -305.809 641.85 -377.237 643.029C-406.621 643.52 -436.004 637.677 -467.096 625.106C-494.713 613.96 -521.153 598.689 -546.709 583.909C-590.107 558.818 -634.919 532.892 -687.327 526.066C-703.697 523.955 -720.774 524.053 -738.027 526.361C-806.334 535.494 -868.281 577.28 -892.13 630.311C-896.311 639.543 -899.785 649.805 -903.2 662.67C-905.202 670.134 -906.91 677.695 -908.618 685.061C-911.091 695.864 -913.623 707.01 -916.979 717.714C-928.226 753.854 -948.247 778.552 -976.512 791.074C-1003.31 803.055 -1035.93 803.153 -1070.96 791.319C-1100.23 781.449 -1129.85 763.773 -1154.4 741.529C-1164.77 732.15 -1174.84 722.183 -1184.55 712.558C-1218 679.463 -1249.62 648.234 -1296.26 633.552C-1355.14 615.04 -1428.63 633.454 -1467.26 676.419C-1495.64 707.992 -1507.01 747.078 -1518.08 784.838C-1522.32 799.372 -1526.74 814.447 -1532.04 828.932C-1550.41 879.164 -1596.52 938.185 -1665.76 939.315Z" fill="#F1EFE6"/>
<path d="M-1665.59 945.993L-1665.82 941.574C-1598.4 939.217 -1551.64 883.289 -1530.39 831.78C-1524.38 817.295 -1519.2 802.122 -1514.19 787.489C-1500.94 748.698 -1487.22 708.581 -1456.78 675.633C-1437.41 654.716 -1409.08 638.561 -1377.11 630.213C-1345.02 621.817 -1311.28 621.817 -1282.07 630.164C-1233.55 644.06 -1198.92 676.075 -1165.48 707.01C-1156.23 715.554 -1146.69 724.343 -1136.97 732.691C-1112.66 753.608 -1083.8 770.254 -1055.83 779.682C-1022.74 790.779 -991.94 791.172 -966.796 780.811C-940.18 769.812 -920.571 747.52 -908.5 714.621C-904.672 704.309 -901.787 693.949 -898.725 682.95C-896.841 676.173 -894.839 669.152 -892.66 662.179C-888.656 649.265 -884.887 639.445 -880.471 630.262C-854.973 577.231 -792.614 534.267 -725.367 523.415C-708.113 520.616 -691.037 519.978 -674.608 521.549C-622.671 526.557 -578.389 549.783 -535.58 572.223C-486.057 598.149 -434.886 625.008 -372.762 622.308C-305.162 619.411 -246.335 581.012 -189.452 543.94C-179.971 537.753 -170.197 531.369 -160.657 525.33C-112.724 495.033 -58.4322 470.973 0.688608 453.885C55.2164 438.074 115.162 427.812 178.817 423.294C289.285 415.487 414.181 424.767 549.912 450.841L548.734 455.162C248.831 397.515 11.2291 422.312 -157.477 528.914C-167.017 534.954 -176.792 541.288 -186.213 547.475C-243.744 584.99 -303.218 623.83 -372.526 626.776C-401.203 628.004 -429.939 623.339 -460.442 612.438C-487.529 602.765 -513.38 589.163 -538.465 576.053C-580.803 553.858 -624.555 530.928 -675.314 526.017C-691.213 524.544 -707.76 525.133 -724.484 527.834C-790.023 538.44 -850.792 580.325 -875.701 632.03C-880.058 641.016 -883.709 650.689 -887.714 663.407C-889.892 670.33 -891.835 677.303 -893.72 684.03C-896.664 694.587 -899.726 705.537 -903.613 715.996C-916.096 750.122 -936.647 773.25 -964.618 784.838C-991.116 795.788 -1023.44 795.444 -1057.95 783.856C-1086.63 774.232 -1116.07 757.193 -1140.92 735.882C-1150.7 727.486 -1160.29 718.647 -1169.54 710.054C-1204.1 678.138 -1236.73 647.988 -1283.95 634.436C-1341.66 617.888 -1414.21 636.793 -1452.78 678.432C-1482.63 710.693 -1496.18 750.417 -1509.31 788.815C-1514.31 803.497 -1519.49 818.719 -1525.56 833.351C-1537.57 862.469 -1556.12 889.279 -1577.79 908.724C-1590.16 919.87 -1603.58 928.66 -1617.54 934.945C-1632.79 941.623 -1648.98 945.404 -1665.59 945.993Z" fill="#F1EFE6"/>
<path d="M-1665.47 952.671L-1665.82 948.252C-1597.28 944.618 -1547.46 887.855 -1523.67 835.905C-1516.96 821.223 -1511.01 805.903 -1505.24 791.123C-1489.93 751.743 -1474.09 711.036 -1442.12 677.45C-1401.78 635.074 -1329.29 615.482 -1269.76 630.852C-1220.53 643.569 -1186.26 673.08 -1149.99 704.358C-1141.39 711.773 -1132.5 719.433 -1123.43 726.798C-1098.76 746.881 -1070.08 762.987 -1042.7 772.12C-1009.49 783.217 -979.81 784.003 -954.607 774.379C-928.227 764.362 -908.147 743.591 -894.956 712.608C-890.599 702.492 -887.183 692.23 -883.533 681.378C-881.472 675.24 -879.352 668.955 -877.055 662.621C-873.993 654.126 -869.753 642.98 -863.983 631.785C-850.851 606.3 -829.417 582.633 -801.976 563.384C-774.713 544.234 -743.562 530.878 -712 524.839C-695.335 521.647 -678.788 520.469 -662.831 521.402C-612.542 524.446 -569.321 544.627 -527.512 564.17C-478.991 586.856 -428.879 610.278 -368.228 605.957C-302.629 601.292 -245.098 563.581 -189.393 527.048C-179.795 520.763 -169.843 514.233 -160.068 508.046C-112.665 477.946 -59.1385 453.836 -0.959878 436.454C52.8613 420.348 111.923 409.595 174.518 404.439C284.339 395.453 407.468 403.457 540.608 428.254L539.43 432.575C246.005 377.972 11.7004 404.537 -156.888 511.532C-166.604 517.67 -176.556 524.2 -186.154 530.486C-242.448 567.411 -300.627 605.564 -367.815 610.327C-372.938 610.67 -378.002 610.867 -382.949 610.867C-438.419 610.867 -484.997 589.114 -530.103 568C-571.382 548.703 -614.074 528.718 -663.184 525.772C-678.612 524.888 -694.629 526.017 -710.822 529.111C-773.594 541.19 -833.186 583.124 -859.095 633.503C-864.807 644.502 -868.988 655.501 -871.991 663.849C-874.288 670.134 -876.407 676.419 -878.468 682.508C-882.119 693.458 -885.594 703.769 -890.01 714.032C-903.73 746.145 -924.752 767.799 -952.487 778.356C-966.325 783.61 -981.635 785.918 -998.064 785.231C-1012.84 784.592 -1028.57 781.548 -1044.76 776.147C-1072.79 766.768 -1102.06 750.368 -1127.2 729.892C-1136.27 722.477 -1145.22 714.817 -1153.87 707.354C-1189.68 676.517 -1223.48 647.35 -1271.41 634.976C-1328.88 620.147 -1398.96 639.101 -1438 680.102C-1469.38 713.05 -1485.05 753.363 -1500.24 792.4C-1506.01 807.229 -1512.02 822.598 -1518.79 837.378C-1532.33 866.987 -1552.17 894.14 -1574.61 913.732C-1601.99 937.842 -1632.61 950.903 -1665.47 952.671Z" fill="#F1EFE6"/>
<path d="M-1665.35 959.3L-1665.76 954.88C-1578.08 948.792 -1529.68 865.366 -1516.96 839.98C-1509.54 825.151 -1502.77 809.684 -1496.29 794.707C-1478.92 754.738 -1460.9 713.442 -1427.4 679.218C-1407.85 659.282 -1380.23 643.52 -1349.49 634.878C-1318.64 626.187 -1285.95 624.959 -1257.45 631.49C-1207.28 642.98 -1171.66 671.558 -1133.97 701.854C-1126.14 708.139 -1118.07 714.621 -1109.95 720.857C-1084.86 740.105 -1056.36 755.621 -1029.63 764.509C-996.769 775.459 -967.444 776.588 -942.477 767.946C-915.979 758.764 -895.958 740.007 -881.413 710.545C-876.29 700.381 -872.168 689.873 -867.752 678.776C-865.691 673.62 -863.63 668.317 -861.392 662.965C-857.447 653.488 -853.03 643.324 -847.377 633.208C-833.716 608.412 -812.399 585.137 -785.783 565.987C-759.108 546.788 -728.959 533.039 -698.515 526.164C-682.322 522.531 -666.305 520.861 -650.936 521.156C-602.179 522.138 -559.958 539.373 -519.151 556.117C-471.748 575.513 -422.697 595.547 -363.635 589.605C-300.098 583.222 -243.803 546.149 -189.393 510.255C-179.559 503.774 -169.431 497.096 -159.48 490.761C-68.7963 432.918 42.1436 397.564 170.16 385.632C279.275 375.468 400.755 382.244 531.245 405.715L530.126 410.036C332.86 374.535 53.6263 360.344 -156.3 494.248C-166.192 500.582 -176.321 507.26 -186.155 513.692C-241.153 549.979 -298.037 587.445 -363.046 593.975C-370.524 594.712 -377.826 595.105 -385.01 595.105C-435.946 595.105 -479.344 577.329 -521.506 560.094C-561.843 543.596 -603.533 526.557 -651.113 525.624C-665.952 525.33 -681.498 526.95 -697.22 530.485C-757.165 543.94 -815.579 586.021 -842.608 635.123C-848.143 645.091 -852.5 655.108 -856.446 664.487C-858.683 669.79 -860.744 675.093 -862.805 680.2C-867.222 691.395 -871.402 701.903 -876.584 712.264C-883.356 725.914 -891.482 737.65 -900.786 747.029C-912.092 758.42 -925.4 766.817 -940.534 772.071C-966.855 781.204 -997.476 780.026 -1031.69 768.683C-1059.01 759.599 -1088.1 743.788 -1113.66 724.196C-1121.84 717.911 -1129.97 711.38 -1137.8 705.095C-1175.01 675.24 -1210.17 647.006 -1259.04 635.811C-1315.4 622.897 -1384.59 642.341 -1423.45 682.066C-1456.37 715.701 -1474.21 756.653 -1491.46 796.279C-1498 811.304 -1504.77 826.771 -1512.25 841.748C-1522.91 863.058 -1541.93 893.797 -1571.67 919.134C-1600.05 943.439 -1631.67 956.992 -1665.35 959.3Z" fill="#F1EFE6"/>
<path d="M-1665.23 965.978L-1665.76 961.558C-1579.03 954.144 -1528.15 876.954 -1510.25 844.105C-1502.06 829.079 -1494.59 813.465 -1487.34 798.341C-1467.85 757.782 -1447.77 715.897 -1412.73 681.035C-1372.16 640.672 -1303.21 620.589 -1245.21 632.177C-1193.86 642.44 -1156.7 670.183 -1117.31 699.546C-1110.54 704.604 -1103.53 709.858 -1096.46 714.915C-1074.14 731.07 -996.298 782.137 -930.288 761.514C-904.084 753.314 -883.651 735.981 -867.811 708.532C-861.863 698.27 -856.917 687.565 -851.676 676.222C-849.733 672.049 -847.79 667.777 -845.729 663.456C-841.371 654.274 -836.601 644.502 -830.831 634.78C-801.565 585.088 -744.387 543.056 -685.149 527.687C-669.485 523.66 -653.998 521.401 -639.159 521.107C-592.051 520.076 -550.831 534.414 -510.966 548.212C-464.564 564.317 -416.632 580.914 -359.101 573.352C-297.683 565.299 -242.685 528.865 -189.57 493.609C-179.56 486.98 -169.137 480.057 -159.009 473.575C-69.1498 415.929 40.1413 380.084 165.744 366.924C274.092 355.582 393.865 361.081 521.823 383.276L520.763 387.597C328.09 354.158 54.2148 342.569 -155.652 477.111C-165.78 483.592 -176.144 490.467 -186.155 497.096C-239.858 532.695 -295.387 569.522 -358.159 577.722C-368.346 579.048 -378.297 579.686 -387.896 579.686C-433.944 579.686 -473.927 565.79 -512.85 552.287C-552.186 538.637 -592.875 524.544 -638.865 525.526C-653.233 525.821 -668.248 527.981 -683.441 531.909C-741.384 546.935 -797.325 588.083 -825.943 636.744C-831.655 646.319 -836.307 656.041 -840.664 665.125C-842.725 669.397 -844.669 673.718 -846.612 677.843C-851.912 689.284 -856.917 700.086 -862.923 710.496C-879.411 739.074 -900.786 757.144 -928.345 765.737C-954.313 773.839 -984.639 772.317 -1018.38 761.121C-1052.47 749.827 -1081.51 731.659 -1099.88 718.353C-1106.94 713.246 -1113.95 707.992 -1120.78 702.934C-1159.65 673.915 -1196.39 646.564 -1246.38 636.547C-1302.56 625.352 -1369.28 644.797 -1408.61 683.932C-1443.12 718.205 -1463.08 759.795 -1482.4 800.01C-1489.7 815.183 -1497.18 830.847 -1505.42 845.922C-1517.2 867.576 -1537.69 898.756 -1568.43 924.289C-1598.16 949.037 -1630.73 963.032 -1665.23 965.978Z" fill="#F1EFE6"/>
<path d="M-1665.12 972.656L-1665.76 968.286C-1577.55 959.447 -1522.97 881.423 -1503.59 848.279C-1494.7 833.106 -1486.46 817.295 -1478.45 802.024C-1456.9 760.925 -1434.64 718.402 -1398.07 682.95C-1378.17 663.701 -1351.85 648.725 -1321.99 639.641C-1291.96 630.508 -1261.16 628.2 -1232.96 632.963C-1180.14 641.949 -1141.1 669.004 -1099.7 697.631C-1094.22 701.412 -1088.63 705.291 -1082.98 709.17C-1054.18 728.812 -980.458 772.562 -918.098 755.229C-892.071 748.011 -871.167 732.101 -854.208 706.617C-847.201 696.109 -841.253 684.963 -834.952 673.129C-833.362 670.134 -831.714 667.089 -830.065 663.996L-829.888 663.652C-825.06 654.765 -820.113 645.582 -814.284 636.4C-799.503 612.88 -778.481 590.44 -753.514 571.486C-728.017 552.14 -699.752 537.507 -671.722 529.209C-656.648 524.741 -641.691 521.991 -627.323 521.058C-581.746 518.063 -541.527 529.405 -502.604 540.355C-457.321 553.122 -410.448 566.331 -354.507 557.148C-295.21 547.426 -241.624 511.679 -189.746 477.111C-179.441 470.237 -168.783 463.117 -158.36 456.39C-69.267 398.989 38.3752 362.554 161.504 348.216C269.088 335.646 387.212 339.918 512.578 360.836L511.518 365.157C323.262 333.731 54.7454 324.647 -155.122 459.876C-165.544 466.603 -176.144 473.674 -186.449 480.548C-238.798 515.46 -292.913 551.551 -353.506 561.47C-366.932 563.679 -379.887 564.661 -392.371 564.661C-433.06 564.661 -469.157 554.497 -504.311 544.578C-542.705 533.776 -582.393 522.58 -626.911 525.477C-640.808 526.41 -655.293 529.062 -669.956 533.383C-724.896 549.685 -779.659 590.931 -809.632 638.463C-815.402 647.547 -820.349 656.68 -825.119 665.469L-825.295 665.813C-826.944 668.906 -828.593 671.902 -830.183 674.897C-836.542 686.829 -842.549 698.073 -849.674 708.778C-867.339 735.293 -889.186 751.841 -916.567 759.452C-942.241 766.572 -972.155 764.607 -1005.48 753.658C-1038.64 742.757 -1067.78 725.325 -1086.45 712.608C-1092.1 708.778 -1097.76 704.849 -1103.23 701.069C-1144.04 672.785 -1182.61 646.073 -1234.14 637.333C-1289.25 628.004 -1355.09 647.939 -1394.24 685.847C-1430.34 720.808 -1452.42 762.987 -1473.8 803.841C-1481.81 819.161 -1490.11 834.972 -1499 850.243C-1517.43 881.767 -1540.46 909.215 -1565.6 929.642C-1596.22 954.635 -1629.73 969.12 -1665.12 972.656Z" fill="#F1EFE6"/>
<path d="M-1665 979.334L-1665.71 974.964C-1579.2 965.045 -1522.79 893.944 -1496.88 852.403C-1487.28 837.034 -1478.27 821.076 -1469.56 805.657C-1445.95 763.969 -1421.57 720.808 -1383.41 684.766C-1342.66 646.319 -1277.3 625.794 -1220.65 633.651C-1165.89 641.261 -1124.61 667.826 -1080.86 695.962C-1077.09 698.368 -1073.26 700.823 -1069.43 703.278C-1033.28 726.356 -964.029 762.938 -905.85 748.846C-879.94 742.56 -858.565 728.075 -840.487 704.604C-832.067 693.654 -824.765 681.673 -817.051 669.005C-816.109 667.482 -815.167 665.96 -814.225 664.389C-813.4 663.063 -812.635 661.737 -811.81 660.412C-807.335 653.095 -802.742 645.484 -797.56 637.873C-782.132 614.942 -761.287 592.895 -737.203 574.138C-712.235 554.693 -684.912 539.619 -658.12 530.633C-643.575 525.772 -629.207 522.482 -615.369 520.911C-571.323 515.902 -532.046 524.299 -494.065 532.45C-449.842 541.877 -404.147 551.649 -349.855 540.846C-292.736 529.553 -240.564 494.493 -190.041 460.662C-179.441 453.542 -168.43 446.176 -157.654 439.204C-69.3258 381.95 36.6677 345.074 157.265 329.508C264.024 315.71 380.499 318.706 503.333 338.396L502.332 342.717C439.796 332.7 368.015 325.334 292.348 325.334C145.664 325.334 -15.9169 353.028 -154.415 442.69C-165.132 449.663 -176.144 456.979 -186.684 464.099C-237.62 498.274 -290.263 533.628 -348.56 545.167C-404.147 556.265 -450.49 546.346 -495.302 536.771C-534.519 528.374 -571.558 520.469 -614.545 525.33C-627.97 526.852 -641.926 530.044 -656.059 534.758C-708.643 552.484 -761.051 592.797 -792.849 640.083C-797.972 647.645 -802.565 655.158 -806.982 662.474C-807.806 663.8 -808.63 665.125 -809.396 666.451C-810.338 667.973 -811.28 669.545 -812.164 671.018C-819.936 683.784 -827.297 695.864 -835.835 707.01C-854.62 731.463 -876.996 746.538 -904.142 753.117C-929.463 759.255 -959.023 756.898 -991.999 746.096C-1017.38 737.797 -1045.23 724.196 -1072.44 706.814C-1076.26 704.358 -1080.09 701.903 -1083.86 699.497C-1127.02 671.705 -1167.83 645.484 -1221.3 638.07C-1276.18 630.459 -1339.66 650.395 -1379.23 687.762C-1416.92 723.361 -1441.18 766.179 -1464.55 807.621C-1473.33 823.089 -1482.34 839.096 -1491.99 854.515C-1518.61 896.694 -1576.14 969.12 -1665 979.334Z" fill="#F1EFE6"/>
<path d="M-1664.94 986.012L-1665.76 981.642C-1577.79 970.348 -1518.02 898.412 -1490.29 856.577C-1479.98 841.011 -1470.21 824.906 -1460.73 809.291C-1435.11 767.014 -1408.61 723.263 -1368.81 686.632C-1348.9 668.317 -1323.23 653.684 -1294.55 644.306C-1265.7 634.878 -1235.96 631.441 -1208.46 634.387C-1151.23 640.574 -1107.18 666.893 -1060.54 694.734L-1056.07 697.386C-992.058 735.588 -935.941 751.153 -893.779 742.462C-867.928 737.11 -846.082 724.049 -827.003 702.591C-816.698 690.953 -807.571 677.696 -798.738 664.88C-797.03 662.376 -795.264 659.822 -793.556 657.22C-789.611 651.426 -785.548 645.435 -781.19 639.395C-747.272 592.257 -695.1 551.158 -644.93 532.106C-630.915 526.803 -617.077 523.022 -603.769 520.812C-561.195 513.84 -522.86 519.29 -485.704 524.544C-442.659 530.682 -398.141 536.967 -345.498 524.544C-290.617 511.679 -239.916 477.406 -190.865 444.31C-179.854 436.896 -168.489 429.187 -157.3 421.919C-69.6792 364.862 34.6066 327.446 152.731 310.653C258.665 295.627 373.433 297.346 493.794 315.808L492.852 320.179C434.85 311.291 368.545 304.809 298.354 304.809C151.788 304.809 -11.9717 332.896 -154.003 425.357C-165.132 432.624 -176.497 440.284 -187.45 447.698C-236.913 481.088 -288.026 515.657 -343.967 528.767C-397.729 541.435 -442.835 535.052 -486.469 528.865C-524.804 523.415 -561.018 518.259 -602.591 525.133C-615.487 527.245 -628.972 530.927 -642.574 536.083C-691.802 554.791 -743.091 595.252 -776.479 641.654C-780.837 647.645 -784.841 653.586 -788.786 659.38C-790.553 661.983 -792.261 664.536 -794.027 667.04C-802.919 680.003 -812.105 693.359 -822.645 705.193C-842.49 727.535 -865.337 741.136 -892.424 746.734C-917.392 751.89 -946.54 749.14 -979.162 738.534C-1003.95 730.481 -1030.86 717.812 -1059.13 700.97L-1063.6 698.27C-1109.71 670.723 -1153.23 644.748 -1209.11 638.708C-1262.93 632.914 -1325.53 653.341 -1364.86 689.529C-1404.2 725.718 -1430.52 769.174 -1456.02 811.206C-1465.5 826.87 -1475.33 843.025 -1485.63 858.639C-1507.48 891.587 -1532.33 918.986 -1559.36 940.052C-1592.33 965.781 -1627.84 981.249 -1664.94 986.012Z" fill="#F1EFE6"/>
<path d="M-1664.82 992.64L-1665.71 988.27C-1580.68 976.24 -1519.73 912.259 -1483.51 860.652C-1472.5 844.939 -1461.96 828.588 -1451.78 812.777C-1424.1 769.91 -1395.48 725.571 -1354.08 688.4C-1313.34 651.818 -1251.33 630.852 -1196.15 635.025C-1135.86 639.592 -1088.39 665.96 -1042.52 691.493C-975.806 728.566 -923.162 743.149 -881.472 736.079C-855.268 731.61 -833.598 720.317 -813.224 700.577C-802.978 690.61 -793.674 679.267 -782.898 665.322C-780.071 661.639 -777.245 657.907 -774.359 653.979C-771.18 649.756 -767.882 645.337 -764.467 640.918C-728.252 593.779 -678.494 553.662 -631.386 533.579C-617.96 527.883 -604.652 523.562 -591.815 520.763C-550.654 511.728 -513.085 514.233 -476.753 516.639C-434.886 519.437 -391.664 522.285 -340.787 508.34C-288.203 493.953 -239.033 460.563 -191.513 428.205C-180.089 420.397 -168.194 412.344 -156.594 404.733C-69.6792 347.823 32.9577 309.867 148.491 291.944C201.782 283.646 258.017 279.718 315.607 280.16C370.606 280.602 427.489 285.021 484.549 293.418L483.607 297.788C423.779 288.998 365.071 284.677 308.246 284.677C130.766 284.677 -29.1662 326.906 -153.355 408.22C-164.956 415.831 -176.791 423.834 -188.215 431.642C-236.089 464.197 -285.612 497.881 -339.138 512.514C-390.957 526.754 -434.768 523.857 -477.165 521.009C-514.734 518.505 -550.183 516.148 -590.461 524.986C-602.885 527.736 -615.84 531.91 -628.972 537.507C-675.314 557.247 -724.307 596.823 -760.05 643.324C-763.466 647.694 -766.704 652.064 -769.884 656.336C-772.828 660.264 -775.596 663.996 -778.481 667.728C-789.375 681.82 -798.797 693.31 -809.219 703.474C-830.065 723.754 -853.383 735.833 -880.412 740.449C-887.537 741.676 -894.956 742.266 -902.729 742.266C-941.77 742.266 -988.76 726.749 -1045.47 695.225C-1090.81 670.035 -1137.62 643.962 -1196.63 639.494C-1250.27 635.418 -1310.51 655.845 -1350.2 691.444C-1391.18 728.222 -1419.62 772.316 -1447.12 814.938C-1457.37 830.749 -1467.91 847.149 -1478.98 862.911C-1515.67 915.304 -1577.73 980.365 -1664.82 992.64Z" fill="#F1EFE6"/>
<path d="M-1664.7 999.318L-1665.65 994.948C-1579.14 981.641 -1515.2 916.826 -1476.8 864.777C-1465.02 848.868 -1453.72 832.32 -1442.83 816.313C-1413.15 772.857 -1382.41 727.928 -1339.36 690.217C-1319.52 672.785 -1294.49 658.496 -1266.99 648.823C-1239.32 639.101 -1210.58 634.583 -1183.79 635.713C-1157.11 636.891 -1130.79 642.194 -1103.17 651.966C-1079.03 660.51 -1056.07 671.607 -1028.98 685.552C-982.048 709.76 -921.514 736.619 -869.224 729.646C-842.902 726.111 -820.761 716.241 -799.504 698.466C-789.493 690.119 -779.836 680.298 -767.117 665.665C-762.7 660.559 -758.402 655.256 -753.809 649.707C-751.806 647.301 -749.863 644.846 -747.802 642.391C-708.467 594.761 -661.123 555.626 -617.842 535.003C-605.005 528.865 -592.227 524.053 -579.92 520.616C-540.055 509.519 -504.842 509.028 -467.567 508.537C-427.054 507.997 -385.128 507.456 -336.194 491.989C-286.024 476.227 -238.621 443.721 -192.691 412.295C-180.678 404.046 -168.253 395.551 -156.005 387.498C-69.7972 330.736 31.1911 292.288 144.192 273.187C196.835 264.3 252.129 259.684 308.6 259.439C363.01 259.193 419.127 263.072 475.245 270.879L474.362 275.25C234.11 241.762 11.4055 282.861 -152.708 390.936C-164.897 398.939 -177.322 407.434 -189.275 415.683C-235.5 447.355 -283.315 480.106 -334.31 496.163C-384.068 511.925 -426.465 512.465 -467.508 513.005C-504.37 513.496 -539.172 513.938 -578.272 524.839C-590.225 528.178 -602.709 532.892 -615.251 538.882C-657.826 559.211 -704.58 597.855 -743.445 644.944C-745.506 647.399 -747.449 649.854 -749.451 652.26C-754.044 657.858 -758.343 663.161 -762.818 668.317C-775.655 683.195 -785.548 693.163 -795.735 701.658C-817.522 719.826 -841.253 730.432 -868.34 734.066C-874.347 734.851 -880.471 735.244 -886.654 735.244C-935.941 735.244 -989.35 711.233 -1031.75 689.382C-1081.09 663.947 -1126.61 642.685 -1184.02 640.181C-1236.61 637.922 -1296.02 658.742 -1335.48 693.31C-1378.11 730.628 -1408.67 775.361 -1438.17 818.571C-1449.13 834.579 -1460.43 851.176 -1472.27 867.134C-1497.29 901.064 -1524.5 929.151 -1553.18 950.609C-1588.45 976.977 -1625.96 993.377 -1664.7 999.318Z" fill="#F1EFE6"/>
<path d="M-1664.59 1006L-1665.65 1001.68C-1594.98 989.989 -1529.21 945.355 -1470.15 869C-1457.66 852.845 -1445.59 836.101 -1433.93 819.897C-1402.19 775.852 -1369.4 730.334 -1324.7 692.083C-1283.95 657.269 -1225.3 635.958 -1171.54 636.498C-1144.75 636.793 -1118.31 640.967 -1090.75 649.363C-1063.02 657.76 -1037.16 669.446 -1015.49 679.758C-962.086 705.193 -905.968 728.075 -856.976 723.361C-830.477 720.808 -807.865 712.264 -785.783 696.551C-774.713 688.646 -764.114 679.267 -751.394 666.206C-745.211 659.822 -739.205 652.997 -732.846 645.828L-731.197 643.962C-700.753 609.541 -654.116 562.943 -604.417 536.525C-592.11 529.995 -579.921 524.642 -568.143 520.567C-529.456 507.26 -494.772 503.921 -458.028 500.337C-418.928 496.556 -378.533 492.627 -331.66 475.785C-283.963 458.697 -238.327 427.173 -194.222 396.73C-181.503 387.94 -168.371 378.905 -155.417 370.312C-69.8563 313.648 29.4829 274.709 139.834 254.479C191.771 244.953 246.181 239.699 301.533 238.815C355.354 237.931 410.647 241.172 465.882 248.489L465.057 252.859C415.711 246.328 366.954 243.136 319.199 243.136C141.188 243.136 -22.5715 287.967 -152.178 373.848C-165.074 382.392 -178.205 391.427 -190.866 400.216C-235.265 430.905 -281.196 462.626 -329.599 479.959C-377.12 497.096 -417.986 501.024 -457.439 504.854C-493.772 508.389 -528.16 511.679 -566.141 524.79C-577.624 528.767 -589.578 533.972 -601.59 540.355C-650.583 566.429 -696.808 612.585 -726.957 646.712L-728.606 648.529C-734.965 655.747 -741.031 662.572 -747.272 669.054C-760.168 682.36 -771.003 691.935 -782.309 699.988C-804.921 716.094 -829.123 725.178 -856.328 727.83C-880.412 730.137 -907.676 726.307 -939.709 716.094C-967.209 707.305 -993.648 695.324 -1018.09 683.686C-1071.02 658.447 -1117.43 641.556 -1171.54 641.016C-1223.89 640.476 -1281.07 661.295 -1320.81 695.274C-1365.1 733.133 -1397.72 778.454 -1429.28 822.254C-1441 838.458 -1453.07 855.251 -1465.61 871.455C-1525.56 948.792 -1592.51 994.065 -1664.59 1006Z" fill="#F1EFE6"/>
<path d="M-1664.53 1012.67L-1665.65 1008.35C-1593.75 995.636 -1525.74 950.167 -1463.49 873.125C-1450.24 856.773 -1437.41 839.784 -1424.98 823.383C-1391.24 778.798 -1356.38 732.691 -1310.04 693.949C-1290.25 677.401 -1265.87 663.407 -1239.61 653.488C-1213.11 643.471 -1185.38 637.873 -1159.35 637.235C-1098.17 635.762 -1047.59 653.979 -1002.13 673.915C-955.137 694.489 -896.723 720.071 -844.904 716.978C-818.464 715.407 -794.675 708.09 -772.239 694.538C-760.168 687.271 -748.626 678.383 -735.848 666.598C-728.429 659.773 -721.362 652.408 -714.826 645.435C-676.551 604.975 -635.037 563.925 -591.226 537.949C-579.508 531.026 -567.848 525.133 -556.543 520.469C-518.738 504.805 -484.349 498.422 -447.899 491.695C-410.448 484.771 -371.761 477.602 -327.302 459.483C-282.314 441.266 -238.739 410.871 -196.577 381.508C-182.974 372.031 -168.96 362.26 -155.063 353.028C-70.1502 296.462 27.5405 256.983 135.301 235.673C186.531 225.558 240.057 219.616 294.291 218.045C347.523 216.523 402.051 219.174 456.343 225.901L455.577 230.272C228.575 201.988 12.8781 246.819 -151.765 356.466C-165.603 365.648 -179.618 375.419 -193.162 384.896C-235.559 414.456 -279.428 444.998 -325.006 463.46C-370.053 481.776 -409.035 488.994 -446.78 496.016C-482.877 502.694 -516.972 509.028 -554.187 524.446C-565.199 529.013 -576.622 534.758 -588.164 541.583C-631.445 567.264 -672.605 607.97 -710.704 648.185C-717.358 655.207 -724.424 662.621 -731.962 669.545C-744.975 681.575 -756.811 690.61 -769.177 698.073C-792.437 712.117 -817.11 719.728 -844.609 721.348C-847.554 721.544 -850.557 721.594 -853.56 721.594C-904.496 721.594 -959.789 697.386 -1004.66 677.745C-1049.53 658.104 -1099.29 640.181 -1159.29 641.556C-1210.58 642.784 -1266.93 663.996 -1306.39 696.944C-1352.32 735.293 -1387.06 781.204 -1420.63 825.593C-1433.05 842.043 -1445.95 859.032 -1459.19 875.481C-1487.4 910.344 -1517.02 939.119 -1547.29 961.018C-1584.56 988.172 -1624.07 1005.51 -1664.53 1012.67Z" fill="#F1EFE6"/>
<path d="M-1664.41 1019.3L-1665.59 1014.98C-1591.45 1001.09 -1523.14 956.01 -1456.78 877.249C-1442.83 860.652 -1429.16 843.417 -1415.97 826.772C-1380.29 781.597 -1343.37 734.9 -1295.32 695.765C-1254.69 662.621 -1199.22 641.016 -1146.99 637.971C-1119.9 636.4 -1093.34 638.364 -1065.84 644.011C-1041.76 648.97 -1017.2 656.581 -988.525 668.022C-985.287 669.348 -981.93 670.674 -978.574 672C-932.408 690.561 -880.059 711.577 -832.479 710.594C-805.628 710.054 -781.308 704.162 -758.284 692.525C-745.329 685.994 -732.787 677.696 -719.832 667.04C-711.941 660.559 -704.345 653.242 -697.927 646.957C-693.333 642.391 -688.74 637.824 -683.912 632.963C-651.584 600.653 -614.898 564.072 -577.506 539.422C-566.318 532.106 -555.189 525.674 -544.471 520.42C-507.256 502.104 -472.749 492.529 -436.24 482.365C-400.792 472.495 -364.165 462.282 -322.474 443.23C-280.43 424.08 -239.151 395.011 -199.227 366.924C-184.506 356.564 -169.313 345.859 -154.239 335.793C-69.9151 279.276 26.1268 239.306 131.178 216.916C181.702 206.162 234.345 199.582 287.518 197.324C340.103 195.114 393.865 197.176 447.274 203.412L446.568 207.782C226.219 182.053 14.0552 228.749 -150.882 339.23C-165.898 349.296 -181.09 359.952 -195.753 370.312C-235.854 398.547 -277.368 427.763 -319.883 447.109C-361.986 466.357 -398.848 476.62 -434.533 486.539C-470.747 496.605 -504.959 506.131 -541.704 524.2C-552.244 529.405 -563.197 535.69 -574.15 542.909C-611.13 567.264 -647.58 603.698 -679.731 635.811C-684.56 640.672 -689.153 645.239 -693.805 649.805C-700.282 656.189 -707.996 663.554 -716.004 670.183C-729.253 681.035 -742.09 689.578 -755.399 696.306C-779.247 708.336 -804.391 714.424 -832.185 715.014C-881.001 715.996 -933.939 694.734 -980.694 675.977C-984.05 674.651 -987.348 673.325 -990.586 672C-1049.94 648.283 -1096.52 639.445 -1146.4 642.342C-1197.39 645.337 -1251.57 666.451 -1291.37 698.908C-1339.01 737.748 -1375.75 784.249 -1411.32 829.227C-1424.51 845.922 -1438.17 863.157 -1452.19 879.852C-1482.4 915.697 -1512.37 943.98 -1543.87 966.371C-1582.62 993.77 -1623.07 1011.59 -1664.41 1019.3Z" fill="#F1EFE6"/>
<path d="M-1664.29 1025.98L-1665.53 1021.66C-1590.1 1006.73 -1519.61 960.871 -1450.07 881.423C-1435.29 864.581 -1420.92 847.051 -1406.96 830.16C-1369.28 784.445 -1330.35 737.159 -1280.65 697.582C-1240.32 665.469 -1185.79 643.422 -1134.74 638.659C-1107.47 636.106 -1080.86 636.989 -1053.42 641.31C-1028.63 645.239 -1003.01 652.064 -975.04 662.13C-968.269 664.585 -961.497 667.089 -954.313 669.741C-911.857 685.503 -863.806 703.425 -820.29 704.211C-792.849 704.751 -768.059 700.234 -744.622 690.511C-730.725 684.766 -717.476 677.205 -704.168 667.482C-697.22 662.425 -690.212 656.532 -681.439 648.479C-669.485 637.48 -657.649 625.843 -645.106 613.518C-618.961 587.838 -591.874 561.224 -564.198 540.944C-553.599 533.186 -542.999 526.263 -532.753 520.37C-495.538 498.913 -460.383 485.704 -423.168 471.71C-390.251 459.336 -356.215 446.52 -318.057 426.977C-279.252 407.238 -240.741 379.789 -203.408 353.274C-187.155 341.735 -170.432 329.803 -153.768 318.558C-69.9738 262.09 24.4192 221.58 126.762 198.158C227.161 175.178 331.8 169.384 437.853 180.923L437.146 185.293C223.51 162.019 14.8798 210.581 -150.411 321.995C-167.017 333.191 -183.74 345.074 -199.992 356.613C-237.444 383.276 -276.131 410.822 -315.29 430.758C-353.742 450.399 -387.954 463.264 -420.989 475.736C-457.969 489.681 -492.888 502.792 -529.75 524.004C-539.82 529.798 -550.242 536.623 -560.724 544.234C-588.164 564.317 -615.075 590.735 -641.102 616.317C-653.115 628.102 -665.539 640.328 -677.552 651.377C-686.503 659.577 -693.687 665.567 -700.753 670.723C-714.414 680.74 -728.017 688.449 -742.326 694.391C-766.587 704.457 -792.143 709.072 -820.525 708.532C-865.102 707.697 -913.741 689.628 -956.609 673.669C-963.793 671.018 -970.565 668.464 -977.278 666.058C-1034.75 645.288 -1083.15 638.119 -1134.21 642.931C-1184.14 647.596 -1237.49 669.201 -1277 700.676C-1326.29 739.958 -1365.1 786.998 -1402.61 832.517C-1416.56 849.457 -1430.99 866.987 -1445.83 883.878C-1516.14 964.407 -1587.62 1010.81 -1664.29 1025.98Z" fill="#F1EFE6"/>
<path d="M-1664.23 1032.66L-1665.53 1028.39C-1588.8 1012.48 -1516.2 965.781 -1443.41 885.597C-1427.87 868.46 -1412.62 850.685 -1397.9 833.449C-1358.32 787.195 -1317.34 739.369 -1265.99 699.399C-1225.36 667.826 -1173.07 645.926 -1122.55 639.396C-1069.43 632.521 -1018.32 637.873 -961.674 656.287C-951.427 659.626 -941.005 663.21 -930.052 667.04C-889.598 681.084 -847.731 695.618 -808.16 697.926C-780.012 699.595 -754.751 696.551 -730.961 688.646C-716.122 683.735 -702.225 676.959 -688.505 668.022C-681.085 663.161 -673.548 657.465 -664.892 650.051C-647.05 634.731 -629.266 616.956 -612.013 599.77C-592.11 579.883 -571.5 559.309 -550.831 542.516C-540.82 534.365 -530.751 526.95 -521.035 520.42C-482.877 494.886 -445.956 477.209 -406.915 458.55C-377.532 444.458 -347.147 429.923 -313.582 410.822C-278.663 391.034 -243.45 365.648 -209.473 341.096C-191.16 327.888 -172.199 314.188 -153.297 301.421C-69.9739 244.904 22.7115 203.903 122.286 179.499C221.626 155.144 324.616 148.073 428.372 158.532L427.725 162.903C220.919 142.034 15.7631 192.462 -149.94 304.859C-168.783 317.625 -187.686 331.276 -205.999 344.435C-240.152 369.036 -275.425 394.52 -310.638 414.456C-344.379 433.606 -374.823 448.239 -404.324 462.331C-443.189 480.941 -479.874 498.52 -517.737 523.808C-527.336 530.24 -537.287 537.556 -547.18 545.609C-567.672 562.255 -588.164 582.731 -608.009 602.519C-625.321 619.803 -643.222 637.628 -661.182 653.095C-670.015 660.657 -677.729 666.451 -685.325 671.46C-699.457 680.691 -713.767 687.614 -729.077 692.721C-753.632 700.872 -779.659 704.015 -808.631 702.345C-849.026 699.988 -891.306 685.307 -932.172 671.165C-943.125 667.384 -953.488 663.75 -963.676 660.461C-1019.44 642.342 -1069.67 637.088 -1121.78 643.815C-1171.31 650.247 -1222.59 671.705 -1262.46 702.689C-1313.45 742.315 -1354.2 789.994 -1393.66 836.052C-1408.44 853.287 -1423.69 871.111 -1439.23 888.297C-1472.62 925.075 -1504.95 954.046 -1538.04 976.879C-1578.73 1004.97 -1621.19 1023.72 -1664.23 1032.66Z" fill="#F1EFE6"/>
<path d="M-1664.12 1039.34L-1665.47 1035.07C-1586.39 1017.88 -1513.66 971.723 -1436.7 889.77C-1420.33 872.339 -1404.26 854.269 -1388.77 836.739C-1347.25 789.944 -1304.33 741.578 -1251.33 701.314C-1210.99 670.674 -1159.59 648.381 -1110.3 640.181C-1056.36 631.195 -1003.36 634.583 -948.248 650.444C-934.292 654.47 -920.218 659.086 -905.261 663.947C-868.988 675.83 -831.478 688.056 -795.97 691.592C-766.94 694.44 -741.207 692.868 -717.241 686.681C-701.518 682.655 -686.974 676.664 -672.782 668.464C-664.892 663.898 -656.883 658.398 -648.345 651.573C-625.497 633.307 -603.887 610.916 -582.982 589.213C-567.437 573.058 -552.715 557.836 -537.464 544.038C-527.983 535.494 -518.503 527.539 -509.258 520.42C-468.392 488.896 -427.702 465.13 -384.598 439.989C-360.631 425.995 -335.782 411.51 -309.048 394.618C-278.899 375.665 -248.219 353.127 -218.482 331.325C-197.048 315.612 -174.907 299.359 -152.708 284.235C-69.8561 227.669 21.2396 186.128 117.988 160.791C216.268 135.012 317.55 126.714 419.068 136.092L418.479 140.463C392.099 138.007 365.659 136.829 339.338 136.829C165.921 136.829 -5.08221 189.222 -149.351 287.673C-171.492 302.747 -193.574 319 -215.008 334.664C-244.804 356.515 -275.542 379.102 -305.868 398.154C-332.661 415.045 -357.51 429.58 -381.536 443.574C-424.463 468.616 -465.035 492.333 -505.607 523.66C-514.734 530.731 -524.156 538.588 -533.519 547.033C-548.652 560.684 -563.315 575.906 -578.801 591.962C-599.823 613.764 -621.552 636.302 -644.635 654.765C-653.409 661.737 -661.653 667.433 -669.72 672.098C-684.383 680.593 -699.398 686.731 -715.651 690.904C-740.324 697.238 -766.763 698.908 -796.559 695.962C-832.774 692.377 -870.578 680.003 -907.146 668.071C-922.044 663.21 -936.058 658.595 -949.955 654.617C-1004.13 639.003 -1056.24 635.664 -1109.24 644.502C-1157.64 652.555 -1208.11 674.455 -1247.74 704.555C-1300.38 744.524 -1343.13 792.743 -1384.47 839.342C-1400.02 856.871 -1416.09 874.99 -1432.52 892.471C-1467.5 929.691 -1501 959.005 -1534.92 982.083C-1576.73 1010.56 -1620.25 1029.81 -1664.12 1039.34Z" fill="#F1EFE6"/>
<path d="M-1664 1045.97L-1665.41 1041.69C-1584.97 1023.48 -1510.19 976.535 -1429.99 893.895C-1412.79 876.169 -1395.89 857.706 -1379.52 839.882C-1336.12 792.596 -1291.31 743.641 -1236.61 703.082C-1195.92 672.933 -1146.69 650.836 -1097.99 640.869C-1042.64 629.575 -989.232 630.753 -934.763 644.551C-916.862 649.069 -897.96 654.961 -879.705 660.657C-847.907 670.576 -814.99 680.838 -783.722 685.208C-753.632 689.431 -727.369 689.235 -703.52 684.717C-687.15 681.673 -671.958 676.468 -657.001 668.906C-648.581 664.585 -640.278 659.38 -631.68 653.046C-604.358 632.816 -580.274 606.349 -557.014 580.767C-545.708 568.344 -534.991 556.608 -523.979 545.511C-515.088 536.574 -506.137 528.129 -497.363 520.37C-450.137 478.486 -403.147 446.225 -348.678 408.858C-334.428 399.087 -319.765 389.021 -304.514 378.365C-281.019 362.014 -257.936 344.632 -233.498 326.267C-207.118 306.43 -179.795 285.905 -152.178 266.951C-69.6794 210.287 19.7085 168.255 113.572 141.985C210.732 114.782 310.366 105.207 409.647 113.554L409.117 117.974C216.032 101.77 17.8829 155.881 -148.821 270.388C-176.321 289.293 -203.584 309.769 -229.906 329.557C-253.284 347.136 -277.544 365.353 -301.099 381.753C-316.35 392.409 -331.071 402.475 -345.321 412.246C-399.672 449.515 -446.545 481.727 -493.536 523.366C-502.192 531.075 -511.083 539.471 -519.916 548.31C-530.869 559.309 -541.527 571.044 -552.833 583.418C-576.269 609.197 -600.53 635.811 -628.206 656.336C-637.039 662.817 -645.518 668.17 -654.292 672.638C-669.72 680.494 -685.443 685.847 -702.402 688.989C-726.957 693.654 -753.867 693.85 -784.664 689.529C-816.462 685.11 -849.615 674.749 -881.648 664.733C-900.668 658.791 -918.628 653.193 -936.353 648.725C-989.938 635.173 -1042.41 633.994 -1096.82 645.091C-1144.69 654.863 -1193.15 676.615 -1233.19 706.323C-1287.37 746.685 -1332.12 795.444 -1375.34 842.583C-1391.71 860.456 -1408.67 878.919 -1425.87 896.694C-1462.43 934.405 -1497.12 964.063 -1531.86 987.337C-1575.43 1016.55 -1618.66 1035.7 -1664 1045.97Z" fill="#F1EFE6"/>
<path d="M-1663.94 1052.64L-1665.35 1048.37C-1557.89 1023.13 -1475.74 950.461 -1423.27 898.019C-1405.2 879.95 -1387.41 861.143 -1370.22 842.975C-1325 795.149 -1278.24 745.703 -1221.89 704.898C-1181.37 675.584 -1133.03 653.095 -1085.69 641.605C-1029.86 628.053 -974.569 627.071 -921.219 638.659C-898.902 643.52 -875.642 650.542 -853.148 657.367C-826.119 665.567 -798.208 674.013 -771.415 678.825C-740.265 684.472 -713.531 685.748 -689.682 682.753C-672.429 680.642 -656.589 676.222 -641.161 669.348C-632.269 665.371 -623.731 660.51 -615.016 654.568C-583.748 633.11 -558.25 603.01 -533.636 573.892C-525.687 564.514 -518.208 555.626 -510.435 546.984C-502.427 537.998 -494.006 529.062 -485.409 520.321C-427.289 461.496 -364.459 411.902 -299.803 362.112C-287.26 352.439 -274.364 342.373 -261.822 332.602C-226.255 304.76 -189.393 275.986 -151.471 249.765C-69.2671 192.904 18.472 150.381 109.391 123.277C205.374 94.6006 303.3 83.798 400.402 91.0652L399.931 95.4845C211.085 81.2938 21.5929 135.798 -148.114 253.153C-185.919 279.276 -222.663 308.05 -258.23 335.842C-270.714 345.614 -283.668 355.729 -296.211 365.402C-360.69 415.094 -423.403 464.541 -481.287 523.169C-489.767 531.811 -498.128 540.748 -506.137 549.685C-513.851 558.278 -521.329 567.116 -529.22 576.495C-554.069 605.858 -579.743 636.155 -611.542 658.005C-620.492 664.143 -629.325 669.152 -638.57 673.276C-654.528 680.396 -671.016 684.963 -688.858 687.172C-713.354 690.266 -740.736 688.94 -772.534 683.195C-799.68 678.285 -827.768 669.79 -854.973 661.541C-877.35 654.765 -900.491 647.743 -922.573 642.931C-974.981 631.539 -1029.33 632.521 -1084.21 645.828C-1130.85 657.122 -1178.49 679.316 -1218.41 708.237C-1274.41 748.796 -1320.99 798.095 -1366.1 845.725C-1383.29 863.942 -1401.13 882.749 -1419.21 900.867C-1457.37 939.02 -1493.23 969.022 -1528.8 992.542C-1573.49 1022.15 -1617.66 1041.79 -1663.94 1052.64Z" fill="#F1EFE6"/>
<path d="M-1663.82 1059.32L-1665.29 1055.1C-1556 1028.49 -1471.03 955.126 -1416.62 902.242C-1397.66 883.829 -1378.99 864.679 -1360.97 846.118C-1313.93 797.801 -1265.29 747.814 -1207.28 706.814C-1166.06 677.647 -1119.78 655.403 -1073.5 642.44C-1016.91 626.383 -961.143 623.143 -907.852 632.914C-880.647 637.873 -852.677 646.27 -825.648 654.421C-803.802 661.001 -781.131 667.777 -759.285 672.638C-726.721 679.954 -700.282 682.606 -676.021 680.985C-657.943 679.807 -641.397 676.173 -625.439 669.987C-616.135 666.353 -607.243 661.835 -598.41 656.238C-563.55 634.142 -537.641 600.752 -512.555 568.442C-507.491 561.911 -502.192 555.135 -497.01 548.654C-489.472 539.275 -481.582 529.749 -473.573 520.469C-422.991 461.84 -366.343 406.403 -295.269 346.056C-253.46 310.604 -203.643 269.357 -150.941 232.678C-68.9728 175.62 17.1175 132.508 104.974 104.667C199.838 74.5668 296.116 62.4875 391.039 68.7727L390.627 73.1919C208.907 60.9653 22.8293 117.335 -147.526 235.918C-200.051 272.5 -249.809 313.599 -291.5 349.002C-362.339 409.202 -418.869 464.442 -469.275 522.924C-477.224 532.204 -485.115 541.632 -492.593 551.011C-497.775 557.443 -503.016 564.219 -508.08 570.75C-533.401 603.354 -559.605 637.088 -595.23 659.675C-604.358 665.469 -613.544 670.134 -623.201 673.915C-639.748 680.396 -656.883 684.128 -675.609 685.356C-700.458 687.025 -727.487 684.325 -760.639 676.861C-782.721 671.951 -805.451 665.125 -827.415 658.546C-854.326 650.493 -882.119 642.145 -908.971 637.186C-961.32 627.611 -1016.08 630.753 -1071.79 646.564C-1117.48 659.38 -1163.18 681.329 -1203.87 710.153C-1261.52 750.908 -1309.98 800.747 -1356.91 848.917C-1374.99 867.478 -1393.71 886.726 -1412.68 905.139C-1452.42 943.734 -1489.4 974.08 -1525.85 997.845C-1571.49 1027.75 -1616.65 1047.83 -1663.82 1059.32Z" fill="#F1EFE6"/>
<path d="M-1663.76 1066L-1665.29 1061.78C-1555.41 1034.13 -1471.09 964.21 -1409.97 906.416C-1390.12 887.659 -1370.51 868.067 -1351.61 849.113C-1302.79 800.305 -1252.27 749.827 -1192.62 708.63C-1148.69 678.334 -1100.23 654.715 -1052.41 640.427C-997.769 624.075 -944.655 619.558 -894.425 627.022C-861.332 631.932 -827.944 642.145 -795.675 652.015C-730.842 671.852 -669.602 690.61 -609.715 670.379C-555.482 652.064 -523.861 607.184 -493.299 563.777C-490.119 559.26 -486.822 554.595 -483.583 550.078C-434.708 481.776 -380.004 417.451 -321.06 358.921C-256.345 294.645 -187.802 238.864 -117.493 193.052C-39.9414 142.574 39.7304 104.421 119.343 79.6734C206.788 52.4704 294.998 41.1768 381.618 46.1362L381.265 50.5554C367.662 49.7698 354.119 49.377 340.752 49.377C-85.1063 49.377 -392.841 431.936 -478.99 552.336C-482.229 556.854 -485.467 561.518 -488.647 565.987C-519.68 610.032 -551.772 655.55 -607.654 674.455C-635.448 683.833 -666.245 685.797 -701.871 680.445C-733.492 675.682 -765.997 665.764 -797.441 656.139C-829.475 646.319 -862.627 636.204 -895.309 631.343C-987.876 617.594 -1094.99 646.957 -1189.21 712.018C-1248.5 752.97 -1298.85 803.3 -1347.49 851.961C-1366.45 870.915 -1386.06 890.556 -1405.96 909.362C-1447.83 948.939 -1484.93 978.744 -1522.73 1003.1C-1569.55 1033.35 -1615.71 1053.92 -1663.76 1066Z" fill="#F1EFE6"/>
</g>
<defs>
<clipPath id="clip0_2665_341">
<rect width="2300" height="900" fill="white"/>
</clipPath>
</defs>
</svg>
