<svg width="2300" height="730" viewBox="0 0 2300 730" fill="none" xmlns="http://www.w3.org/2000/svg">
<g clip-path="url(#clip0_2785_4)">
<path d="M3748.52 963.767C3749.36 963.767 3750.15 963.767 3751 963.72L3750.83 959.482C3724.44 960.141 3699.57 949.642 3678.93 929.161C3661.28 911.693 3647.18 887.022 3640.3 861.55C3636.69 848.131 3634.04 834.054 3631.45 820.447C3624.74 784.899 3617.8 748.08 3592.76 718.371C3574.6 696.807 3546.63 680.752 3513.98 673.219C3481.33 665.638 3447.5 667.38 3418.62 678.021C3373.4 694.736 3343.11 728.918 3313.79 761.97C3303.92 773.128 3293.71 784.617 3283.11 795.257C3261.06 817.386 3232.3 835.56 3204.28 845.071C3181.38 852.887 3147.55 858.819 3116.3 842.811C3083.54 826.05 3070.06 792.15 3064.54 766.678C3062.17 755.802 3060.59 744.596 3059.12 733.767C3056.42 714.51 3053.65 694.547 3046.32 675.761C3039.61 658.576 3028.73 642.568 3013.95 628.16C2999.74 614.318 2982.65 602.641 2963.09 593.413C2943.57 584.185 2922.77 577.97 2901.22 574.957C2878.84 571.802 2856.79 572.273 2835.7 576.322C2781.11 586.822 2735.6 617.802 2691.61 647.747C2639.06 683.53 2589.43 717.288 2525.65 719.36C2455.1 721.667 2395.33 683.153 2337.53 645.958C2328.78 640.355 2319.82 634.564 2310.96 629.055C2263.48 599.44 2209.35 576.511 2150.08 560.926C2095.88 546.66 2035.88 538.138 1971.76 535.596C1914.19 533.288 1851.65 535.784 1785.84 542.893C1728.38 549.155 1666.51 559.184 1602 572.697L1603.24 576.793C1724.03 551.415 1832.81 538.703 1930.26 538.703C2082.8 538.703 2207.71 569.872 2307.98 632.398C2316.77 637.859 2325.74 643.651 2334.48 649.253C2391.32 685.837 2450.03 723.644 2519.67 723.644C2521.76 723.644 2523.85 723.597 2525.93 723.55C2555.37 722.609 2584.69 714.746 2615.65 699.632C2643.17 686.166 2669.45 668.275 2694.88 650.996C2738.48 621.333 2783.48 590.682 2836.94 580.418C2921.13 564.222 3014.85 608.48 3041.58 677.079C3048.75 695.489 3051.51 715.217 3054.16 734.285C3055.68 745.208 3057.26 756.508 3059.63 767.479C3065.38 793.845 3079.37 828.922 3113.77 846.483C3139.93 859.855 3171.96 860.75 3206.31 849.026C3235.07 839.233 3264.56 820.635 3287.12 797.988C3297.77 787.3 3308.04 775.718 3317.96 764.512C3346.89 731.884 3376.78 698.173 3420.77 681.929C3478.57 660.553 3552.33 677.644 3588.7 720.819C3613.06 749.728 3619.89 786.029 3626.49 821.106C3629.08 834.76 3631.73 848.932 3635.4 862.492C3642.44 888.623 3656.94 913.906 3675.1 931.892C3696.13 952.796 3721.45 963.767 3748.52 963.767Z" fill="#F1EFE6"/>
<path d="M3750.49 970.123C3750.61 970.123 3750.77 970.123 3750.89 970.123V965.885C3750.77 965.885 3750.66 965.885 3750.55 965.885C3692.18 965.885 3649.94 915.507 3633.99 865.505C3629.64 851.898 3626.2 837.679 3622.93 823.931C3614.25 787.818 3605.23 750.482 3578.83 720.16C3560.51 699.067 3532.82 683.247 3500.84 675.526C3468.81 667.804 3435.48 668.934 3406.95 678.727C3361.55 694.218 3330.54 727.081 3300.48 758.815C3290.78 769.126 3280.69 779.72 3270.31 789.607C3227.9 830.193 3157.98 862.256 3104.8 836.69C3078.8 824.26 3060.93 800.06 3051.68 764.795C3048.92 754.295 3046.94 743.419 3045.02 732.873C3043.67 725.339 3042.2 717.524 3040.51 709.849C3037.64 696.948 3034.48 686.59 3030.59 677.221C3019.53 650.76 2998.61 626.936 2970.08 608.291C2942.56 590.306 2909.17 578.441 2876.07 574.91C2858.48 573.026 2841.11 573.45 2824.42 576.134C2771.46 584.703 2726.97 612.764 2684 639.931C2632.4 672.465 2583.73 703.21 2521.36 703.728C2520.86 703.728 2520.29 703.728 2519.79 703.728C2451.83 703.728 2393.64 666.109 2337.36 629.667C2328.56 623.97 2319.42 618.085 2310.51 612.482C2263.6 583.055 2210.14 560.079 2151.71 544.212C2098.2 529.663 2039.04 520.67 1975.99 517.563C1919.09 514.738 1857.4 516.574 1792.66 523.024C1735.59 528.721 1674.46 538.185 1611.02 551.133L1612.21 555.229C1911.71 494.068 2145.62 514.455 2307.41 615.872C2316.27 621.428 2325.4 627.313 2334.2 633.01C2391.15 669.829 2450.03 707.919 2519.73 707.919C2520.29 707.919 2520.8 707.919 2521.36 707.919C2550.12 707.683 2578.88 700.95 2609.28 687.343C2636.24 675.29 2662.06 659 2686.99 643.274C2729.51 616.437 2773.55 588.658 2825.32 580.277C2841.45 577.688 2858.25 577.264 2875.34 579.1C2942.33 586.257 3004.2 627.172 3025.68 678.586C3029.52 687.767 3032.62 697.937 3035.44 710.602C3037.13 718.23 3038.54 725.998 3039.89 733.532C3041.81 744.125 3043.84 755.096 3046.6 765.689C3050.89 781.98 3057.15 796.293 3065.21 808.111C3074.97 822.424 3087.37 833.253 3102.21 840.363C3115.68 846.813 3130.68 850.062 3146.81 850.062C3161.7 850.062 3177.43 847.284 3193.73 841.775C3221.98 832.217 3251.25 814.185 3274.09 792.385C3284.58 782.451 3294.67 771.763 3304.43 761.405C3334.03 730.048 3364.71 697.655 3408.87 682.588C3465.43 663.143 3538.29 680.705 3574.72 722.609C3600.43 752.224 3609.34 789.09 3617.91 824.731C3621.24 838.526 3624.68 852.84 3629.08 866.541C3637.71 893.519 3652.99 918.52 3672.22 936.882C3694.83 958.682 3721.9 970.123 3750.49 970.123Z" fill="#F1EFE6"/>
<path d="M3750.77 976.526L3750.89 972.289C3687.33 971.253 3644.7 916.26 3627.56 869.46C3622.54 855.712 3618.31 841.351 3614.25 827.462C3603.53 790.784 3592.48 752.883 3564.74 721.949C3526.5 679.292 3453.59 661.024 3395.16 679.433C3349.26 693.888 3317.12 725.669 3286.1 756.414C3276.8 765.595 3267.21 775.106 3257.34 784.052C3234.33 804.909 3206.59 821.482 3179.24 830.711C3147.15 841.54 3117.38 841.54 3093.13 830.664C3067.41 819.222 3049.08 796.434 3038.65 762.958C3035.49 752.788 3033.07 742.195 3030.7 731.931C3029.07 724.868 3027.43 717.571 3025.51 710.367C3022.19 697.843 3018.75 687.767 3014.69 678.727C3003.12 652.926 2982.32 629.479 2954.57 610.928C2927.22 592.66 2895.64 580.701 2863.16 576.369C2846.07 574.109 2829.21 574.015 2813.03 576.087C2761.71 582.772 2718.23 607.915 2676.22 632.256C2625.63 661.542 2577.81 689.227 2516.91 688.191C2450.2 687.061 2392.73 649.724 2337.13 613.565C2328.22 607.773 2318.97 601.747 2309.95 596.097C2263.54 566.858 2210.81 543.835 2153.29 527.686C2100.4 512.854 2042.14 503.438 1980.11 499.671C1923.83 496.281 1863.04 497.505 1799.37 503.25C1742.7 508.382 1682.36 517.28 1619.93 529.663L1621.12 533.806C1914.47 475.612 2145.17 497.694 2306.85 599.487C2315.87 605.137 2325.06 611.116 2333.97 616.907C2390.25 653.491 2448.39 691.298 2516.8 692.428C2544.94 692.899 2573.08 687.296 2602.85 675.243C2629.3 664.555 2654.62 649.913 2679.09 635.741C2720.66 611.681 2763.57 586.822 2813.76 580.277C2829.44 578.252 2845.79 578.347 2862.31 580.56C2927.73 589.317 2987.05 629.384 3009.89 680.234C3013.9 689.085 3017.22 698.926 3020.49 711.261C3022.41 718.418 3024.05 725.669 3025.68 732.731C3028.05 743.089 3030.47 753.777 3033.69 764.041C3044.46 798.694 3063.63 822.377 3090.7 834.383C3116.36 845.871 3147.6 845.965 3181.16 834.618C3209.18 825.155 3237.55 808.205 3261.06 786.876C3270.99 777.884 3280.63 768.326 3289.94 759.098C3321.97 727.364 3352.25 697.419 3396.91 683.341C3453.3 665.591 3523.68 683.247 3560.68 724.445C3587.86 754.719 3598.74 792.197 3609.34 828.403C3613.4 842.34 3617.63 856.794 3622.71 870.684C3640.3 918.85 3684.46 975.443 3750.77 976.526Z" fill="#F1EFE6"/>
<path d="M3750.61 982.93L3750.83 978.692C3686.26 976.432 3641.49 922.805 3621.13 873.415C3615.38 859.526 3610.41 844.977 3605.62 830.946C3592.93 793.751 3579.79 755.284 3550.64 723.691C3532.09 703.634 3504.96 688.144 3474.34 680.14C3443.61 672.089 3411.29 672.089 3383.32 680.093C3336.85 693.417 3303.7 724.115 3271.67 753.777C3262.81 761.97 3253.68 770.398 3244.37 778.402C3221.08 798.459 3193.45 814.42 3166.66 823.46C3134.97 834.101 3105.48 834.477 3081.4 824.543C3055.91 813.996 3037.13 792.621 3025.57 761.075C3021.9 751.188 3019.14 741.253 3016.21 730.707C3014.4 724.209 3012.49 717.477 3010.4 710.791C3006.56 698.408 3002.96 688.991 2998.73 680.187C2974.31 629.337 2914.59 588.14 2850.19 577.735C2833.67 575.051 2817.31 574.439 2801.58 575.946C2751.84 580.748 2709.43 603.018 2668.44 624.535C2621.01 649.395 2572.01 675.149 2512.51 672.559C2447.77 669.782 2391.44 632.963 2336.96 597.415C2327.88 591.483 2318.52 585.362 2309.39 579.571C2263.48 550.521 2211.49 527.45 2154.87 511.065C2102.65 495.905 2045.24 486.064 1984.28 481.733C1878.49 474.247 1758.88 483.145 1628.9 508.146L1630.03 512.29C1917.23 457.014 2144.78 480.791 2306.34 583.008C2315.48 588.799 2324.84 594.873 2333.86 600.805C2388.96 636.777 2445.91 674.019 2512.29 676.844C2539.75 678.021 2567.27 673.548 2596.48 663.096C2622.42 653.821 2647.18 640.779 2671.2 628.207C2711.75 606.926 2753.64 584.938 2802.26 580.23C2817.48 578.818 2833.33 579.383 2849.34 581.972C2912.11 592.142 2970.3 632.304 2994.16 681.882C2998.33 690.498 3001.83 699.773 3005.66 711.968C3007.75 718.607 3009.61 725.292 3011.41 731.743C3014.23 741.865 3017.17 752.365 3020.89 762.394C3032.84 795.116 3052.52 817.292 3079.31 828.404C3104.69 838.903 3135.65 838.574 3168.69 827.462C3196.16 818.234 3224.35 801.896 3248.15 781.462C3257.51 773.411 3266.7 764.936 3275.56 756.697C3308.66 726.093 3339.9 697.184 3385.13 684.189C3440.39 668.322 3509.87 686.449 3546.8 726.375C3575.39 757.309 3588.36 795.399 3600.94 832.217C3605.73 846.295 3610.7 860.891 3616.5 874.922C3628.01 902.842 3645.77 928.549 3666.52 947.194C3678.37 957.882 3691.22 966.309 3704.59 972.336C3719.19 978.739 3734.7 982.365 3750.61 982.93Z" fill="#F1EFE6"/>
<path d="M3750.49 989.333L3750.83 985.095C3685.19 981.611 3637.48 927.183 3614.7 877.37C3608.27 863.292 3602.58 848.602 3597.05 834.43C3582.39 796.67 3567.22 757.638 3536.6 725.434C3497.97 684.801 3428.55 666.015 3371.54 680.752C3324.39 692.946 3291.57 721.243 3256.83 751.235C3248.6 758.344 3240.09 765.689 3231.4 772.752C3207.77 792.009 3180.31 807.452 3154.09 816.209C3122.28 826.85 3093.86 827.603 3069.72 818.375C3044.46 808.77 3025.23 788.854 3012.6 759.145C3008.43 749.446 3005.15 739.605 3001.66 729.2C2999.68 723.315 2997.65 717.288 2995.46 711.215C2992.52 703.069 2988.46 692.381 2982.94 681.646C2970.36 657.21 2949.83 634.517 2923.55 616.06C2897.45 597.698 2867.61 584.891 2837.39 579.1C2821.43 576.04 2805.58 574.91 2790.3 575.804C2742.14 578.723 2700.75 598.074 2660.71 616.813C2614.24 638.566 2566.25 661.024 2508.17 656.881C2445.35 652.408 2390.25 616.248 2336.91 581.219C2327.71 575.192 2318.18 568.93 2308.82 562.998C2263.43 534.136 2212.17 511.018 2156.45 494.351C2104.91 478.908 2048.35 468.597 1988.4 463.653C1883.23 455.037 1765.31 462.711 1637.81 486.488L1638.94 490.631C1919.94 438.275 2144.33 463.747 2305.78 566.341C2315.08 572.226 2324.61 578.488 2333.8 584.515C2387.71 619.921 2443.43 656.504 2507.77 661.071C2512.68 661.401 2517.53 661.589 2522.27 661.589C2575.39 661.589 2619.99 640.731 2663.19 620.486C2702.72 601.982 2743.61 582.82 2790.64 579.995C2805.41 579.147 2820.75 580.23 2836.26 583.196C2896.37 594.779 2953.44 634.987 2978.26 683.294C2983.73 693.841 2987.73 704.387 2990.61 712.392C2992.8 718.418 2994.83 724.445 2996.81 730.283C3000.31 740.783 3003.63 750.67 3007.86 760.51C3021 791.302 3041.13 812.066 3067.69 822.189C3080.95 827.227 3095.61 829.44 3111.34 828.78C3125.5 828.168 3140.55 825.249 3156.06 820.07C3182.9 811.077 3210.93 795.352 3235.01 775.718C3243.69 768.608 3252.27 761.264 3260.56 754.107C3294.84 724.539 3327.21 696.572 3373.11 684.707C3428.15 670.488 3495.26 688.662 3532.65 727.976C3562.71 759.569 3577.71 798.224 3592.26 835.654C3597.78 849.873 3603.53 864.61 3610.02 878.782C3622.99 907.173 3641.99 933.21 3663.48 951.996C3689.7 975.114 3719.03 987.638 3750.49 989.333Z" fill="#F1EFE6"/>
<path d="M3750.38 995.689L3750.77 991.451C3666.81 985.613 3620.45 905.619 3608.27 881.278C3601.17 867.059 3594.68 852.228 3588.48 837.867C3571.84 799.542 3554.59 759.945 3522.5 727.128C3503.78 708.013 3477.33 692.899 3447.89 684.613C3418.34 676.279 3387.04 675.102 3359.75 681.364C3311.7 692.381 3277.59 719.783 3241.5 748.834C3234 754.86 3226.27 761.075 3218.49 767.055C3194.46 785.511 3167.17 800.389 3141.57 808.911C3110.1 819.411 3082.02 820.494 3058.11 812.207C3032.73 803.403 3013.56 785.417 2999.63 757.167C2994.72 747.421 2990.77 737.345 2986.55 726.705C2984.57 721.761 2982.6 716.676 2980.46 711.544C2976.68 702.457 2972.45 692.711 2967.03 683.012C2953.95 659.235 2933.54 636.918 2908.05 618.555C2882.5 600.146 2853.63 586.963 2824.47 580.371C2808.97 576.887 2793.63 575.286 2778.91 575.569C2732.22 576.51 2691.78 593.036 2652.7 609.092C2607.31 627.689 2560.33 646.899 2503.77 641.202C2442.92 635.081 2389.01 599.534 2336.91 565.116C2327.49 558.901 2317.79 552.498 2308.26 546.424C2221.41 490.961 2115.17 457.061 1992.57 445.62C1888.08 435.874 1771.74 442.371 1646.78 464.877L1647.85 469.02C1836.76 434.979 2104.17 421.372 2305.21 549.767C2314.69 555.841 2324.39 562.244 2333.8 568.412C2386.47 603.206 2440.95 639.131 2503.21 645.393C2510.37 646.099 2517.36 646.475 2524.24 646.475C2573.02 646.475 2614.58 629.431 2654.96 612.905C2693.59 597.086 2733.51 580.748 2779.08 579.853C2793.29 579.571 2808.18 581.124 2823.23 584.514C2880.64 597.415 2936.58 637.765 2962.47 684.848C2967.77 694.406 2971.94 704.011 2975.72 713.004C2977.86 718.088 2979.83 723.173 2981.81 728.07C2986.04 738.805 2990.04 748.881 2995 758.815C3001.49 771.904 3009.27 783.157 3018.18 792.15C3029.01 803.073 3041.75 811.124 3056.25 816.162C3081.45 824.919 3110.78 823.789 3143.54 812.913C3169.71 804.203 3197.57 789.042 3222.04 770.256C3229.88 764.23 3237.66 757.968 3245.16 751.941C3280.8 723.315 3314.47 696.242 3361.27 685.507C3415.24 673.124 3481.5 691.769 3518.72 729.859C3550.24 762.111 3567.33 801.378 3583.85 839.374C3590.11 853.781 3596.6 868.612 3603.76 882.973C3613.97 903.407 3632.18 932.88 3660.66 957.175C3687.84 980.481 3718.12 993.476 3750.38 995.689Z" fill="#F1EFE6"/>
<path d="M3750.27 1002.09L3750.77 997.855C3667.71 990.745 3618.99 916.731 3601.84 885.233C3594 870.825 3586.84 855.853 3579.91 841.351C3561.24 802.461 3542.01 762.299 3508.46 728.871C3469.6 690.168 3403.57 670.912 3348.02 682.023C3298.85 691.863 3263.26 718.465 3225.54 746.621C3219.05 751.47 3212.34 756.508 3205.57 761.358C3184.2 776.848 3109.65 825.814 3046.43 806.039C3021.34 798.176 3001.77 781.556 2986.6 755.237C2980.91 745.397 2976.17 735.133 2971.15 724.256C2969.29 720.254 2967.43 716.158 2965.45 712.015C2961.28 703.21 2956.71 693.841 2951.19 684.518C2923.16 636.871 2868.4 596.568 2811.67 581.831C2796.67 577.97 2781.84 575.804 2767.63 575.522C2722.52 574.533 2683.04 588.281 2644.86 601.511C2600.43 616.955 2554.52 632.869 2499.43 625.618C2440.61 617.896 2387.94 582.961 2337.07 549.155C2327.49 542.799 2317.51 536.16 2307.81 529.945C2221.75 474.67 2117.09 440.3 1996.8 427.682C1893.04 416.805 1778.34 422.079 1655.8 443.36L1656.81 447.503C1841.33 415.44 2103.61 404.328 2304.59 533.335C2314.29 539.55 2324.22 546.142 2333.8 552.498C2385.23 586.633 2438.41 621.945 2498.53 629.808C2508.28 631.079 2517.81 631.692 2527 631.692C2571.1 631.692 2609.39 618.367 2646.67 605.419C2684.34 592.33 2723.31 578.817 2767.35 579.759C2781.11 580.042 2795.49 582.113 2810.04 585.88C2865.53 600.287 2919.1 639.743 2946.51 686.402C2951.98 695.583 2956.43 704.905 2960.61 713.616C2962.58 717.712 2964.44 721.855 2966.3 725.81C2971.38 736.78 2976.17 747.139 2981.92 757.12C2997.71 784.522 3018.18 801.849 3044.57 810.088C3069.44 817.857 3098.48 816.398 3130.8 805.663C3163.45 794.834 3191.25 777.413 3208.84 764.653C3215.61 759.757 3222.32 754.719 3228.86 749.869C3266.08 722.043 3301.27 695.818 3349.15 686.213C3402.95 675.479 3466.84 694.123 3504.51 731.648C3537.56 764.512 3556.67 804.391 3575.17 842.952C3582.16 857.501 3589.32 872.52 3597.22 886.975C3608.5 907.738 3628.12 937.636 3657.56 962.119C3686.04 985.849 3717.22 999.267 3750.27 1002.09Z" fill="#F1EFE6"/>
<path d="M3750.15 1008.5L3750.77 1004.31C3666.3 995.83 3614.02 921.016 3595.47 889.235C3586.95 874.686 3579.06 859.525 3571.39 844.883C3550.75 805.474 3529.43 764.701 3494.41 730.707C3475.35 712.25 3450.15 697.89 3421.56 689.18C3392.8 680.422 3363.3 678.209 3336.29 682.777C3285.71 691.393 3248.32 717.335 3208.67 744.785C3203.43 748.41 3198.07 752.13 3192.66 755.849C3165.08 774.682 3094.48 816.633 3034.76 800.013C3009.84 793.092 2989.82 777.837 2973.58 753.401C2966.86 743.325 2961.17 732.637 2955.13 721.29C2953.61 718.418 2952.03 715.499 2950.45 712.533L2950.29 712.203C2945.66 703.681 2940.92 694.877 2935.34 686.072C2921.19 663.52 2901.05 642.003 2877.14 623.829C2852.73 605.278 2825.66 591.248 2798.82 583.291C2784.38 579.006 2770.06 576.369 2756.3 575.475C2712.65 572.603 2674.13 583.479 2636.86 593.978C2593.49 606.22 2548.6 618.885 2495.03 610.081C2438.24 600.758 2386.93 566.482 2337.24 533.336C2327.38 526.744 2317.17 519.917 2307.19 513.467C2221.86 458.427 2118.78 423.491 2000.86 409.743C1897.83 397.69 1784.71 401.786 1664.65 421.844L1665.67 425.987C1845.95 395.854 2103.1 387.143 2304.08 516.81C2314.07 523.26 2324.22 530.04 2334.09 536.631C2384.22 570.107 2436.04 604.713 2494.07 614.224C2506.93 616.343 2519.33 617.284 2531.29 617.284C2570.26 617.284 2604.83 607.538 2638.49 598.027C2675.26 587.669 2713.27 576.934 2755.9 579.712C2769.21 580.607 2783.08 583.149 2797.12 587.293C2849.74 602.924 2902.18 642.474 2930.89 688.05C2936.41 696.76 2941.15 705.518 2945.72 713.945L2945.89 714.275C2947.47 717.241 2949.04 720.113 2950.57 722.985C2956.66 734.426 2962.41 745.208 2969.23 755.472C2986.15 780.897 3007.07 796.764 3033.29 804.062C3057.88 810.889 3086.53 809.006 3118.45 798.506C3150.2 788.054 3178.11 771.339 3195.99 759.145C3201.4 755.472 3206.81 751.706 3212.06 748.08C3251.14 720.961 3288.08 695.348 3337.42 686.967C3390.2 678.021 3453.25 697.137 3490.75 733.485C3525.32 767.008 3546.47 807.452 3566.94 846.625C3574.6 861.315 3582.56 876.475 3591.07 891.118C3608.72 921.345 3630.77 947.664 3654.85 967.251C3684.18 991.216 3716.26 1005.11 3750.15 1008.5Z" fill="#F1EFE6"/>
<path d="M3750.04 1014.9L3750.72 1010.71C3667.88 1001.2 3613.85 933.022 3589.04 893.19C3579.85 878.453 3571.22 863.151 3562.88 848.367C3540.26 808.394 3516.92 767.008 3480.37 732.449C3441.35 695.583 3378.75 675.902 3324.5 683.436C3272.06 690.734 3232.53 716.205 3190.63 743.184C3187.02 745.491 3183.35 747.845 3179.69 750.199C3145.06 772.328 3078.75 807.405 3023.03 793.892C2998.22 787.865 2977.75 773.976 2960.44 751.47C2952.37 740.971 2945.38 729.483 2937.99 717.335C2937.09 715.876 2936.19 714.416 2935.28 712.91C2934.5 711.638 2933.76 710.367 2932.97 709.096C2928.69 702.081 2924.29 694.783 2919.33 687.485C2904.55 665.497 2884.59 644.357 2861.52 626.371C2837.61 607.726 2811.45 593.272 2785.79 584.656C2771.86 579.995 2758.1 576.84 2744.85 575.333C2702.67 570.531 2665.05 578.582 2628.68 586.398C2586.33 595.438 2542.57 604.807 2490.57 594.449C2435.87 583.62 2385.91 550.003 2337.53 517.563C2327.37 510.736 2316.83 503.673 2306.51 496.988C2221.92 442.089 2120.41 406.73 2004.92 391.805C1902.68 378.574 1791.14 381.446 1673.51 400.327L1674.46 404.47C1734.35 394.865 1803.1 387.803 1875.56 387.803C2016.03 387.803 2170.77 414.357 2303.41 500.331C2313.67 507.016 2324.22 514.032 2334.31 520.859C2383.09 553.628 2433.51 587.528 2489.33 598.592C2542.57 609.233 2586.95 599.722 2629.86 590.541C2667.42 582.49 2702.89 574.91 2744.06 579.571C2756.92 581.031 2770.28 584.091 2783.81 588.611C2834.17 605.608 2884.36 644.263 2914.81 689.604C2919.72 696.854 2924.12 704.058 2928.35 711.073C2929.14 712.345 2929.93 713.616 2930.66 714.887C2931.56 716.347 2932.46 717.853 2933.31 719.266C2940.75 731.507 2947.8 743.09 2955.98 753.777C2973.97 777.225 2995.4 791.679 3021.4 797.988C3045.64 803.874 3073.95 801.614 3105.53 791.255C3129.84 783.298 3156.51 770.256 3182.57 753.589C3186.23 751.235 3189.9 748.881 3193.51 746.574C3234.84 719.925 3273.92 694.783 3325.12 687.673C3377.68 680.375 3438.47 699.491 3476.37 735.321C3512.46 769.456 3535.69 810.512 3558.08 850.25C3566.48 865.081 3575.11 880.43 3584.36 895.214C3609.85 935.659 3664.95 1005.11 3750.04 1014.9Z" fill="#F1EFE6"/>
<path d="M3749.99 1021.3L3750.77 1017.11C3666.52 1006.28 3609.29 937.306 3582.73 897.192C3572.86 882.266 3563.5 866.823 3554.42 851.851C3529.89 811.313 3504.51 769.362 3466.39 734.238C3447.33 716.676 3422.74 702.645 3395.28 693.653C3367.64 684.613 3339.17 681.317 3312.83 684.142C3258.02 690.074 3215.84 715.311 3171.17 742.007L3166.89 744.549C3105.59 781.18 3051.85 796.105 3011.47 787.771C2986.71 782.639 2965.79 770.115 2947.52 749.54C2937.65 738.381 2928.91 725.669 2920.45 713.38C2918.82 710.979 2917.13 708.531 2915.49 706.035C2911.71 700.48 2907.82 694.735 2903.65 688.944C2871.17 643.745 2821.2 604.336 2773.16 586.068C2759.74 580.983 2746.48 577.358 2733.74 575.239C2692.97 568.553 2656.26 573.78 2620.67 578.818C2579.45 584.703 2536.82 590.729 2486.4 578.818C2433.84 566.482 2385.29 533.618 2338.32 501.884C2327.77 494.775 2316.89 487.383 2306.17 480.414C2222.26 425.704 2122.39 389.827 2009.27 373.725C1907.82 359.317 1797.91 360.965 1682.64 378.668L1683.54 382.859C1739.09 374.337 1802.59 368.122 1869.81 368.122C2010.17 368.122 2167 395.053 2303.01 483.71C2313.67 490.678 2324.56 498.023 2335.04 505.133C2382.41 537.149 2431.36 570.296 2484.94 582.867C2536.42 595.014 2579.62 588.893 2621.4 582.961C2658.12 577.735 2692.8 572.791 2732.61 579.383C2744.96 581.407 2757.87 584.938 2770.9 589.882C2818.05 607.821 2867.16 646.617 2899.14 691.11C2903.31 696.854 2907.14 702.551 2910.92 708.107C2912.62 710.602 2914.25 713.051 2915.94 715.452C2924.46 727.882 2933.25 740.688 2943.35 752.035C2962.35 773.458 2984.23 786.5 3010.17 791.867C3034.08 796.811 3062 794.174 3093.24 784.005C3116.98 776.283 3142.75 764.136 3169.82 747.986L3174.11 745.397C3218.26 718.983 3259.94 694.076 3313.45 688.285C3364.99 682.729 3424.94 702.316 3462.61 737.016C3500.28 771.716 3525.49 813.384 3549.91 853.687C3558.98 868.707 3568.4 884.197 3578.27 899.169C3599.19 930.762 3622.99 957.034 3648.87 977.233C3680.45 1001.9 3714.46 1016.74 3749.99 1021.3Z" fill="#F1EFE6"/>
<path d="M3749.87 1027.66L3750.72 1023.47C3669.29 1011.93 3610.92 950.584 3576.24 901.099C3565.69 886.033 3555.6 870.354 3545.84 855.194C3519.34 814.09 3491.93 771.575 3452.29 735.933C3413.27 700.856 3353.89 680.752 3301.05 684.754C3243.3 689.133 3197.85 714.416 3153.92 738.899C3090.03 774.447 3039.61 788.43 2999.68 781.65C2974.59 777.366 2953.84 766.537 2934.33 747.609C2924.51 738.052 2915.6 727.176 2905.28 713.804C2902.58 710.273 2899.87 706.694 2897.11 702.928C2894.06 698.879 2890.9 694.641 2887.63 690.404C2852.95 645.204 2805.3 606.738 2760.19 587.481C2747.33 582.019 2734.58 577.876 2722.29 575.192C2682.87 566.529 2646.89 568.93 2612.1 571.237C2572.01 573.921 2530.61 576.652 2481.89 563.28C2431.53 549.485 2384.44 517.469 2338.94 486.441C2328 478.955 2316.6 471.233 2305.49 463.935C2222.26 409.366 2123.97 372.971 2013.33 355.786C1962.29 347.829 1908.44 344.063 1853.28 344.486C1800.61 344.91 1746.14 349.147 1691.49 357.199L1692.4 361.389C1749.69 352.961 1805.91 348.818 1860.33 348.818C2030.3 348.818 2183.46 389.309 2302.39 467.278C2313.5 474.576 2324.84 482.251 2335.78 489.737C2381.62 520.953 2429.05 553.252 2480.31 567.282C2529.94 580.936 2571.89 578.158 2612.49 575.428C2648.47 573.026 2682.42 570.766 2720.99 579.241C2732.89 581.878 2745.3 585.88 2757.87 591.247C2802.26 610.175 2849.17 648.123 2883.4 692.711C2886.67 696.901 2889.78 701.092 2892.82 705.188C2895.64 708.954 2898.29 712.533 2901.05 716.111C2911.49 729.624 2920.51 740.641 2930.49 750.387C2950.45 769.833 2972.79 781.415 2998.67 785.841C3005.49 787.018 3012.6 787.583 3020.04 787.583C3057.43 787.583 3102.43 772.705 3156.74 742.477C3200.16 718.324 3244.99 693.323 3301.5 689.038C3352.87 685.131 3410.56 704.717 3448.57 738.852C3487.82 774.117 3515.05 816.397 3541.39 857.265C3551.2 872.426 3561.3 888.152 3571.9 903.265C3607.03 953.503 3666.47 1015.89 3749.87 1027.66Z" fill="#F1EFE6"/>
<path d="M3749.76 1034.06L3750.66 1029.87C3667.82 1017.11 3606.58 954.962 3569.81 905.055C3558.53 889.8 3547.71 873.933 3537.27 858.584C3508.85 816.915 3479.41 773.835 3438.19 737.675C3419.19 720.961 3395.22 707.26 3368.89 697.984C3342.38 688.662 3314.86 684.33 3289.2 685.413C3263.66 686.543 3238.45 691.628 3212 700.998C3188.88 709.19 3166.89 719.831 3140.95 733.202C3096 756.414 3038.03 782.168 2987.96 775.483C2962.75 772.093 2941.54 762.629 2921.19 745.585C2911.6 737.581 2902.35 728.164 2890.17 714.134C2885.94 709.237 2881.82 704.152 2877.43 698.832C2875.51 696.525 2873.65 694.17 2871.67 691.816C2834 646.146 2788.66 608.621 2747.22 588.846C2734.92 582.961 2722.69 578.347 2710.9 575.051C2672.72 564.41 2639 563.939 2603.3 563.469C2564.51 562.951 2524.35 562.433 2477.49 547.602C2429.45 532.488 2384.05 501.319 2340.06 471.186C2328.56 463.276 2316.66 455.131 2304.93 447.409C2222.37 392.982 2125.66 356.116 2017.44 337.801C1967.03 329.279 1914.08 324.853 1860 324.617C1807.89 324.382 1754.15 328.101 1700.4 335.588L1701.25 339.778C1931.33 307.668 2144.61 347.076 2301.77 450.705C2313.45 458.38 2325.35 466.525 2336.79 474.435C2381.06 504.803 2426.85 536.208 2475.69 551.604C2523.34 566.717 2563.94 567.235 2603.25 567.753C2638.55 568.224 2671.88 568.648 2709.32 579.1C2720.77 582.302 2732.72 586.822 2744.74 592.566C2785.51 612.058 2830.28 649.112 2867.5 694.265C2869.47 696.619 2871.34 698.973 2873.25 701.28C2877.65 706.647 2881.77 711.732 2886.05 716.676C2898.35 730.942 2907.82 740.5 2917.58 748.645C2938.44 766.066 2961.17 776.236 2987.11 779.72C2992.86 780.473 2998.73 780.85 3004.65 780.85C3051.85 780.85 3103 757.827 3143.6 736.875C3190.85 712.486 3234.45 692.099 3289.43 689.698C3339.79 687.532 3396.69 707.495 3434.47 740.641C3475.3 776.424 3504.57 819.317 3532.82 860.75C3543.31 876.099 3554.13 892.013 3565.47 907.315C3589.44 939.849 3615.49 966.78 3642.95 987.355C3676.73 1012.64 3712.65 1028.36 3749.76 1034.06Z" fill="#F1EFE6"/>
<path d="M3749.65 1040.46L3750.66 1036.32C3682.99 1025.12 3620 982.318 3563.44 909.104C3551.48 893.613 3539.92 877.558 3528.76 862.021C3498.36 819.788 3466.95 776.142 3424.15 739.464C3385.13 706.083 3328.96 685.649 3277.47 686.166C3251.82 686.449 3226.5 690.451 3200.1 698.502C3173.54 706.553 3148.79 717.759 3128.03 727.646C3076.89 752.035 3023.14 773.976 2976.23 769.456C2950.85 767.008 2929.19 758.815 2908.05 743.749C2897.45 736.168 2887.3 727.176 2875.11 714.652C2869.19 708.531 2863.44 701.986 2857.35 695.112L2855.77 693.323C2826.62 660.318 2781.95 615.636 2734.36 590.306C2722.57 584.044 2710.9 578.912 2699.62 575.004C2662.57 562.244 2629.36 559.043 2594.17 555.606C2556.72 551.98 2518.04 548.214 2473.15 532.064C2427.47 515.679 2383.77 485.452 2341.53 456.261C2329.35 447.833 2316.77 439.17 2304.37 430.93C2222.43 376.597 2127.3 339.26 2021.62 319.862C1971.88 310.728 1919.77 305.69 1866.76 304.842C1815.22 303.995 1762.27 307.102 1709.37 314.118L1710.16 318.308C1757.42 312.046 1804.11 308.986 1849.85 308.986C2020.32 308.986 2177.15 351.972 2301.27 434.32C2313.62 442.513 2326.19 451.176 2338.32 459.604C2380.84 489.031 2424.82 519.446 2471.18 536.066C2516.68 552.498 2555.82 556.265 2593.6 559.937C2628.4 563.327 2661.33 566.482 2697.7 579.053C2708.7 582.867 2720.15 587.857 2731.65 593.978C2778.57 618.979 2822.84 663.237 2851.71 695.96L2853.29 697.702C2859.38 704.623 2865.19 711.167 2871.17 717.382C2883.52 730.142 2893.89 739.323 2904.72 747.045C2926.38 762.488 2949.55 771.198 2975.61 773.741C2998.67 775.953 3024.78 772.281 3055.46 762.488C3081.79 754.06 3107.11 742.572 3130.52 731.413C3181.21 707.213 3225.65 691.016 3277.47 690.498C3327.61 689.98 3382.36 709.943 3420.43 742.525C3462.84 778.826 3494.08 822.283 3524.3 864.281C3535.53 879.818 3547.09 895.92 3559.1 911.458C3616.5 985.613 3680.62 1029.02 3749.65 1040.46Z" fill="#F1EFE6"/>
<path d="M3749.59 1046.87L3750.66 1042.72C3681.81 1030.53 3616.67 986.932 3557.07 913.059C3544.38 897.38 3532.08 881.089 3520.19 865.364C3487.87 822.613 3454.49 778.402 3410.11 741.253C3391.16 725.386 3367.81 711.968 3342.66 702.457C3317.29 692.852 3290.73 687.485 3265.8 686.873C3207.21 685.46 3158.77 702.928 3115.23 722.044C3070.23 741.771 3014.29 766.301 2964.66 763.335C2939.34 761.829 2916.56 754.813 2895.08 741.818C2883.52 734.85 2872.46 726.328 2860.23 715.028C2853.12 708.484 2846.35 701.421 2840.09 694.736C2803.44 655.939 2763.68 616.578 2721.73 591.671C2710.5 585.033 2699.34 579.383 2688.51 574.91C2652.31 559.89 2619.37 553.77 2584.47 547.319C2548.6 540.681 2511.55 533.806 2468.98 516.433C2425.89 498.965 2384.16 469.821 2343.79 441.665C2330.76 432.578 2317.34 423.209 2304.03 414.357C2222.71 360.118 2129.16 322.263 2025.96 301.829C1976.9 292.13 1925.64 286.433 1873.7 284.927C1822.72 283.467 1770.5 286.009 1718.51 292.46L1719.24 296.65C1936.63 269.53 2143.2 312.517 2300.87 417.653C2314.12 426.458 2327.54 435.827 2340.51 444.914C2381.12 473.258 2423.13 502.543 2466.78 520.247C2509.92 537.809 2547.25 544.73 2583.4 551.463C2617.96 557.866 2650.62 563.939 2686.26 578.723C2696.8 583.102 2707.74 588.611 2718.79 595.155C2760.24 619.78 2799.66 658.811 2836.15 697.372C2842.52 704.105 2849.29 711.215 2856.5 717.853C2868.97 729.389 2880.3 738.052 2892.14 745.208C2914.42 758.674 2938.05 765.972 2964.38 767.526C2967.2 767.714 2970.08 767.761 2972.95 767.761C3021.73 767.761 3074.69 744.549 3117.66 725.716C3160.63 706.883 3208.28 689.698 3265.74 691.016C3314.86 692.193 3368.83 712.533 3406.61 744.125C3450.6 780.897 3483.87 824.92 3516.01 867.483C3527.91 883.255 3540.26 899.546 3552.95 915.319C3579.96 948.748 3608.33 976.338 3637.31 997.337C3673.01 1023.37 3710.85 1039.99 3749.59 1046.87Z" fill="#F1EFE6"/>
<path d="M3749.48 1053.22L3750.61 1049.08C3679.61 1035.76 3614.19 992.534 3550.64 917.014C3537.27 901.1 3524.19 884.574 3511.56 868.612C3477.38 825.296 3442.03 780.52 3396.01 742.995C3357.1 711.215 3303.98 690.498 3253.96 687.579C3228.02 686.072 3202.58 687.956 3176.25 693.37C3153.18 698.125 3129.67 705.423 3102.21 716.394C3099.1 717.665 3095.89 718.936 3092.68 720.207C3048.46 738.005 2998.33 758.156 2952.77 757.214C2927.05 756.697 2903.76 751.047 2881.71 739.888C2869.31 733.626 2857.29 725.669 2844.89 715.452C2837.33 709.237 2830.06 702.222 2823.91 696.195C2819.51 691.816 2815.11 687.438 2810.49 682.776C2779.53 651.796 2744.4 616.719 2708.59 593.084C2697.87 586.068 2687.21 579.9 2676.95 574.863C2641.31 557.301 2608.27 548.12 2573.3 538.373C2539.35 528.91 2504.28 519.117 2464.35 500.848C2424.09 482.486 2384.56 454.613 2346.32 427.682C2332.23 417.747 2317.68 407.483 2303.24 397.831C2222.49 343.639 2130.51 305.313 2029.91 283.844C1981.52 273.532 1931.11 267.223 1880.18 265.058C1829.83 262.939 1778.34 264.916 1727.19 270.896L1727.87 275.086C1938.89 250.415 2142.07 295.191 2300.03 401.127C2314.41 410.779 2328.95 420.996 2343 430.93C2381.4 458.003 2421.16 486.017 2461.87 504.568C2502.19 523.024 2537.49 532.865 2571.67 542.375C2606.35 552.027 2639.11 561.161 2674.3 578.488C2684.4 583.479 2694.88 589.505 2705.37 596.427C2740.79 619.78 2775.69 654.715 2806.48 685.507C2811.11 690.168 2815.51 694.547 2819.96 698.926C2826.17 705.047 2833.55 712.109 2841.22 718.465C2853.91 728.871 2866.2 737.063 2878.95 743.513C2901.79 755.049 2925.87 760.887 2952.48 761.452C2999.23 762.394 3049.93 742.007 3094.71 724.021C3097.92 722.75 3101.08 721.479 3104.18 720.207C3161.02 697.466 3205.63 688.991 3253.39 691.769C3302.23 694.641 3354.11 714.887 3392.23 746.009C3437.85 783.251 3473.04 827.839 3507.1 870.967C3519.74 886.975 3532.82 903.501 3546.24 919.509C3575.17 953.879 3603.87 980.999 3634.04 1002.47C3671.15 1028.74 3709.89 1045.83 3749.48 1053.22Z" fill="#F1EFE6"/>
<path d="M3749.36 1059.63L3750.55 1055.48C3678.31 1041.17 3610.81 997.196 3544.21 921.016C3530.05 904.866 3516.3 888.058 3502.93 871.861C3466.84 828.027 3429.56 782.686 3381.97 744.737C3343.34 713.945 3291.12 692.805 3242.23 688.238C3216.12 685.79 3190.63 686.637 3164.35 690.781C3140.61 694.547 3116.08 701.092 3089.29 710.744C3082.81 713.098 3076.32 715.499 3069.44 718.042C3028.78 733.155 2982.77 750.34 2941.09 751.094C2914.81 751.612 2891.07 747.28 2868.63 737.958C2855.32 732.449 2842.63 725.198 2829.89 715.876C2823.23 711.026 2816.52 705.376 2808.12 697.655C2796.67 687.108 2785.34 675.949 2773.33 664.132C2748.29 639.507 2722.35 613.988 2695.84 594.543C2685.69 587.104 2675.54 580.465 2665.73 574.816C2630.09 554.24 2596.42 541.575 2560.78 528.156C2529.26 516.292 2496.67 504.003 2460.12 485.264C2422.96 466.337 2386.08 440.017 2350.33 414.593C2334.76 403.528 2318.75 392.087 2302.79 381.305C2222.54 327.16 2132.14 288.316 2034.14 265.858C1937.99 243.823 1837.78 238.267 1736.21 249.332L1736.89 253.522C1941.48 231.205 2141.28 277.77 2299.57 384.601C2315.48 395.336 2331.49 406.73 2347.06 417.794C2382.92 443.36 2419.97 469.774 2457.47 488.889C2494.3 507.722 2527.06 520.058 2558.7 532.017C2594.11 545.389 2627.55 557.96 2662.85 578.3C2672.5 583.855 2682.48 590.4 2692.52 597.698C2718.79 616.955 2744.57 642.285 2769.49 666.815C2781 678.115 2792.89 689.839 2804.4 700.433C2812.97 708.295 2819.85 714.039 2826.62 718.983C2839.7 728.588 2852.73 735.98 2866.43 741.677C2889.66 751.329 2914.14 755.755 2941.32 755.237C2984.01 754.437 3030.59 737.11 3071.64 721.808C3078.52 719.266 3085.01 716.817 3091.44 714.51C3146.47 694.594 3192.83 687.72 3241.72 692.334C3289.54 696.807 3340.63 717.524 3378.47 747.704C3425.67 785.37 3462.84 830.475 3498.76 874.121C3512.12 890.365 3525.94 907.173 3540.15 923.37C3607.48 1000.59 3675.94 1045.08 3749.36 1059.63Z" fill="#F1EFE6"/>
<path d="M3749.31 1066.03L3750.55 1061.93C3677.07 1046.68 3607.54 1001.9 3537.84 925.018C3522.95 908.586 3508.34 891.542 3494.25 875.016C3456.35 830.664 3417.1 784.805 3367.93 746.48C3329.02 716.205 3278.94 695.206 3230.56 688.944C3179.69 682.353 3130.74 687.485 3076.49 705.141C3066.68 708.342 3056.7 711.78 3046.21 715.452C3007.47 728.918 2967.37 742.854 2929.48 745.067C2902.52 746.668 2878.33 743.749 2855.55 736.168C2841.34 731.46 2828.03 724.963 2814.89 716.394C2807.78 711.732 2800.56 706.271 2792.27 699.161C2775.19 684.471 2758.16 667.427 2741.63 650.948C2722.57 631.88 2702.84 612.152 2683.04 596.05C2673.46 588.234 2663.81 581.125 2654.51 574.863C2617.97 550.38 2582.61 533.43 2545.22 515.538C2517.08 502.025 2487.98 488.089 2455.84 469.774C2422.4 450.799 2388.67 426.458 2356.14 402.916C2338.6 390.251 2320.44 377.115 2302.34 364.873C2222.54 310.681 2133.78 271.367 2038.42 247.966C1943.29 224.613 1844.66 217.833 1745.29 227.862L1745.91 232.052C1943.96 212.042 2140.43 260.396 2299.12 368.169C2317.17 380.411 2335.27 393.5 2352.81 406.118C2385.52 429.706 2419.29 454.142 2453.02 473.258C2485.33 491.62 2514.48 505.651 2542.74 519.164C2579.96 537.008 2615.09 553.864 2651.35 578.111C2660.54 584.279 2670.07 591.295 2679.55 599.016C2699.17 614.977 2718.79 634.611 2737.8 653.585C2754.38 670.158 2771.52 687.249 2788.72 702.08C2797.18 709.331 2804.57 714.887 2811.84 719.689C2825.38 728.541 2839.08 735.18 2853.74 740.076C2877.26 747.892 2902.18 750.905 2929.93 749.305C2968.61 747.045 3009.1 732.967 3048.24 719.407C3058.73 715.782 3068.65 712.297 3078.41 709.143C3131.81 691.769 3179.91 686.731 3229.82 693.182C3277.25 699.35 3326.37 719.925 3364.54 749.634C3413.38 787.63 3452.4 833.347 3490.19 877.511C3504.34 894.037 3518.95 911.128 3533.83 927.607C3565.81 962.872 3596.77 990.651 3628.46 1012.54C3667.43 1039.48 3708.09 1057.46 3749.31 1066.03Z" fill="#F1EFE6"/>
<path d="M3749.2 1072.43L3750.49 1068.34C3674.76 1051.86 3605.11 1007.6 3531.41 929.02C3515.73 912.305 3500.34 894.979 3485.5 878.17C3445.75 833.3 3404.64 786.924 3353.89 748.316C3315.26 718.936 3266.03 697.56 3218.83 689.698C3167.17 681.081 3116.42 684.33 3063.63 699.538C3050.27 703.399 3036.79 707.825 3022.47 712.486C2987.73 723.88 2951.81 735.603 2917.8 738.993C2890 741.724 2865.36 740.218 2842.41 734.285C2827.35 730.424 2813.42 724.68 2799.83 716.817C2792.27 712.439 2784.6 707.165 2776.43 700.621C2754.55 683.106 2733.85 661.636 2713.83 640.826C2698.94 625.335 2684.85 610.74 2670.24 597.509C2661.16 589.317 2652.08 581.69 2643.23 574.863C2604.09 544.635 2565.13 521.847 2523.85 497.741C2500.89 484.322 2477.1 470.433 2451.49 454.236C2422.62 436.062 2393.24 414.451 2364.76 393.547C2344.24 378.48 2323.03 362.896 2301.77 348.394C2222.43 294.155 2135.19 254.323 2042.54 230.028C1948.42 205.309 1851.42 197.352 1754.2 206.345L1754.77 210.536C1780.03 208.182 1805.35 207.052 1830.56 207.052C1996.63 207.052 2160.4 257.289 2298.56 351.69C2319.76 366.144 2340.91 381.729 2361.44 396.748C2389.97 417.7 2419.41 439.358 2448.45 457.626C2474.11 473.823 2497.91 487.759 2520.91 501.178C2562.02 525.19 2600.88 547.931 2639.73 577.97C2648.47 584.75 2657.5 592.283 2666.46 600.382C2680.96 613.471 2695 628.066 2709.83 643.462C2729.96 664.367 2750.77 685.978 2772.87 703.681C2781.28 710.367 2789.17 715.829 2796.9 720.302C2810.94 728.447 2825.32 734.332 2840.88 738.334C2864.51 744.408 2889.83 746.009 2918.37 743.184C2953.05 739.747 2989.25 727.882 3024.27 716.441C3038.54 711.78 3051.96 707.354 3065.27 703.54C3117.15 688.568 3167.06 685.366 3217.81 693.841C3264.16 701.563 3312.49 722.561 3350.45 751.423C3400.86 789.749 3441.8 835.984 3481.39 880.666C3496.28 897.474 3511.67 914.848 3527.4 931.609C3560.9 967.298 3592.99 995.407 3625.47 1017.54C3665.51 1044.84 3707.18 1063.3 3749.2 1072.43Z" fill="#F1EFE6"/>
<path d="M3749.08 1078.79L3750.44 1074.69C3673.4 1057.23 3601.79 1012.22 3524.98 932.975C3508.51 915.978 3492.33 898.275 3476.65 881.184C3435.09 835.843 3392.18 788.901 3339.79 750.011C3300.82 721.102 3253.68 699.915 3207.04 690.357C3154.03 679.528 3102.88 680.658 3050.72 693.888C3033.58 698.22 3015.47 703.87 2997.99 709.331C2967.54 718.842 2936.02 728.682 2906.07 732.873C2877.26 736.922 2852.11 736.733 2829.27 732.402C2813.59 729.483 2799.04 724.492 2784.72 717.241C2776.65 713.098 2768.7 708.107 2760.47 702.033C2734.3 682.635 2711.24 657.258 2688.96 632.727C2678.14 620.815 2667.87 609.563 2657.33 598.922C2648.81 590.353 2640.24 582.255 2631.84 574.816C2586.61 534.654 2541.61 503.72 2489.45 467.89C2475.8 458.521 2461.76 448.869 2447.15 438.652C2424.65 422.973 2402.55 406.306 2379.14 388.697C2353.88 369.676 2327.71 349.995 2301.27 331.821C2222.26 277.487 2136.66 237.184 2046.77 211.995C1953.72 185.911 1858.3 176.73 1763.23 184.734L1763.73 188.972C1948.64 173.434 2138.4 225.32 2298.05 335.117C2324.39 353.244 2350.5 372.877 2375.7 391.852C2398.09 408.707 2421.32 426.175 2443.88 441.901C2458.49 452.118 2472.59 461.77 2486.23 471.139C2538.28 506.875 2583.17 537.761 2628.17 577.688C2636.46 585.08 2644.98 593.131 2653.44 601.606C2663.92 612.152 2674.13 623.405 2684.96 635.27C2707.4 659.988 2730.64 685.507 2757.14 705.188C2765.6 711.403 2773.72 716.535 2782.12 720.819C2796.9 728.353 2811.95 733.485 2828.2 736.498C2851.71 740.971 2877.48 741.159 2906.98 737.016C2937.43 732.778 2969.18 722.844 2999.85 713.239C3018.07 707.542 3035.27 702.175 3052.24 697.89C3103.56 684.895 3153.81 683.765 3205.91 694.406C3251.76 703.775 3298.17 724.633 3336.52 753.118C3388.4 791.82 3431.26 838.574 3472.65 883.773C3488.32 900.911 3504.57 918.614 3521.03 935.658C3556.05 971.818 3589.27 1000.26 3622.54 1022.57C3664.27 1050.59 3705.66 1068.95 3749.08 1078.79Z" fill="#F1EFE6"/>
<path d="M3749.03 1085.19L3750.38 1081.1C3647.46 1056.9 3568.8 987.214 3518.55 936.93C3501.24 919.603 3484.21 901.57 3467.74 884.15C3424.43 838.291 3379.66 790.879 3325.69 751.753C3286.89 723.644 3240.59 702.08 3195.25 691.063C3141.79 678.068 3088.84 677.127 3037.75 688.238C3016.38 692.899 2994.1 699.632 2972.56 706.177C2946.68 714.039 2919.95 722.138 2894.29 726.752C2864.46 732.166 2838.85 733.391 2816.01 730.518C2799.49 728.494 2784.32 724.256 2769.55 717.665C2761.03 713.851 2752.86 709.19 2744.51 703.493C2714.56 682.918 2690.15 654.056 2666.58 626.136C2658.96 617.143 2651.8 608.621 2644.36 600.334C2636.69 591.718 2628.62 583.149 2620.39 574.768C2564.73 518.363 2504.56 470.81 2442.64 423.068C2430.63 413.792 2418.28 404.14 2406.27 394.771C2372.21 368.075 2336.91 340.484 2300.59 315.342C2221.86 260.82 2137.84 220.046 2050.77 194.057C1958.85 166.56 1865.07 156.202 1772.08 163.17L1772.53 167.408C1953.38 153.801 2134.85 206.063 2297.37 318.591C2333.58 343.639 2368.77 371.229 2402.83 397.878C2414.78 407.248 2427.19 416.947 2439.2 426.222C2500.95 473.87 2561.01 521.282 2616.44 577.499C2624.56 585.786 2632.57 594.355 2640.24 602.924C2647.63 611.163 2654.79 619.638 2662.35 628.631C2686.14 656.787 2710.73 685.837 2741.18 706.789C2749.75 712.674 2758.21 717.476 2767.07 721.431C2782.35 728.258 2798.14 732.637 2815.23 734.756C2838.68 737.722 2864.91 736.451 2895.36 730.942C2921.36 726.234 2948.25 718.089 2974.31 710.179C2995.74 703.681 3017.9 696.948 3039.05 692.334C3089.24 681.411 3141.29 682.353 3193.84 695.112C3238.51 705.941 3284.13 727.223 3322.36 754.954C3375.99 793.845 3420.6 841.116 3463.79 886.786C3480.26 904.254 3497.35 922.287 3514.66 939.66C3551.2 976.244 3585.54 1005.01 3619.61 1027.56C3662.41 1055.95 3704.7 1074.79 3749.03 1085.19Z" fill="#F1EFE6"/>
<path d="M3748.91 1091.6L3750.32 1087.55C3645.66 1062.03 3564.29 991.687 3512.18 940.979C3494.02 923.323 3476.14 904.96 3458.89 887.163C3413.83 840.834 3367.25 792.903 3311.7 753.589C3272.23 725.622 3227.9 704.293 3183.58 691.863C3129.39 676.467 3075.98 673.36 3024.95 682.729C2998.9 687.485 2972.11 695.536 2946.22 703.352C2925.3 709.661 2903.59 716.158 2882.67 720.819C2851.49 727.835 2826.17 730.377 2802.93 728.823C2785.62 727.693 2769.77 724.209 2754.49 718.277C2745.58 714.793 2737.07 710.461 2728.61 705.094C2695.22 683.907 2670.41 651.89 2646.39 620.91C2641.54 614.648 2636.46 608.15 2631.5 601.935C2624.28 592.942 2616.72 583.808 2609.05 574.91C2560.61 518.693 2506.36 465.536 2438.3 407.672C2398.26 373.678 2350.55 334.128 2300.08 298.957C2221.58 244.247 2139.14 202.908 2055 176.212C1964.15 147.351 1871.95 135.768 1781.05 141.795L1781.44 146.032C1955.47 134.309 2133.67 188.36 2296.81 302.065C2347.11 337.141 2394.76 376.55 2434.69 410.496C2502.53 468.22 2556.67 521.188 2604.94 577.264C2612.55 586.163 2620.11 595.202 2627.27 604.195C2632.23 610.363 2637.25 616.861 2642.1 623.123C2666.35 654.386 2691.44 686.731 2725.56 708.39C2734.3 713.945 2743.1 718.418 2752.35 722.044C2768.19 728.259 2784.6 731.837 2802.54 733.014C2826.33 734.615 2852.22 732.025 2883.97 724.869C2905.11 720.16 2926.88 713.616 2947.92 707.307C2973.69 699.585 3000.31 691.581 3026.02 686.826C3076.15 677.644 3128.6 680.658 3181.94 695.818C3225.71 708.107 3269.47 729.153 3308.43 756.791C3363.64 795.869 3410.05 843.659 3455 889.847C3472.31 907.644 3490.24 926.101 3508.4 943.757C3546.47 980.764 3581.88 1009.86 3616.79 1032.65C3660.49 1061.32 3703.74 1080.58 3748.91 1091.6Z" fill="#F1EFE6"/>
<path d="M3748.86 1098L3750.32 1093.95C3645.09 1067.44 3564.34 1000.4 3505.81 944.981C3486.8 926.995 3468.02 908.209 3449.92 890.035C3403.17 843.235 3354.79 794.834 3297.66 755.331C3255.59 726.281 3209.18 703.634 3163.39 689.933C3111.06 674.254 3060.19 669.923 3012.09 677.079C2980.4 681.788 2948.42 691.581 2917.52 701.045C2855.43 720.066 2796.78 738.052 2739.43 718.654C2687.5 701.092 2657.21 658.058 2627.95 616.437C2624.9 612.105 2621.74 607.632 2618.64 603.301C2571.84 537.808 2519.45 476.13 2463 420.007C2401.02 358.376 2335.38 304.89 2268.05 260.961C2193.78 212.56 2117.48 175.977 2041.24 152.247C1957.5 126.163 1873.02 115.334 1790.07 120.089L1790.41 124.327C1803.43 123.574 1816.4 123.197 1829.2 123.197C2237.03 123.197 2531.74 490.019 2614.24 605.466C2617.34 609.798 2620.45 614.271 2623.49 618.555C2653.21 660.789 2683.94 704.435 2737.46 722.561C2764.08 731.554 2793.57 733.438 2827.69 728.306C2857.97 723.738 2889.1 714.228 2919.21 705C2949.89 695.583 2981.64 685.884 3012.94 681.223C3101.58 668.039 3204.16 696.195 3294.39 758.58C3351.18 797.847 3399.39 846.107 3445.97 892.766C3464.13 910.94 3482.91 929.773 3501.97 947.806C3542.07 985.754 3577.59 1014.33 3613.8 1037.69C3658.63 1066.69 3702.84 1086.42 3748.86 1098Z" fill="#F1EFE6"/>
</g>
<defs>
<clipPath id="clip0_2785_4">
<rect width="2300" height="730" fill="white"/>
</clipPath>
</defs>
</svg>
