<svg width="2300" height="670" viewBox="0 0 2300 670" fill="none" xmlns="http://www.w3.org/2000/svg">
<g clip-path="url(#clip0_2665_310)">
<path d="M-265.846 -693.527C-266.681 -694.227 -267.461 -694.88 -268.241 -695.626L-263.06 -699.682C-237.77 -677.208 -200.78 -667.044 -156.159 -670.261C-118.056 -672.965 -74.9389 -685.741 -38.0053 -705.277C-18.5637 -715.581 0.710799 -727.331 19.3725 -738.661C68.0602 -768.315 118.475 -799.042 178.359 -807.761C221.811 -814.102 268.437 -806.875 309.604 -787.339C350.827 -767.849 382.19 -738.148 398.122 -703.738C423.023 -649.792 412.495 -590.903 402.356 -533.927C398.902 -514.717 395.393 -494.901 393.276 -475.597C388.875 -435.452 395.783 -393.676 412.216 -361.084C425.586 -334.414 451.991 -300.563 501.792 -290.585C553.99 -280.095 607.412 -302.522 643.009 -323.177C658.217 -331.989 673.035 -341.781 687.296 -351.292C712.754 -368.124 739.103 -385.609 768.572 -398.152C795.534 -409.622 825.225 -416.476 856.867 -418.527C887.283 -420.485 917.977 -417.921 948.226 -410.88C978.419 -403.887 1006.33 -392.836 1031.17 -378.009C1057.02 -362.623 1078.25 -343.926 1094.29 -322.478C1135.79 -266.946 1144.09 -198.639 1152.11 -132.617C1161.69 -53.7253 1170.77 20.7364 1231.33 75.5219C1298.29 136.136 1402.9 147.419 1504.01 158.376C1519.28 160.055 1534.98 161.734 1550.25 163.599C1632.19 173.53 1712.8 195.584 1789.79 229.155C1860.2 259.835 1929.55 301.005 1995.9 351.501C2055.51 396.822 2114.33 451.001 2170.93 512.454C2220.29 566.167 2269.53 627.248 2317.27 693.969L2311.2 697C2221.9 571.996 2129.49 469.465 2033.23 388.895C1882.54 262.772 1722.27 190.362 1549.25 169.38C1534.09 167.515 1518.38 165.836 1503.12 164.158C1403.68 153.387 1300.96 142.29 1232.16 84.7073C1230.1 82.9821 1228.1 81.2103 1226.09 79.4385C1198.13 54.1672 1178.46 22.1352 1165.76 -18.4294C1154.51 -54.5179 1149.72 -93.9635 1145.04 -132.104C1137.07 -197.52 1128.88 -265.081 1088.22 -319.447C1024.21 -405.099 879.261 -438.763 771.691 -392.929C742.835 -380.62 716.765 -363.369 691.585 -346.676C677.157 -337.118 662.228 -327.233 646.908 -318.328C610.031 -296.973 554.714 -273.8 499.954 -284.85C458.286 -293.243 425.586 -318.841 405.531 -358.846C388.708 -392.323 381.577 -435.126 386.09 -476.204C388.207 -495.6 391.772 -515.556 395.226 -534.859C405.253 -591.09 415.614 -649.186 391.382 -701.64C359.573 -770.6 266.487 -814.662 179.474 -801.979C121.204 -793.493 71.514 -763.187 23.4949 -733.905C4.77742 -722.529 -14.6085 -710.686 -34.273 -700.288C-72.1535 -680.239 -116.385 -667.184 -155.602 -664.386C-201.115 -661.076 -239.106 -671.147 -265.846 -693.527Z" fill="#F1EFE6"/>
<path d="M-275.316 -688.865C-275.427 -688.958 -275.594 -689.098 -275.706 -689.191L-270.692 -693.387C-270.581 -693.294 -270.469 -693.201 -270.358 -693.108C-212.702 -644.85 -111.371 -659.817 -36.4457 -696.138C-16.0571 -706.023 4.16453 -717.26 23.6619 -728.17C74.9677 -756.752 128.056 -786.266 190.002 -794.473C233.063 -800.208 279.133 -792.981 319.854 -774.19C360.632 -755.353 392.217 -726.678 408.818 -693.387C435.334 -640.514 427.09 -582.324 419.235 -526.047C416.617 -507.816 414.054 -488.979 412.606 -470.608C406.478 -395.354 437.618 -305.785 520.398 -287.135C560.786 -277.95 607.078 -287.135 657.938 -314.411C673.09 -322.524 687.908 -331.663 702.281 -340.522C712.531 -346.863 723.226 -353.391 733.978 -359.592C752.083 -369.989 767.458 -377.636 782.387 -383.698C824.613 -400.763 873.467 -407.057 923.715 -401.928C972.18 -396.986 1019.2 -381.133 1056.07 -357.261C1075.68 -344.578 1092.34 -329.798 1105.65 -313.339C1147.82 -261.071 1158.57 -196.494 1168.88 -134.062C1181.36 -59.1805 1193.06 11.5045 1254.06 63.5857C1254.56 64.0054 1255.11 64.4717 1255.62 64.8913C1322.74 121.076 1424.74 131.939 1523.45 142.384C1538.88 144.016 1554.87 145.741 1570.3 147.559C1651.47 157.211 1731.46 178.659 1807.95 211.25C1878.03 241.091 1947.1 281.096 2013.06 330.147C2072.61 374.395 2131.38 427.222 2187.7 487.136C2237.33 539.964 2286.52 599.878 2333.87 665.154L2327.86 668.232C2104.36 360.034 1849.17 186.818 1569.36 153.481C1554.04 151.662 1538.05 149.937 1522.62 148.305C1422.79 137.674 1319.57 126.717 1250.71 69.0876C1250.16 68.6213 1249.65 68.2017 1249.1 67.7354C1220.97 43.7231 1200.52 13.2762 1186.59 -25.3301C1174.23 -59.5536 1167.99 -97.0408 1161.97 -133.223C1151.72 -194.955 1141.08 -258.88 1099.86 -309.982C1086.99 -325.881 1070.89 -340.195 1051.84 -352.505C977.193 -400.809 867.674 -411.44 785.618 -378.289C770.967 -372.367 755.871 -364.861 738.1 -354.65C727.404 -348.495 716.82 -341.967 706.57 -335.626C692.142 -326.721 677.157 -317.535 661.893 -309.329C638.385 -296.74 615.267 -287.741 593.318 -282.706C566.746 -276.598 541.678 -276.131 518.616 -281.353C497.67 -286.109 479.008 -295.295 463.076 -308.63C448.37 -320.939 436.114 -336.699 426.533 -355.629C409.932 -388.453 402.356 -430.51 405.587 -470.981C406.98 -489.492 409.653 -508.422 412.272 -526.746C420.126 -582.278 428.148 -639.721 402.356 -691.149C369.489 -757.172 276.737 -800.021 191.172 -788.644C130.73 -780.578 78.3101 -751.437 27.6727 -723.228C8.06396 -712.318 -12.269 -700.988 -32.8247 -691.056C-73.2678 -671.473 -117.945 -659.351 -158.666 -657.066C-206.797 -654.175 -247.073 -665.225 -275.316 -688.865Z" fill="#F1EFE6"/>
<path d="M-283.171 -682.757L-278.268 -687.046C-214.261 -635.525 -107.082 -654.735 -34.7744 -686.906C-13.5501 -696.372 7.61847 -707.096 28.0628 -717.493C82.0426 -744.956 137.805 -773.351 201.812 -781.044C290.051 -791.675 383.694 -749.478 419.625 -682.943C447.868 -630.675 442.019 -572.626 436.281 -516.535C434.61 -499.75 432.828 -482.405 431.992 -465.386C430.042 -425.708 437.841 -386.355 453.941 -354.603C472.825 -317.349 502.238 -292.73 539.06 -283.452C577.999 -273.52 623.066 -280.934 672.979 -305.459C688.131 -312.919 703.061 -321.405 717.545 -329.611C727.516 -335.253 737.766 -341.128 748.183 -346.676C766.288 -356.328 781.607 -363.462 796.314 -369.057C838.261 -385.05 886.559 -391.064 935.915 -386.495C984.547 -381.972 1029.89 -367.705 1067.1 -345.138C1086.66 -333.248 1103.42 -319.4 1116.96 -303.967C1159.74 -254.916 1172.95 -194.069 1185.65 -135.227C1200.97 -64.4026 1215.45 2.55233 1276.84 51.8826C1344.08 105.922 1445.02 116.46 1542.73 126.624C1558.38 128.256 1574.65 129.935 1590.25 131.8C1670.69 141.218 1750.01 162.013 1825.94 193.579C1895.74 222.627 1964.43 261.467 2030.16 309.025C2089.77 352.201 2148.37 403.676 2204.47 462.005C2254.38 513.946 2303.46 572.649 2350.47 636.526L2344.4 639.65C2123.47 339.472 1869.45 170.592 1589.3 137.721C1573.7 135.856 1557.55 134.178 1541.89 132.546C1443.01 122.241 1340.85 111.611 1271.94 56.1723C1243.58 33.3722 1222.41 4.55731 1207.26 -31.9975C1193.78 -64.4492 1186.09 -99.8849 1178.68 -134.155C1166.09 -192.344 1153.12 -252.445 1111.28 -300.423C1098.19 -315.39 1081.92 -328.819 1062.98 -340.289C988.001 -385.702 881.991 -395.074 799.266 -363.602C784.838 -358.146 769.909 -351.153 752.083 -341.641C741.721 -336.139 731.527 -330.311 721.555 -324.669C706.96 -316.37 691.919 -307.79 676.6 -300.284C624.96 -274.872 577.999 -267.272 537.055 -277.763C498.116 -287.601 467.143 -313.339 447.423 -352.318C430.934 -384.863 422.968 -425.101 424.973 -465.666C425.809 -482.778 427.591 -500.216 429.318 -517.048C435.223 -574.957 440.738 -629.65 413.275 -680.519C378.569 -744.723 288.157 -785.427 202.87 -775.216C140.2 -767.709 85.1065 -739.594 31.7952 -712.504C11.2951 -702.06 -9.98489 -691.243 -31.432 -681.684C-105.8 -648.533 -216.378 -628.997 -283.171 -682.757Z" fill="#F1EFE6"/>
<path d="M-290.58 -676.276L-285.789 -680.659C-219.331 -629.51 -111.65 -645.596 -33.1035 -677.675C-10.9879 -686.673 11.1277 -696.978 32.4634 -706.909C89.0057 -733.253 147.498 -760.482 213.677 -767.663C255.736 -772.185 300.858 -765.098 340.577 -747.707C380.463 -730.269 412.383 -703.552 430.543 -672.499C460.681 -620.884 457.115 -563.068 453.662 -507.21C452.715 -491.777 451.768 -475.877 451.489 -460.257C450.765 -421.138 459.177 -382.485 474.942 -351.386C493.659 -314.645 522.348 -289.886 557.889 -279.815C595.546 -269.184 639.388 -274.826 688.131 -296.507C703.45 -303.268 717.934 -310.821 733.309 -318.841C742.779 -323.783 752.639 -328.865 762.611 -333.761C781.05 -342.853 795.756 -349.194 810.351 -354.417C894.636 -384.584 1002.37 -376.004 1078.3 -333.062C1097.8 -322.058 1114.68 -309.143 1128.44 -294.642C1171.89 -248.762 1187.43 -191.645 1202.47 -136.44C1219.91 -72.609 1237.84 -6.58655 1299.68 40.0395C1366.92 90.8152 1466.13 100.933 1562 110.771C1577.99 112.403 1594.48 114.082 1610.36 115.9C1690.07 125.085 1768.73 145.228 1844.04 175.814C1913.57 203.977 1981.92 241.697 2047.26 287.81C2160.63 367.867 2268.25 475.573 2367.07 607.804L2361.06 610.975C2142.74 318.77 1889.84 154.18 1609.3 121.822C1593.42 120.003 1576.99 118.278 1561.05 116.693C1464.07 106.761 1363.74 96.5503 1294.83 44.469C1266.31 22.9278 1244.42 -4.2552 1227.93 -38.7584C1213.28 -69.3917 1204.25 -102.776 1195.4 -135.088C1180.52 -189.687 1165.15 -246.104 1122.7 -290.958C1109.33 -304.946 1093.01 -317.489 1074.12 -328.166C1000.09 -369.99 895.081 -378.336 812.858 -348.961C798.542 -343.879 784.114 -337.585 765.898 -328.679C755.982 -323.83 746.233 -318.748 736.819 -313.852C722.056 -306.159 706.737 -298.186 691.195 -291.332C640.669 -268.811 594.989 -263.123 555.382 -274.266C517.891 -284.851 487.698 -310.775 468.201 -349.101C451.99 -380.947 443.467 -420.439 444.136 -460.351C444.414 -476.064 445.361 -492.056 446.364 -507.536C449.874 -565.213 453.216 -619.672 423.914 -669.935C388.095 -731.341 298.017 -770.833 214.29 -761.835C149.447 -754.841 91.5681 -727.844 35.5829 -701.78C14.1915 -691.802 -7.9797 -681.451 -30.3181 -672.359C-74.7163 -654.222 -122.68 -643.451 -165.24 -642.146C-189.584 -641.353 -212.256 -643.638 -232.589 -648.72C-254.593 -654.455 -274.202 -663.687 -290.58 -676.276Z" fill="#F1EFE6"/>
<path d="M-298.044 -669.841L-293.365 -674.317C-224.4 -623.495 -112.875 -637.949 -31.4321 -668.443C-8.42523 -677.068 14.5816 -686.906 36.8086 -696.371C95.9691 -721.643 157.135 -747.753 225.487 -754.328C311.721 -762.627 402.523 -723.834 441.406 -662.101C473.549 -611.046 472.491 -555.887 471.321 -497.465C471.042 -483.617 470.764 -469.303 470.987 -455.129C471.544 -416.522 480.401 -378.522 495.943 -348.168C514.772 -311.334 541.957 -287.088 576.718 -276.271C613.039 -264.894 655.599 -268.718 703.228 -287.695C718.826 -293.849 733.699 -300.89 749.464 -308.303C758.377 -312.5 767.513 -316.789 776.872 -320.985C789.406 -326.627 806.062 -333.854 824.223 -339.916C865.557 -353.717 912.685 -359.219 960.481 -355.768C1008 -352.365 1052.62 -340.382 1089.33 -321.125C1108.72 -310.961 1125.71 -298.978 1139.75 -285.456C1183.87 -242.747 1201.86 -189.36 1219.24 -137.699C1239.4 -77.7376 1260.24 -15.8183 1322.52 28.1034C1389.87 75.6153 1487.08 85.3603 1581.22 94.7787C1597.43 96.4106 1614.25 98.089 1630.52 99.9541C1709.51 108.906 1787.5 128.396 1862.26 157.957C1931.45 185.28 1999.52 221.835 2064.59 266.502C2178.68 344.927 2286.08 450.022 2383.9 578.99L2377.88 582.16C2162.24 297.975 1910.45 137.675 1629.57 105.782C1613.42 103.917 1596.6 102.239 1580.39 100.607C1485.24 91.0953 1386.92 81.2571 1317.95 32.5796C1312.71 28.8495 1307.7 25.0261 1303.02 21.1095C1250.55 -22.8122 1231.16 -80.3487 1212.44 -136.113C1195.28 -187.122 1177.57 -239.903 1134.45 -281.587C1120.86 -294.642 1104.43 -306.252 1085.6 -316.136C1012.51 -354.37 908.563 -361.737 826.897 -334.414C809.015 -328.492 792.581 -321.358 780.27 -315.81C770.967 -311.66 761.831 -307.371 752.974 -303.221C737.097 -295.714 722.112 -288.674 706.292 -282.426C656.88 -262.796 612.426 -258.88 574.211 -270.816C555.159 -276.784 538.057 -286.715 523.295 -300.377C510.037 -312.686 498.617 -328.026 489.425 -345.977C473.549 -377.077 464.469 -415.823 463.912 -455.175C463.745 -469.396 463.968 -483.757 464.246 -497.698C465.36 -555.328 466.474 -609.787 435.167 -659.49C397.621 -719.078 309.827 -756.566 226.378 -748.546C159.308 -742.112 98.7545 -716.234 40.0953 -691.196C17.8126 -681.684 -5.30564 -671.846 -28.4796 -663.174C-74.8833 -645.782 -124.462 -635.711 -167.913 -634.872C-221.169 -633.66 -264.955 -645.503 -298.044 -669.841Z" fill="#F1EFE6"/>
<path d="M-305.453 -663.453L-300.83 -667.976C-210.975 -604.332 -70.5383 -645.223 -29.7053 -659.257C-5.86283 -667.463 18.091 -676.788 41.2093 -685.881C102.988 -710.079 166.884 -735.024 237.408 -740.993C278.52 -744.443 322.528 -737.542 361.411 -721.41C400.462 -705.23 432.772 -680.519 452.325 -651.75C486.751 -601.115 488.033 -545.769 489.314 -487.161C489.592 -474.991 489.871 -462.449 490.484 -450.093C492.378 -411.953 501.736 -374.652 516.944 -345.045C535.606 -308.63 562.067 -284.337 595.491 -272.774C630.976 -260.512 671.196 -262.47 718.38 -278.929C734.758 -284.524 750.578 -291.238 767.346 -298.279C775.145 -301.543 783.111 -304.946 791.3 -308.257C805.784 -314.132 821.493 -320.286 838.316 -325.415C879.372 -338.144 925.943 -343.366 972.848 -340.475C1019.86 -337.584 1063.98 -326.767 1100.58 -309.189C1120.03 -299.817 1137.07 -288.72 1151.28 -276.271C1196.29 -236.732 1216.68 -186.936 1236.28 -138.725C1259.12 -82.7733 1282.8 -24.9104 1345.41 16.2137C1412.76 60.4618 1508.08 69.8337 1600.27 78.8325C1616.93 80.4645 1634.09 82.1428 1650.69 84.0079C1802.1 100.886 1947.16 155.159 2081.8 245.194C2196.56 321.94 2303.79 424.564 2400.61 550.175L2394.65 553.392C2248.31 363.484 2000.25 128.909 1649.74 89.8363C1633.2 88.0179 1616.04 86.3393 1599.44 84.6608C1506.24 75.5687 1409.92 66.1035 1341.01 20.8297C1333.1 15.6076 1325.75 10.199 1318.95 4.51061C1270.77 -35.8209 1249.88 -87.0629 1229.54 -136.813C1210.1 -184.418 1189.99 -233.608 1146.04 -272.168C1132.34 -284.198 1115.79 -294.968 1096.91 -304.06C1024.93 -338.75 921.932 -345.044 840.656 -319.82C824.111 -314.738 808.625 -308.676 794.252 -302.895C786.119 -299.631 778.153 -296.227 770.41 -293.01C753.531 -285.876 737.654 -279.209 720.998 -273.474C699.105 -265.874 678.104 -261.164 658.662 -259.626C635.043 -257.761 612.927 -260.325 592.65 -267.319C557.387 -279.488 529.757 -304.853 510.26 -342.713C494.717 -372.973 485.136 -411.02 483.186 -449.86C482.573 -462.309 482.295 -474.945 482.016 -487.114C480.679 -544.93 479.454 -599.576 445.918 -648.906C407.258 -705.79 319.743 -742.112 237.91 -735.164C168.61 -729.289 105.272 -704.531 43.9947 -680.565C20.765 -671.473 -3.1889 -662.148 -27.2542 -653.849C-61.5138 -642.052 -114.379 -627.924 -171.256 -627.412C-225.681 -626.805 -270.971 -638.975 -305.453 -663.453Z" fill="#F1EFE6"/>
<path d="M-312.918 -657.019L-308.406 -661.635C-217.938 -599.996 -82.2369 -633.007 -28.0342 -650.025C-3.24476 -657.812 21.5447 -666.717 45.5543 -675.343C110.007 -698.423 176.521 -722.296 249.218 -727.658C333.391 -733.859 421.407 -698.33 463.132 -641.399C500.065 -590.997 503.742 -535.232 507.697 -476.157C508.365 -465.992 509.034 -455.455 509.981 -445.057C512.766 -412.046 528.476 -301.916 614.32 -269.231C648.412 -256.269 687.407 -256.548 733.532 -270.07C750.801 -275.106 767.624 -281.353 785.45 -287.974C792.024 -290.399 798.709 -292.917 805.561 -295.388C820.1 -300.657 835.698 -306.158 852.187 -310.821C936.249 -334.833 1038.02 -329.472 1111.5 -297.16C1130.89 -288.581 1148.1 -278.463 1162.47 -266.993C1208.21 -230.671 1230.94 -184.418 1253 -139.75C1278.62 -87.7157 1305.14 -34.0025 1368.14 4.37071C1435.38 45.355 1528.74 54.3073 1618.99 62.8864C1635.98 64.5183 1653.69 66.1969 1670.63 68.0619C1821.04 84.4743 1965.1 136.975 2098.85 223.933C2214.22 298.954 2321.28 399.013 2417.16 521.406L2411.25 524.67C2266.91 340.358 2020.97 112.496 1669.79 74.0766C1652.86 72.2115 1635.26 70.5332 1618.27 68.9012C1527.07 60.1822 1432.76 51.1833 1364.08 9.26651C1352.93 2.45911 1342.8 -4.81457 1333.72 -12.4146C1290.15 -48.8761 1268.09 -93.7304 1246.59 -137.372C1224.86 -181.481 1202.36 -227.081 1157.74 -262.563C1143.81 -273.66 1127.16 -283.498 1108.33 -291.798C1036.46 -323.41 936.861 -328.632 854.582 -305.086C838.316 -300.517 822.885 -294.968 808.457 -289.793C801.661 -287.368 794.921 -284.804 788.403 -282.426C770.41 -275.758 753.419 -269.464 735.927 -264.335C687.908 -250.254 647.186 -250.021 611.367 -263.682C577.609 -276.551 550.647 -302.009 531.428 -339.356C511.986 -377.077 505.134 -417.315 502.85 -444.498C501.959 -454.942 501.291 -465.48 500.566 -475.691C496.723 -534.02 492.99 -589.085 457.06 -638.182C416.617 -693.294 331.441 -727.658 249.831 -721.643C178.303 -716.421 112.235 -692.735 48.3396 -669.841C24.2187 -661.216 -0.626532 -652.263 -25.5274 -644.477C-61.2354 -633.24 -115.995 -619.858 -174.041 -619.952C-230.249 -619.998 -276.932 -632.494 -312.918 -657.019Z" fill="#F1EFE6"/>
<path d="M-320.383 -650.585L-316.038 -655.247C-222.562 -593.794 -82.4039 -624.661 -26.4744 -640.793C-0.849329 -648.16 24.8872 -656.646 49.7881 -664.806C116.803 -686.766 186.102 -709.52 260.916 -714.229C301.582 -716.747 343.474 -710.126 382.023 -695.112C420.795 -680.006 452.547 -657.812 473.827 -630.955C513.602 -580.599 519.841 -523.995 526.526 -464.034C527.417 -456.108 528.308 -447.995 529.255 -439.835C534.213 -398.385 554.323 -298.465 632.981 -265.547C665.793 -251.792 703.617 -250.347 748.573 -261.118C767.123 -265.547 785.395 -271.422 804.781 -277.67C809.683 -279.255 814.697 -280.84 819.766 -282.472L820.323 -282.659C834.974 -287.275 850.07 -292.077 866.002 -296.18C906.668 -306.811 952.013 -311.474 997.136 -309.702C1043.21 -307.884 1086.55 -299.398 1122.48 -285.083C1141.81 -277.39 1159.08 -268.158 1173.73 -257.667C1220.24 -224.423 1245.42 -181.807 1269.82 -140.589C1298.17 -92.6113 1327.53 -42.9546 1390.87 -7.37891C1458 30.3415 1549.24 38.8276 1637.54 47.0804C1655.09 48.7123 1673.25 50.3908 1690.74 52.2558C1840.15 68.2952 1983.31 118.931 2116.06 202.811C2232.1 276.061 2339 373.649 2433.87 492.778L2427.96 496.042C2285.52 317.138 2041.8 95.8978 1689.85 58.1307C1672.36 56.2657 1654.31 54.5872 1636.76 52.9553C1547.63 44.6558 1455.49 36.0765 1386.92 -2.48317C1371.71 -11.0157 1358.34 -20.3409 1346.53 -30.2256C1308.03 -62.4442 1285.42 -100.678 1263.41 -137.932C1239.35 -178.59 1214.5 -220.646 1169.1 -253.145C1154.9 -263.262 1138.19 -272.215 1119.41 -279.721C1048.94 -307.744 950.342 -311.94 868.064 -290.539C852.299 -286.482 837.258 -281.726 822.774 -277.157L822.217 -276.97C817.148 -275.339 812.19 -273.8 807.288 -272.215C787.734 -265.92 769.296 -259.999 750.411 -255.476C703.617 -244.286 664.177 -245.871 629.639 -260.325C597.273 -273.893 571.203 -299.444 552.095 -336.232C533.099 -372.834 525.3 -412.466 522.069 -439.322C521.067 -447.435 520.175 -455.641 519.284 -463.568C512.766 -522.736 506.583 -578.641 467.755 -627.738C426.198 -680.239 341.301 -713.437 261.251 -708.448C187.439 -703.832 118.697 -681.265 52.1277 -659.397C27.1711 -651.191 1.37896 -642.752 -24.3575 -635.291C-77.5574 -619.951 -130.479 -612.118 -177.44 -612.631C-234.762 -613.144 -282.892 -625.92 -320.383 -650.585Z" fill="#F1EFE6"/>
<path d="M-327.847 -644.15L-323.558 -648.86C-230.472 -589.785 -96.4419 -612.631 -24.803 -631.561C1.71334 -638.555 28.3412 -646.575 54.0777 -654.315C123.711 -675.203 195.74 -696.884 272.726 -700.894C354.894 -705.137 440.014 -672.872 484.69 -620.558C527.863 -569.968 536.776 -512.059 546.246 -450.699C547.082 -445.43 547.918 -440.068 548.753 -434.706C556.775 -384.164 580.784 -294.595 651.81 -261.91C683.452 -247.363 720.107 -244.193 763.837 -252.166C784.225 -255.896 804.725 -261.491 826.395 -267.412C829.013 -268.112 831.632 -268.811 834.306 -269.557C836.59 -270.163 838.818 -270.816 841.102 -271.422C853.636 -274.826 866.616 -278.416 880.152 -281.54C920.762 -291.098 965.495 -295.528 1009.56 -294.269C1055.24 -292.963 1098.19 -285.643 1133.73 -272.961C1153 -266.06 1170.33 -257.807 1185.2 -248.342C1232.55 -218.222 1260.18 -179.149 1286.87 -141.336C1318.01 -97.3674 1350.15 -51.907 1413.77 -19.1755C1480.61 15.3277 1569.75 23.3474 1655.92 31.2272C1674.03 32.8591 1692.8 34.5842 1710.91 36.4959C1859.42 52.069 2001.53 100.98 2133.27 181.689C2249.92 253.12 2356.71 348.191 2450.58 464.15L2444.73 467.46C2396.93 408.432 2337.38 344.601 2265.8 284.686C2127.04 168.541 1942.76 66.8961 1710.01 42.3708C1691.97 40.5057 1673.25 38.7339 1655.2 37.1487C1568.24 29.2689 1478.33 21.1559 1410.09 -14.0467C1344.91 -47.5242 1312.32 -93.6373 1280.79 -138.212C1253.22 -177.238 1227.15 -214.072 1180.97 -243.493C1166.54 -252.679 1149.72 -260.698 1131 -267.412C1061.14 -292.217 965.829 -295.435 882.102 -275.712C868.677 -272.588 855.808 -269.091 843.33 -265.641C841.046 -265.034 838.762 -264.428 836.534 -263.776C833.916 -263.076 831.242 -262.33 828.735 -261.631C806.898 -255.663 786.231 -250.021 765.508 -246.198C719.995 -237.852 681.725 -241.255 648.58 -256.502C617.662 -270.723 592.371 -296.367 573.431 -332.735C558.836 -360.711 547.917 -395.68 541.901 -433.727C541.066 -439.089 540.23 -444.451 539.394 -449.72C530.091 -510.287 521.234 -567.497 479.064 -616.874C435.78 -667.557 353.111 -698.889 273.284 -694.74C197.244 -690.776 125.717 -669.329 56.5845 -648.487C30.7366 -640.747 4.05305 -632.68 -22.5747 -625.687C-95.6062 -606.71 -232.199 -583.49 -327.847 -644.15Z" fill="#F1EFE6"/>
<path d="M-335.368 -637.763L-331.19 -642.565C-235.152 -583.63 -96.9989 -604.612 -23.299 -622.376C4.1087 -628.997 31.6278 -636.55 58.3113 -643.871C130.507 -663.733 205.21 -684.295 284.425 -687.559C324.032 -689.191 364.921 -682.757 402.69 -668.956C440.682 -655.061 472.713 -634.779 495.386 -610.207C542.514 -559.011 554.324 -499.144 566.858 -435.779L568.083 -429.718C585.297 -342.76 620.726 -283.545 670.472 -258.414C700.999 -243.027 736.485 -238.131 778.877 -243.4C801.829 -246.291 825.504 -251.653 848.399 -256.828C852.856 -257.854 857.424 -258.88 861.992 -259.999C872.297 -262.377 882.937 -264.848 893.912 -267.133C979.477 -285.037 1075.46 -282.752 1144.54 -261.118C1163.81 -255.057 1181.19 -247.69 1196.29 -239.25C1244.47 -212.161 1274.56 -176.632 1303.75 -142.222C1337.5 -102.31 1372.49 -61.0923 1436.38 -31.2051C1502.9 0.0343561 1589.74 7.63443 1673.69 15.048C1692.52 16.7265 1712.02 18.405 1730.85 20.3633C1878.47 35.5634 2019.58 82.6091 2150.38 160.195C2267.64 229.807 2374.26 322.313 2467.18 435.148L2461.33 438.552C2416.54 384.186 2361.17 325.53 2294.77 269.952C2156.11 153.9 1969.33 50.9033 1730.07 26.2381C1711.3 24.3264 1691.85 22.6013 1673.08 20.9694C1588.41 13.5092 1500.84 5.86262 1433.04 -25.9829C1367.81 -56.523 1332.38 -98.2999 1298.12 -138.725C1268.04 -174.254 1239.63 -207.824 1192.5 -234.215C1177.9 -242.421 1160.97 -249.601 1142.25 -255.476C1074.46 -276.691 980.034 -278.882 895.806 -261.258C884.887 -259.02 874.359 -256.549 864.053 -254.171C859.429 -253.098 854.917 -252.026 850.405 -251.047C827.286 -245.778 803.444 -240.369 780.047 -237.479C735.927 -231.977 698.883 -237.152 666.907 -253.285C637.438 -268.159 612.983 -293.849 594.154 -329.751C579.837 -357.028 568.752 -390.365 561.12 -428.738L559.95 -434.846C547.583 -497.512 535.885 -556.633 489.871 -606.617C445.529 -654.735 363.138 -684.902 284.87 -681.684C206.603 -678.467 132.401 -658.045 60.5953 -638.322C33.8561 -630.955 6.22557 -623.402 -21.2378 -616.734C-79.2842 -602.747 -133.877 -596.405 -183.344 -597.804C-243.73 -599.483 -294.869 -612.911 -335.368 -637.763Z" fill="#F1EFE6"/>
<path d="M-342.777 -631.375L-338.654 -636.224C-244.566 -580.32 -114.324 -592.815 -21.5162 -613.144C6.72705 -619.346 35.2489 -626.526 62.8237 -633.473C137.638 -652.263 215.014 -671.706 296.346 -674.224C376.397 -676.695 458.842 -647.508 506.305 -599.856C558.168 -547.775 573.153 -485.156 587.581 -424.589C608.638 -336.559 641.895 -281.027 689.357 -254.73C719.216 -238.224 752.528 -231.79 794.197 -234.401C815.198 -235.753 836.868 -239.157 862.883 -243.866C869.735 -245.125 876.643 -246.431 883.829 -247.876C891.628 -249.368 899.761 -250.953 908.005 -252.445C995.743 -268.531 1088.33 -267.226 1155.68 -248.995C1174.84 -243.773 1192.33 -237.339 1207.65 -229.832C1256.84 -205.819 1289.54 -173.694 1321.18 -142.641C1357.61 -106.832 1395.27 -69.9046 1459.22 -42.8616C1525.29 -14.886 1609.69 -7.65889 1691.35 -0.75824C1711.02 0.873671 1731.41 2.64549 1751.01 4.60379C1897.8 19.3842 2037.96 64.6114 2167.59 139.073C2227.42 173.39 2285.07 214.188 2339.05 260.208C2390.58 304.176 2439.38 353.413 2483.84 406.567L2477.99 409.97C2431.36 354.252 2380.72 303.663 2326.97 258.669C2159.07 118.138 1959.86 31.6002 1750.12 10.4786C1730.51 8.52033 1710.24 6.74858 1690.57 5.11667C1608.35 -1.87724 1523.29 -9.10429 1456.05 -37.5928C1390.87 -65.1021 1352.71 -102.543 1315.83 -138.818C1283.13 -170.943 1252.27 -201.25 1204.14 -224.75C1189.27 -231.977 1172.28 -238.271 1153.5 -243.353C1087.27 -261.304 996.022 -262.517 909.454 -246.664C901.265 -245.218 893.243 -243.633 885.389 -242.094C878.147 -240.696 871.295 -239.344 864.331 -238.085C838.038 -233.329 816.089 -229.878 794.698 -228.48C751.971 -225.729 716.207 -232.723 685.402 -249.741C677.268 -254.217 669.581 -259.533 662.228 -265.687C625.294 -296.6 598.443 -348.542 580.562 -423.376C566.245 -483.198 551.538 -545.024 500.79 -595.986C454.665 -642.332 374.503 -670.634 296.569 -668.256C216.073 -665.785 139.142 -646.435 64.7734 -627.738C37.1429 -620.838 8.56539 -613.611 -19.7893 -607.409C-113.934 -586.707 -246.46 -574.072 -342.777 -631.375Z" fill="#F1EFE6"/>
<path d="M-350.241 -624.941L-346.175 -629.836C-249.245 -573.978 -115.215 -584.889 -19.8451 -603.912C9.34518 -609.694 38.814 -616.455 67.2801 -623.029C144.657 -640.793 224.707 -659.117 308.212 -660.842C346.761 -661.682 386.647 -655.434 423.636 -642.845C460.848 -630.163 493.158 -611.699 517.223 -589.411C541.121 -567.171 560.006 -541.293 575.047 -510.147C588.193 -482.918 597.329 -454.196 607.134 -419.506C624.068 -359.359 650.863 -285.923 708.241 -251.14C737.153 -233.655 769.296 -225.495 809.572 -225.542C828.512 -225.542 848.789 -227.221 877.422 -231.044C887.394 -232.396 897.477 -234.028 908.117 -235.66C912.74 -236.359 917.364 -237.152 922.099 -237.851C1013.35 -251.932 1102.53 -251.606 1166.87 -236.919C1185.98 -232.583 1203.53 -227.034 1219.07 -220.553C1269.37 -199.525 1303.24 -172.109 1339.06 -143.061C1378 -111.495 1418.28 -78.81 1482.12 -54.751C1547.46 -29.9926 1629.18 -23.3251 1708.29 -16.7975C1729.01 -15.1189 1750.4 -13.3471 1771.12 -11.2955C1917.08 3.06528 2056.23 46.5207 2184.8 117.859C2244.69 151.103 2302.23 190.502 2355.93 234.983C2407.69 277.832 2456.37 325.95 2500.6 377.799L2494.81 381.249C2305.52 159.216 2048.21 21.9021 1770.34 -5.42076C1749.73 -7.47231 1728.34 -9.24399 1707.67 -10.8759C1628.01 -17.4035 1545.62 -24.1644 1479.17 -49.2958C1414.21 -73.7278 1373.49 -106.786 1334.05 -138.771C1298.62 -167.493 1265.2 -194.629 1215.84 -215.238C1200.74 -221.532 1183.59 -226.941 1164.92 -231.184C1101.59 -245.591 1013.51 -245.918 923.325 -231.976C918.59 -231.277 913.966 -230.484 909.342 -229.785C898.647 -228.107 888.564 -226.475 878.481 -225.122C849.458 -221.159 828.79 -219.527 809.516 -219.527C768.293 -219.527 733.811 -228.246 704.063 -246.244C697.49 -250.254 691.251 -254.73 685.402 -259.626C638.775 -298.652 615.49 -363.742 600.17 -418.061C582.344 -481.286 563.404 -537.517 511.931 -585.355C464.747 -629.137 384.92 -656.413 308.379 -654.828C225.71 -653.149 146.049 -634.872 69.1185 -617.201C40.5966 -610.673 11.0721 -603.866 -18.2296 -598.084C-80.3983 -585.681 -137.999 -580.553 -189.472 -582.884C-252.755 -585.775 -306.846 -599.902 -350.241 -624.941Z" fill="#F1EFE6"/>
<path d="M-357.706 -618.506L-353.807 -623.448C-273.701 -578.594 -160.839 -568.896 -18.3412 -594.634C11.7961 -600.089 42.212 -606.43 71.6251 -612.585C151.62 -629.277 234.289 -646.528 319.965 -647.461C398.011 -648.253 477.671 -622.05 527.919 -578.967C552.931 -557.473 573.208 -532.574 589.753 -502.78C606.465 -472.846 617.662 -441.281 626.464 -414.331C648.134 -347.889 675.263 -281.726 726.959 -247.41C754.923 -228.853 786.008 -219.061 824.724 -216.497C844.165 -215.238 864.833 -215.751 891.683 -218.082C904.774 -219.248 918.2 -220.973 932.349 -222.745L936.026 -223.211C1003.88 -231.79 1100.86 -239.11 1177.85 -224.843C1196.9 -221.299 1214.5 -216.73 1230.27 -211.275C1281.96 -193.277 1318.56 -168.985 1357.39 -143.294C1398.67 -115.925 1441.34 -87.6691 1504.79 -66.5476C1569.3 -45.0063 1648.24 -38.8051 1724.5 -32.7904C1746.5 -31.0652 1769.17 -29.2468 1791.18 -27.1486C1936.41 -13.2074 2074.56 28.4762 2201.9 96.6434C2261.84 128.722 2319.28 166.816 2372.65 209.805C2424.56 251.582 2473.2 298.441 2517.15 349.123L2511.41 352.62C2472.14 307.346 2429.63 265.709 2384.46 227.896C2216.05 86.9453 2010.27 -0.15208 1790.23 -21.227C1768.34 -23.3252 1745.67 -25.1436 1723.72 -26.8221C1646.9 -32.8369 1567.46 -39.0849 1502.01 -60.9524C1437.61 -82.3072 1394.49 -110.936 1352.82 -138.538C1314.44 -163.949 1278.18 -188.055 1227.37 -205.679C1212 -210.995 1194.78 -215.518 1176.18 -218.968C1100.25 -233.002 1004.16 -225.775 936.917 -217.243L933.296 -216.823C919.091 -215.005 905.61 -213.326 892.352 -212.114C865.055 -209.689 843.942 -209.176 824.111 -210.482C784.448 -213.093 751.247 -223.63 722.502 -242.654C697.1 -259.532 675.653 -284.757 656.935 -319.82C640.892 -349.94 629.472 -382.252 619.556 -412.652C598.109 -478.535 573.375 -531.315 522.794 -574.678C473.883 -616.641 396.172 -642.145 320.021 -641.353C235.18 -640.467 152.901 -623.262 73.352 -606.663C43.8832 -600.555 13.4116 -594.167 -16.8371 -588.712C-161.285 -562.741 -275.985 -572.766 -357.706 -618.506Z" fill="#F1EFE6"/>
<path d="M-365.227 -612.118L-361.383 -617.107C-278.937 -572.253 -163.011 -561.576 -16.7257 -585.448C14.3586 -590.484 45.7772 -596.452 76.1374 -602.187C158.639 -617.807 243.926 -633.986 331.72 -634.079C369.21 -634.126 408.149 -628.111 444.247 -616.734C480.679 -605.264 513.268 -588.619 538.614 -568.616C598.165 -521.571 625.35 -464.221 645.738 -409.295C666.851 -352.551 693.089 -282.006 745.621 -243.913C772.415 -224.47 803.221 -212.58 839.82 -207.684C859.485 -205.027 880.486 -204.327 905.944 -205.4C920.707 -206.006 935.747 -207.404 949.841 -208.85C1031.95 -216.963 1117.8 -223.071 1188.71 -213.046C1207.65 -210.342 1225.37 -206.705 1241.35 -202.182C1294.89 -187.122 1334.66 -165.954 1376.78 -143.48C1420.06 -120.4 1464.79 -96.5746 1527.41 -78.577C1590.64 -60.2529 1666.34 -54.6112 1739.54 -49.1093C1763.16 -47.3375 1787.5 -45.5191 1811.12 -43.2811C1955.63 -29.7595 2092.83 10.1058 2218.95 75.1957C2278.89 106.155 2336.27 142.897 2389.36 184.347C2441.44 225.052 2490.02 270.745 2533.75 320.122L2528.07 323.666C2345.41 117.066 2090.49 -11.1556 1810.34 -37.4061C1786.83 -39.6441 1762.49 -41.4626 1738.93 -43.1878C1665.28 -48.6896 1589.13 -54.4246 1525.07 -72.9817C1461.67 -91.2591 1416.61 -115.272 1372.93 -138.491C1331.21 -160.732 1291.77 -181.714 1239.07 -196.541C1223.47 -200.923 1206.15 -204.514 1187.49 -207.171C1117.41 -217.056 1032.29 -210.995 950.621 -202.975C936.36 -201.576 921.264 -200.131 906.279 -199.525C880.319 -198.406 858.872 -199.198 838.706 -201.903C800.77 -206.985 768.794 -219.294 740.941 -239.53C737.933 -241.675 735.036 -244.006 732.195 -246.384C684.009 -286.715 659.164 -353.484 638.998 -407.663C618.832 -461.843 592.093 -518.26 533.768 -564.466C483.855 -603.912 406.478 -628.391 331.775 -628.344C244.817 -628.297 159.865 -612.211 77.7529 -596.638C47.337 -590.857 15.8627 -584.935 -15.333 -579.806C-81.5683 -569.036 -142.233 -565.166 -195.711 -568.336C-261.779 -572.067 -318.823 -586.894 -365.227 -612.118Z" fill="#F1EFE6"/>
<path d="M-372.636 -605.731L-368.848 -610.766C-282.948 -565.259 -167.19 -553.976 -15.0546 -576.216C16.9768 -580.926 49.4538 -586.474 80.8167 -591.836C165.825 -606.477 253.73 -621.583 343.585 -620.698C419.625 -619.998 496.611 -596.592 549.477 -558.125C576.885 -538.17 599.78 -515.276 619.389 -488.14C636.547 -464.361 651.142 -437.69 665.291 -404.12C666.851 -400.296 668.522 -396.38 670.193 -392.463C692.81 -338.284 718.491 -276.877 764.616 -240.136C790.631 -219.388 820.323 -205.726 855.307 -198.546C874.971 -194.489 896.251 -192.438 920.595 -192.298C935.413 -192.205 950.899 -193.137 964.102 -194.023C973.628 -194.722 983.154 -195.422 993.237 -196.214C1060.47 -201.297 1136.68 -206.985 1200.02 -200.784C1218.9 -198.872 1236.73 -196.168 1252.83 -192.671C1308.81 -180.595 1352.32 -162.364 1398.39 -143.108C1443.12 -124.41 1489.36 -105.107 1550.41 -90.1869C1611.92 -75.0801 1683.94 -69.9979 1753.58 -65.0556C1779.26 -63.2371 1805.77 -61.372 1831.46 -58.9941C1975.35 -45.8922 2111.55 -7.79879 2236.33 54.1205C2296.33 83.9145 2353.59 119.35 2406.46 159.309C2458.71 198.848 2507.23 243.376 2550.68 291.587L2545.06 295.177C2365.79 96.2704 2112.11 -27.3817 1830.73 -53.0726C1805.11 -55.4039 1778.65 -57.3156 1753.02 -59.0873C1683.05 -64.0297 1610.63 -69.1586 1548.47 -84.4519C1486.8 -99.5121 1440.28 -118.955 1395.27 -137.792C1349.59 -156.909 1306.42 -174.953 1251.16 -186.889C1235.28 -190.293 1217.79 -192.997 1199.24 -194.816C1136.63 -200.97 1060.81 -195.235 993.961 -190.2C983.878 -189.407 974.352 -188.708 964.77 -188.055C951.401 -187.122 935.747 -186.236 920.651 -186.283C895.806 -186.47 873.968 -188.521 853.747 -192.671C817.538 -200.131 786.843 -214.259 759.881 -235.707C712.586 -273.427 686.627 -335.533 663.676 -390.365C662.005 -394.282 660.389 -398.152 658.829 -401.975C629.583 -471.494 595.546 -516.768 545.076 -553.51C493.436 -591.043 418.232 -613.89 343.752 -614.59C254.622 -615.429 167.106 -600.369 82.4321 -585.821C51.0136 -580.413 18.5366 -574.864 -13.6619 -570.108C-82.9053 -559.991 -143.347 -556.867 -198.552 -560.55C-266.292 -565.213 -324.784 -580.319 -372.636 -605.731Z" fill="#F1EFE6"/>
<path d="M-380.1 -599.296L-376.368 -604.379C-288.073 -558.825 -169.362 -546.562 -13.4389 -566.938C19.6508 -571.227 53.1305 -576.496 85.4961 -581.485C173.011 -595.053 263.479 -609.134 355.395 -607.363C429.986 -605.917 506.583 -583.677 560.284 -547.775C588.973 -528.611 613.15 -506.697 634.207 -480.866C653.203 -457.507 669.692 -430.743 684.733 -399.038C688.354 -391.344 691.919 -383.604 695.707 -375.398C717.99 -326.814 743.113 -271.749 783.389 -236.546C808.736 -214.305 837.314 -198.966 870.515 -189.64C890.179 -184.092 911.292 -180.781 934.912 -179.476C947.223 -178.776 960.537 -178.823 977.973 -179.522C1001.76 -180.502 1026.16 -182.18 1052.01 -183.952C1105.88 -187.635 1161.69 -191.459 1210.88 -188.801C1229.71 -187.775 1247.59 -185.957 1263.97 -183.439C1323.52 -174.347 1371.76 -159.054 1422.85 -142.874C1468.02 -128.56 1514.76 -113.78 1573.03 -102.123C1632.14 -90.1403 1699.71 -85.7109 1765.11 -81.3281C1793.57 -79.4164 1822.93 -77.5047 1851.45 -74.9869C1994.79 -62.258 2130.04 -25.983 2253.43 32.8124C2374.48 90.4888 2480.05 167.841 2567.28 262.772L2561.66 266.362C2385.96 75.1022 2133.5 -43.9806 1850.73 -69.0654C1822.32 -71.5832 1793.02 -73.5415 1764.55 -75.4532C1698.87 -79.7894 1631.02 -84.2655 1571.36 -96.3417C1512.7 -108.138 1465.74 -123.012 1420.34 -137.326C1369.54 -153.365 1321.63 -168.565 1262.69 -177.611C1246.59 -180.082 1228.99 -181.854 1210.44 -182.926C1161.69 -185.584 1106.27 -181.807 1052.62 -178.124C1027.89 -176.445 1002.26 -174.673 978.363 -173.694C960.592 -172.995 947 -172.995 934.466 -173.694C910.178 -175 888.564 -178.45 868.286 -184.138C833.915 -193.79 804.502 -209.643 778.264 -232.629C737.041 -268.718 711.528 -324.389 689.078 -373.487C685.29 -381.693 681.78 -389.479 678.16 -397.079C647.354 -462.309 609.696 -507.443 555.939 -543.299C503.408 -578.408 428.426 -600.136 355.339 -601.534C264.147 -603.26 174.07 -589.318 86.9445 -575.797C54.5232 -570.761 20.9878 -565.539 -12.2134 -561.25C-170.086 -540.454 -290.357 -552.997 -380.1 -599.296Z" fill="#F1EFE6"/>
<path d="M-387.621 -592.908L-384 -597.991C-293.365 -552.344 -171.702 -539.195 -11.8793 -557.706C22.2689 -561.669 56.8628 -566.471 90.3425 -571.181C180.253 -583.77 273.283 -596.732 367.205 -594.027C441.462 -591.836 515.775 -571.227 570.98 -537.423C629.026 -501.894 671.308 -456.341 704.007 -394.002C709.912 -382.718 715.706 -371.062 721.722 -358.753C744.061 -313.385 767.179 -266.433 801.996 -232.909C826.729 -209.036 854.081 -191.925 885.555 -180.595C905.164 -173.507 925.999 -168.938 949.117 -166.56C961.651 -165.301 975.243 -164.742 991.844 -164.928C1026.1 -165.348 1063.09 -168.145 1098.91 -170.803C1140.3 -173.927 1183.14 -177.144 1221.75 -176.725C1240.46 -176.538 1258.4 -175.606 1275 -174.114C1340.07 -168.145 1395.05 -155.696 1453.15 -142.501C1496.94 -132.616 1542.17 -122.359 1595.59 -113.919C1651.08 -105.061 1713.19 -101.284 1773.19 -97.6935C1805.5 -95.7353 1838.98 -93.7304 1871.34 -90.8862C2014.28 -78.5769 2148.48 -44.1203 2270.37 11.5511C2391.98 67.0827 2497.43 141.917 2583.72 234.004L2578.15 237.641C2406.18 54.0741 2154.89 -60.486 1870.62 -84.9646C1838.31 -87.7622 1804.94 -89.7672 1772.68 -91.7721C1712.47 -95.4556 1650.19 -99.1856 1594.26 -108.138C1540.61 -116.67 1495.21 -126.881 1451.31 -136.859C1393.43 -149.961 1338.79 -162.317 1274.28 -168.285C1257.9 -169.777 1240.18 -170.71 1221.69 -170.896C1183.42 -171.316 1140.8 -168.099 1099.58 -165.022C1063.59 -162.317 1026.44 -159.566 991.9 -159.1C974.965 -158.913 961.094 -159.52 948.225 -160.779C924.383 -163.203 902.992 -167.959 882.714 -175.233C850.237 -186.936 822.05 -204.56 796.536 -229.086C760.995 -263.309 737.654 -310.728 715.037 -356.515C708.965 -368.777 703.283 -380.434 697.378 -391.624C665.18 -452.984 623.623 -497.745 566.69 -532.621C512.544 -565.725 439.679 -585.961 366.815 -588.106C273.617 -590.857 180.977 -577.848 91.4009 -565.352C57.8655 -560.69 23.2159 -555.841 -10.988 -551.831C-84.298 -543.345 -147.748 -541.433 -204.959 -545.956C-275.316 -551.504 -336.761 -567.311 -387.621 -592.908Z" fill="#F1EFE6"/>
<path d="M-395.086 -586.474L-391.52 -591.603C-297.209 -545.303 -176.047 -531.549 -10.2639 -548.427C24.9985 -552.017 60.7064 -556.447 95.2446 -560.83C187.606 -572.393 283.088 -584.329 378.903 -580.599C451.823 -577.755 525.746 -558.219 581.675 -526.979C642.897 -492.802 689.189 -447.622 723.338 -388.92C731.972 -374.046 740.05 -358.52 748.684 -342.061C769.518 -302.055 791.133 -260.745 820.713 -229.272C844.945 -203.581 871.072 -184.698 900.763 -171.596C920.205 -162.97 940.761 -157.142 963.489 -153.692C976.135 -151.78 989.95 -150.661 1005.77 -150.381C1048.11 -149.635 1093.95 -153.785 1138.35 -157.841C1171.39 -160.872 1202.58 -163.669 1232.66 -164.695C1251.33 -165.301 1269.32 -165.348 1286.14 -164.788C1360.57 -162.364 1426.02 -152.712 1495.32 -142.455C1533.87 -136.766 1573.81 -130.845 1618.27 -125.716C1668.29 -119.841 1722.88 -116.95 1775.75 -114.106C1813.85 -112.054 1853.24 -109.956 1891.4 -106.739C2033.95 -94.8494 2167.26 -62.1645 2287.53 -9.61699C2409.75 43.7232 2514.98 116.04 2600.37 205.329L2594.86 209.012C2572.69 185.792 2549.01 163.738 2524.11 142.897C2360.06 5.58301 2138.84 -80.0688 1890.67 -100.817C1852.62 -104.035 1813.29 -106.086 1775.25 -108.184C1722.27 -111.029 1667.57 -113.919 1617.26 -119.841C1572.75 -125.016 1532.76 -130.891 1494.15 -136.626C1425.13 -146.837 1359.84 -156.442 1285.92 -158.82C1269.26 -159.333 1251.44 -159.333 1233 -158.727C1203.19 -157.748 1172.05 -154.904 1139.19 -151.92C1094.57 -147.863 1048.44 -143.667 1005.66 -144.413C989.448 -144.739 975.187 -145.858 962.264 -147.817C938.755 -151.36 917.587 -157.422 897.477 -166.327C866.949 -179.849 840.043 -199.199 815.198 -225.589C785.005 -257.668 763.279 -299.351 742.222 -339.636C733.643 -356.048 725.622 -371.528 716.987 -386.309C683.452 -444.032 637.939 -488.466 577.776 -522.037C522.849 -552.717 450.263 -571.88 378.625 -574.678C283.478 -578.408 188.331 -566.472 96.3588 -554.955C61.7649 -550.619 26.0012 -546.143 -9.37256 -542.552C-84.688 -534.906 -149.642 -533.6 -207.911 -538.543C-279.773 -544.604 -342.777 -560.783 -395.086 -586.474Z" fill="#F1EFE6"/>
<path d="M-402.495 -580.086L-398.985 -585.262C-302.223 -538.869 -178.22 -524.228 -8.59271 -539.195C27.7838 -542.412 64.7173 -546.562 100.425 -550.525C195.127 -561.063 293.059 -572.066 390.824 -567.264C463.522 -563.674 535.16 -545.676 592.538 -516.581C657.715 -483.477 706.904 -440.068 742.779 -383.837C754.589 -365.373 765.786 -344.811 776.593 -324.949C795.422 -290.352 814.919 -254.543 839.542 -225.635C863.217 -197.799 888.285 -177.191 915.971 -162.597C934.912 -152.526 955.189 -145.438 977.917 -140.776C990.785 -138.211 1004.54 -136.58 1019.86 -135.787C1068.66 -133.362 1121.47 -139.424 1172.5 -145.299C1197.29 -148.143 1220.74 -150.8 1243.75 -152.619C1262.3 -154.064 1280.35 -154.997 1297.45 -155.416C1389.65 -157.794 1470.7 -151.22 1564.62 -143.573C1589.19 -141.568 1614.48 -139.517 1640.99 -137.559C1681.77 -134.481 1723.33 -132.71 1767.28 -130.798C1814.74 -128.746 1863.88 -126.602 1911.51 -122.732C2053.84 -111.215 2186.08 -80.3485 2304.68 -30.9715C2427.46 20.1306 2532.58 89.9296 2617.03 176.467L2611.52 180.244C2447.24 11.971 2198.4 -93.5437 1910.78 -116.81C1863.32 -120.633 1814.3 -122.778 1766.95 -124.83C1724.89 -126.648 1681.27 -128.56 1640.38 -131.637C1613.86 -133.595 1588.52 -135.694 1563.95 -137.698C1470.25 -145.345 1389.37 -151.873 1297.67 -149.542C1280.74 -149.075 1262.8 -148.143 1244.42 -146.744C1221.58 -144.972 1198.18 -142.268 1173.45 -139.47C1122.03 -133.549 1068.89 -127.487 1019.42 -129.912C1003.71 -130.751 989.616 -132.383 976.246 -135.087C952.738 -139.843 931.792 -147.21 912.183 -157.654C883.661 -172.668 857.981 -193.79 833.748 -222.278C808.68 -251.653 789.072 -287.741 770.131 -322.617C758.879 -343.319 748.238 -362.856 736.54 -381.133C701.222 -436.431 652.924 -479.094 588.862 -511.639C532.486 -540.268 461.962 -557.985 390.379 -561.482C293.338 -566.052 195.684 -555.188 101.317 -544.65C65.5529 -540.64 28.5637 -536.537 -7.86847 -533.274C-85.2451 -526.42 -151.703 -525.72 -210.975 -531.129C-285.344 -537.89 -347.958 -553.929 -402.495 -580.086Z" fill="#F1EFE6"/>
<path d="M-410.015 -573.698L-406.505 -578.874C-276.207 -517.747 -116.051 -521.71 -6.92112 -529.963C30.6809 -532.807 68.84 -536.584 105.718 -540.221C202.759 -549.826 303.087 -559.757 402.69 -553.882C474.273 -549.639 545.522 -532.714 603.346 -506.137C671.531 -474.805 724.953 -431.955 762.277 -378.708C777.875 -356.421 791.913 -331.336 805.45 -307.044C821.716 -277.856 838.539 -247.736 858.426 -221.952C881.489 -191.925 905.332 -169.544 931.291 -153.505C950.008 -141.848 970.007 -133.502 992.401 -127.814C1005.33 -124.55 1018.92 -122.405 1033.9 -121.146C1087.83 -116.764 1146.1 -125.156 1202.42 -133.316C1220.58 -135.927 1237.73 -138.445 1254.89 -140.496C1272.66 -142.688 1290.77 -144.506 1308.82 -145.998C1430.53 -155.836 1546.24 -153.179 1663.89 -149.262C1686.73 -148.516 1710.35 -147.863 1733.3 -147.21C1798.53 -145.485 1866.05 -143.62 1931.67 -138.491C2073.95 -127.394 2205.19 -98.2997 2321.95 -52.0467C2445.29 -3.2759 2550.18 64.0054 2633.8 147.792L2628.34 151.616C2465.79 -11.3889 2224.69 -109.676 1931 -132.616C1865.6 -137.745 1798.2 -139.517 1733.02 -141.289C1710.13 -141.895 1686.4 -142.548 1663.56 -143.294C1546.18 -147.164 1430.76 -149.868 1309.48 -140.03C1291.66 -138.538 1273.61 -136.673 1255.89 -134.528C1238.85 -132.477 1221.75 -130.005 1203.64 -127.348C1146.82 -119.142 1088.16 -110.702 1033.29 -115.132C1017.86 -116.391 1003.82 -118.629 990.396 -122.032C967.222 -127.907 946.443 -136.626 927.057 -148.656C900.374 -165.115 875.974 -188.055 852.41 -218.688C832.3 -244.845 815.365 -275.152 798.988 -304.527C785.507 -328.679 771.58 -353.67 756.149 -375.724C719.494 -428.039 666.963 -470.142 599.948 -500.962C543.015 -527.166 472.769 -543.811 402.189 -547.961C303.198 -553.789 203.205 -543.858 106.498 -534.346C69.5642 -530.663 31.3494 -526.933 -6.30837 -524.042C-85.6904 -518.027 -153.653 -517.934 -213.983 -523.762C-289.855 -531.036 -353.918 -547.355 -410.015 -573.698Z" fill="#F1EFE6"/>
<path d="M-417.48 -567.264L-414.082 -572.44C-280.497 -511.173 -116.886 -513.551 -5.41729 -520.685C33.4103 -523.156 72.7949 -526.56 110.898 -529.917C210.223 -538.543 312.946 -547.495 414.333 -540.501C486.417 -535.558 555.438 -520.032 613.93 -495.693C685.68 -466.132 742.111 -425.055 781.44 -373.58C801.55 -347.329 818.485 -317.209 834.807 -288.068C848.009 -264.522 861.769 -240.136 876.921 -218.222C899.427 -185.49 921.431 -162.038 946.22 -144.366C964.659 -131.171 984.435 -121.52 1006.55 -114.759C1019.47 -110.842 1033.01 -108.091 1047.72 -106.413C1105.76 -99.7918 1168.16 -110.982 1228.54 -121.799C1240.74 -123.991 1253.44 -126.229 1265.7 -128.28C1283.47 -131.218 1301.74 -134.015 1319.84 -136.487C1434.21 -152.106 1550.69 -159.893 1686.39 -160.919C1766.17 -161.478 1860.09 -161.198 1951.56 -154.298C2093.83 -143.574 2224.19 -116.344 2338.89 -73.215C2462.78 -26.6823 2567.56 38.0813 2650.23 119.211L2644.83 123.081C2486.79 -32.4172 2246.8 -126.229 1951.11 -148.516C1859.92 -155.37 1766.22 -155.743 1686.62 -155.137C1551.31 -154.065 1435.16 -146.371 1321.13 -130.751C1303.08 -128.234 1284.92 -125.529 1267.2 -122.545C1255 -120.54 1242.36 -118.256 1230.16 -116.064C1169.21 -105.154 1106.15 -93.8703 1046.83 -100.631C1031.62 -102.356 1017.64 -105.2 1004.21 -109.257C981.204 -116.204 960.76 -126.229 941.652 -139.89C916.25 -157.981 893.744 -181.947 870.849 -215.284C855.53 -237.432 841.77 -261.91 828.456 -285.55C812.134 -314.505 795.311 -344.438 775.535 -370.409C736.874 -420.952 681.502 -461.33 610.866 -490.425C553.098 -514.437 484.969 -529.777 413.776 -534.626C313.002 -541.573 210.613 -532.621 111.567 -524.042C73.4077 -520.731 33.856 -517.281 -4.97157 -514.81C-86.359 -509.634 -155.77 -510.101 -217.214 -516.395C-294.312 -524.135 -359.823 -540.827 -417.48 -567.264Z" fill="#F1EFE6"/>
<path d="M-425 -560.876L-421.658 -566.098C-286.346 -505.345 -127.248 -504.972 -3.85743 -511.453C36.1957 -513.551 76.9731 -516.628 116.358 -519.659C217.911 -527.352 322.974 -535.279 426.143 -527.166C502.071 -521.151 574.712 -505.205 636.157 -480.913C706.403 -453.17 761.775 -415.403 800.826 -368.544C826.562 -337.678 846.561 -301.542 865.891 -266.62C904.719 -196.447 941.374 -130.145 1020.98 -101.936C1093.06 -76.3854 1173.89 -93.9634 1252.05 -110.982C1260.18 -112.754 1268.59 -114.572 1276.78 -116.297C1400.51 -142.454 1525.24 -160.219 1647.4 -169.125C1781.54 -178.916 1909.67 -177.611 2028.16 -165.441C2158.79 -151.966 2277.44 -125.11 2380.83 -85.5708C2494.42 -42.162 2590.68 16.9598 2667 90.2559L2661.65 94.1725C2649.68 82.6558 2637.31 71.5588 2624.66 60.9747C2221.79 -276.225 1496.66 -156.629 1278.57 -110.516C1270.38 -108.791 1262.02 -106.926 1253.94 -105.2C1174.62 -87.9487 1092.62 -70.1376 1018.3 -96.4346C981.371 -109.537 950.008 -132.057 922.378 -165.348C897.867 -194.909 878.37 -230.065 859.541 -264.102C840.378 -298.792 820.49 -334.647 795.088 -365.14C723.115 -451.492 588.472 -508.422 425.53 -521.244C322.974 -529.31 218.245 -521.384 117.026 -513.691C77.5858 -510.707 36.7527 -507.583 -3.41177 -505.485C-87.9188 -501.055 -156.828 -502.128 -220.222 -508.935C-298.824 -517.281 -365.839 -534.299 -425 -560.876Z" fill="#F1EFE6"/>
</g>
<defs>
<clipPath id="clip0_2665_310">
<rect width="2300" height="670" fill="white"/>
</clipPath>
</defs>
</svg>
