<svg width="2560" height="780" viewBox="0 0 2560 780" fill="none" xmlns="http://www.w3.org/2000/svg">
<g clip-path="url(#clip0_2665_440)">
<path fill-rule="evenodd" clip-rule="evenodd" d="M1236.28 729.823C1236.28 729.823 1346.58 778.723 1453.78 812.223C1538.48 838.623 1621.28 855.423 1645.98 830.723C1658.78 817.923 1712.98 811.023 1789.08 807.923C1922.98 802.423 2124.58 808.823 2287.48 816.123V695.523L2095.58 503.723H2004.98L1800.28 299.023H1727.48L1539.08 487.423H1478.58L1236.28 729.823Z" fill="url(#paint0_linear_2665_440)"/>
<path fill-rule="evenodd" clip-rule="evenodd" d="M2206.38 545.891H2221.58L2225.88 770.691H2202.68L2206.38 545.891Z" fill="url(#paint1_linear_2665_440)"/>
<path fill-rule="evenodd" clip-rule="evenodd" d="M2206.38 545.891H2221.58V548.791H2206.28L2206.38 545.891Z" fill="url(#paint2_linear_2665_440)"/>
<path fill-rule="evenodd" clip-rule="evenodd" d="M2213.98 545.891H2221.58L2225.88 770.691H2210.28L2213.98 545.891Z" fill="url(#paint3_linear_2665_440)"/>
<path fill-rule="evenodd" clip-rule="evenodd" d="M2213.98 545.891H2221.58V548.791H2213.88L2213.98 545.891Z" fill="url(#paint4_linear_2665_440)"/>
<path fill-rule="evenodd" clip-rule="evenodd" d="M2225.58 757.091L2225.68 760.091H2202.78L2202.88 757.091H2225.58Z" fill="url(#paint5_linear_2665_440)"/>
<path fill-rule="evenodd" clip-rule="evenodd" d="M2240.08 533.291L2276.78 525.191L2337.38 529.691L2337.18 532.691L2240.08 539.291V533.291Z" fill="url(#paint6_linear_2665_440)"/>
<path fill-rule="evenodd" clip-rule="evenodd" d="M2337.38 529.691L2337.18 532.691L2240.08 539.291V536.291L2337.38 529.691Z" fill="url(#paint7_linear_2665_440)"/>
<path d="M2240.08 533.291H2230.68V539.191H2240.08V533.291Z" fill="url(#paint8_linear_2665_440)"/>
<path fill-rule="evenodd" clip-rule="evenodd" d="M2198.08 528.991H2227.18C2227.28 528.991 2227.28 528.991 2227.28 529.091V545.891H2198.08C2193.48 545.891 2189.68 542.091 2189.68 537.491C2189.68 532.791 2193.48 528.991 2198.08 528.991Z" fill="url(#paint9_linear_2665_440)"/>
<path fill-rule="evenodd" clip-rule="evenodd" d="M2227.18 537.491V545.891H2198.08C2193.48 545.891 2189.68 542.091 2189.68 537.491H2227.18Z" fill="url(#paint10_linear_2665_440)"/>
<path fill-rule="evenodd" clip-rule="evenodd" d="M2225.48 551.391L2215.68 587.691L2183.78 639.391L2181.18 637.791L2220.28 548.591L2225.48 551.391Z" fill="url(#paint11_linear_2665_440)"/>
<path fill-rule="evenodd" clip-rule="evenodd" d="M2183.78 639.391L2181.18 637.791L2220.28 548.591L2222.88 549.991L2183.78 639.391Z" fill="url(#paint12_linear_2665_440)"/>
<path fill-rule="evenodd" clip-rule="evenodd" d="M2225.48 551.391L2229.78 543.091L2224.58 540.291L2220.28 548.591L2225.48 551.391Z" fill="url(#paint13_linear_2665_440)"/>
<path d="M2229.48 760.091H2198.98V770.691H2229.48V760.091Z" fill="url(#paint14_linear_2665_440)"/>
<path fill-rule="evenodd" clip-rule="evenodd" d="M2220.38 525.391L2203.88 491.591L2162.58 447.091L2160.28 449.091L2192.48 495.391L2215.78 529.091L2220.38 525.391Z" fill="url(#paint15_linear_2665_440)"/>
<path fill-rule="evenodd" clip-rule="evenodd" d="M2162.58 447.091L2160.28 449.091L2192.48 495.391L2215.78 529.091L2218.08 527.291L2162.58 447.091Z" fill="url(#paint16_linear_2665_440)"/>
<path fill-rule="evenodd" clip-rule="evenodd" d="M2220.38 525.391L2226.28 532.691L2221.68 536.391L2215.78 529.091L2220.38 525.391Z" fill="url(#paint17_linear_2665_440)"/>
<path fill-rule="evenodd" clip-rule="evenodd" d="M2227.18 527.791C2232.58 527.791 2236.88 532.091 2236.88 537.491C2236.88 542.891 2232.58 547.191 2227.18 547.191C2221.78 547.191 2217.48 542.891 2217.48 537.491C2217.48 532.091 2221.78 527.791 2227.18 527.791Z" fill="url(#paint18_linear_2665_440)"/>
<path fill-rule="evenodd" clip-rule="evenodd" d="M2236.88 537.491C2236.88 542.791 2232.48 547.191 2227.18 547.191C2221.88 547.191 2217.48 542.891 2217.48 537.491H2236.88Z" fill="url(#paint19_linear_2665_440)"/>
<path fill-rule="evenodd" clip-rule="evenodd" d="M2227.18 529.891C2231.38 529.891 2234.78 533.291 2234.78 537.491C2234.78 541.691 2231.38 545.091 2227.18 545.091C2222.98 545.091 2219.58 541.691 2219.58 537.491C2219.58 533.291 2222.98 529.891 2227.18 529.891Z" fill="url(#paint20_linear_2665_440)"/>
<path fill-rule="evenodd" clip-rule="evenodd" d="M2234.78 537.491C2234.78 541.691 2231.38 544.991 2227.18 544.991C2222.98 544.991 2219.68 541.591 2219.58 537.491H2234.78Z" fill="url(#paint21_linear_2665_440)"/>
<path fill-rule="evenodd" clip-rule="evenodd" d="M1854.88 392.798H1877.18L1883.53 723.065H1849.36L1854.88 392.798Z" fill="url(#paint22_linear_2665_440)"/>
<path fill-rule="evenodd" clip-rule="evenodd" d="M1854.88 392.798H1877.18L1877.28 397.067H1854.78L1854.88 392.798Z" fill="url(#paint23_linear_2665_440)"/>
<path fill-rule="evenodd" clip-rule="evenodd" d="M1866.03 392.798H1877.18L1883.53 723.065H1860.51L1866.03 392.798Z" fill="url(#paint24_linear_2665_440)"/>
<path fill-rule="evenodd" clip-rule="evenodd" d="M1866.03 392.798H1877.18L1877.28 397.067H1865.92L1866.03 392.798Z" fill="url(#paint25_linear_2665_440)"/>
<path fill-rule="evenodd" clip-rule="evenodd" d="M1883.22 703.179V707.552H1849.67V703.179H1883.22Z" fill="url(#paint26_linear_2665_440)"/>
<path fill-rule="evenodd" clip-rule="evenodd" d="M1842.69 368.018H1885.51C1885.62 368.018 1885.72 368.122 1885.72 368.226V392.798H1842.8C1836.02 392.798 1830.4 387.176 1830.4 380.408C1830.29 373.64 1835.82 368.018 1842.69 368.018Z" fill="url(#paint27_linear_2665_440)"/>
<path fill-rule="evenodd" clip-rule="evenodd" d="M1885.41 380.512V392.798H1842.59C1835.82 392.798 1830.19 387.28 1830.19 380.512H1885.41Z" fill="url(#paint28_linear_2665_440)"/>
<path d="M1888.85 707.552H1843.94V723.065H1888.85V707.552Z" fill="url(#paint29_linear_2665_440)"/>
<path fill-rule="evenodd" clip-rule="evenodd" d="M1890.82 369.684L1919.79 322.518L1986.26 263.065L1989.28 266.293L1897.08 375.723L1890.82 369.684Z" fill="url(#paint30_linear_2665_440)"/>
<path fill-rule="evenodd" clip-rule="evenodd" d="M1986.26 263.065L1989.28 266.293L1897.08 375.723L1893.95 372.703L1986.26 263.065Z" fill="url(#paint31_linear_2665_440)"/>
<path fill-rule="evenodd" clip-rule="evenodd" d="M1890.82 369.684L1881.24 379.575L1887.49 385.614L1897.08 375.723L1890.82 369.684Z" fill="url(#paint32_linear_2665_440)"/>
<path fill-rule="evenodd" clip-rule="evenodd" d="M1894.99 403.419L1923.54 450.897L1945.62 537.42L1941.25 538.566L1886.76 406.23L1894.99 403.419Z" fill="url(#paint33_linear_2665_440)"/>
<path fill-rule="evenodd" clip-rule="evenodd" d="M1945.62 537.42L1941.25 538.566L1886.76 406.23L1890.93 404.876L1945.62 537.42Z" fill="url(#paint34_linear_2665_440)"/>
<path fill-rule="evenodd" clip-rule="evenodd" d="M1894.99 403.419L1890.62 390.404L1882.39 393.215L1886.76 406.23L1894.99 403.419Z" fill="url(#paint35_linear_2665_440)"/>
<path fill-rule="evenodd" clip-rule="evenodd" d="M1862.38 382.386L1809.67 365.415L1720.38 363.645L1720.28 368.018L1861.55 391.028L1862.38 382.386Z" fill="url(#paint36_linear_2665_440)"/>
<path fill-rule="evenodd" clip-rule="evenodd" d="M1720.38 363.645L1720.28 368.018L1861.55 391.028L1861.97 386.759L1720.38 363.645Z" fill="url(#paint37_linear_2665_440)"/>
<path fill-rule="evenodd" clip-rule="evenodd" d="M1862.38 382.386L1876.13 383.636L1875.3 392.278L1861.55 391.028L1862.38 382.386Z" fill="url(#paint38_linear_2665_440)"/>
<path fill-rule="evenodd" clip-rule="evenodd" d="M1885.41 366.144C1893.33 366.144 1899.68 372.495 1899.68 380.408C1899.68 388.321 1893.33 394.673 1885.41 394.673C1877.49 394.673 1871.13 388.321 1871.13 380.408C1871.13 372.495 1877.59 366.144 1885.41 366.144Z" fill="url(#paint39_linear_2665_440)"/>
<path fill-rule="evenodd" clip-rule="evenodd" d="M1899.68 380.512C1899.68 388.321 1893.22 394.673 1885.41 394.673C1877.59 394.673 1871.13 388.321 1871.13 380.512H1899.68Z" fill="url(#paint40_linear_2665_440)"/>
<path fill-rule="evenodd" clip-rule="evenodd" d="M1885.41 369.267C1891.55 369.267 1896.55 374.265 1896.55 380.408C1896.55 386.551 1891.55 391.549 1885.41 391.549C1879.26 391.549 1874.26 386.551 1874.26 380.408C1874.26 374.265 1879.26 369.267 1885.41 369.267Z" fill="url(#paint41_linear_2665_440)"/>
<path fill-rule="evenodd" clip-rule="evenodd" d="M1896.55 380.512C1896.55 386.655 1891.55 391.549 1885.41 391.549C1879.26 391.549 1874.36 386.655 1874.26 380.512H1896.55Z" fill="url(#paint42_linear_2665_440)"/>
<path fill-rule="evenodd" clip-rule="evenodd" d="M2081.78 359.179C2054.72 422.36 2041.47 490.76 2081.78 499.179C2122.08 490.718 2108.83 422.36 2081.78 359.179Z" fill="url(#paint43_linear_2665_440)"/>
<path fill-rule="evenodd" clip-rule="evenodd" d="M2560 203.364V279.164H2287C2295.9 243.364 2328.2 216.864 2366.7 216.864C2368.4 216.864 2370.2 216.864 2371.9 217.064C2383.5 217.764 2394.6 212.764 2401.7 203.564C2419.6 180.664 2447.4 165.964 2478.7 165.964C2506.2 165.964 2531.1 177.364 2548.8 195.664C2552 199.064 2555.8 201.664 2560 203.364Z" fill="url(#paint44_linear_2665_440)"/>
<path fill-rule="evenodd" clip-rule="evenodd" d="M624.404 322.686H652.299L660.269 735.064H617.529L624.404 322.686Z" fill="url(#paint45_linear_2665_440)"/>
<path fill-rule="evenodd" clip-rule="evenodd" d="M624.404 322.686H652.299L652.399 328.067H624.304L624.404 322.686Z" fill="url(#paint46_linear_2665_440)"/>
<path fill-rule="evenodd" clip-rule="evenodd" d="M638.351 322.686H652.299L660.269 735.064H631.477L638.351 322.686Z" fill="url(#paint47_linear_2665_440)"/>
<path fill-rule="evenodd" clip-rule="evenodd" d="M638.351 322.686H652.299L652.399 328.067H638.252L638.351 322.686Z" fill="url(#paint48_linear_2665_440)"/>
<path fill-rule="evenodd" clip-rule="evenodd" d="M659.771 710.156L659.871 715.736H617.928L618.028 710.156H659.771Z" fill="url(#paint49_linear_2665_440)"/>
<path fill-rule="evenodd" clip-rule="evenodd" d="M609.161 291.701H662.561C662.66 291.701 662.76 291.8 662.76 291.9V322.686H609.161C600.693 322.686 593.719 315.712 593.719 307.243C593.719 298.675 600.693 291.701 609.161 291.701Z" fill="url(#paint50_linear_2665_440)"/>
<path fill-rule="evenodd" clip-rule="evenodd" d="M662.561 307.243V322.587H609.161C600.693 322.587 593.719 315.712 593.719 307.243H662.561Z" fill="url(#paint51_linear_2665_440)"/>
<path d="M666.845 715.736H610.854V735.064H666.845V715.736Z" fill="url(#paint52_linear_2665_440)"/>
<path fill-rule="evenodd" clip-rule="evenodd" d="M675.413 327.469L697.231 393.027L700.519 504.416L694.939 504.715L664.653 328.664L675.413 327.469Z" fill="url(#paint53_linear_2665_440)"/>
<path fill-rule="evenodd" clip-rule="evenodd" d="M700.519 504.416L694.939 504.715L664.653 328.664L670.033 328.067L700.519 504.416Z" fill="url(#paint54_linear_2665_440)"/>
<path fill-rule="evenodd" clip-rule="evenodd" d="M675.413 327.469L673.719 310.432L662.86 311.528L664.653 328.664L675.413 327.469Z" fill="url(#paint55_linear_2665_440)"/>
<path fill-rule="evenodd" clip-rule="evenodd" d="M639.846 304.354L571.601 293.394L471.277 244.874L473.668 239.892L643.831 294.291L639.846 304.354Z" fill="url(#paint56_linear_2665_440)"/>
<path fill-rule="evenodd" clip-rule="evenodd" d="M471.277 244.874L473.668 239.892L643.831 294.291L641.838 299.372L471.277 244.874Z" fill="url(#paint57_linear_2665_440)"/>
<path fill-rule="evenodd" clip-rule="evenodd" d="M639.846 304.354L655.786 310.731L659.771 300.668L643.831 294.291L639.846 304.354Z" fill="url(#paint58_linear_2665_440)"/>
<path fill-rule="evenodd" clip-rule="evenodd" d="M686.172 290.206L744.653 253.542L818.277 169.85L814.093 166.064L678.601 282.435L686.172 290.206Z" fill="url(#paint59_linear_2665_440)"/>
<path fill-rule="evenodd" clip-rule="evenodd" d="M818.277 169.85L814.093 166.064L678.601 282.435L682.386 286.321L818.277 169.85Z" fill="url(#paint60_linear_2665_440)"/>
<path fill-rule="evenodd" clip-rule="evenodd" d="M686.172 290.206L673.918 302.262L666.347 294.49L678.601 282.435L686.172 290.206Z" fill="url(#paint61_linear_2665_440)"/>
<path fill-rule="evenodd" clip-rule="evenodd" d="M662.561 289.409C672.424 289.409 680.394 297.38 680.394 307.243C680.394 317.107 672.424 325.078 662.561 325.078C652.698 325.078 644.728 317.107 644.728 307.243C644.728 297.38 652.698 289.409 662.561 289.409Z" fill="url(#paint62_linear_2665_440)"/>
<path fill-rule="evenodd" clip-rule="evenodd" d="M680.394 307.243C680.294 317.007 672.424 324.978 662.561 324.978C652.797 324.978 644.827 317.007 644.728 307.243H680.394Z" fill="url(#paint63_linear_2665_440)"/>
<path fill-rule="evenodd" clip-rule="evenodd" d="M662.561 293.295C670.232 293.295 676.508 299.472 676.508 307.243C676.508 314.915 670.332 321.192 662.561 321.192C654.889 321.192 648.613 315.015 648.613 307.243C648.713 299.472 654.889 293.295 662.561 293.295Z" fill="url(#paint64_linear_2665_440)"/>
<path fill-rule="evenodd" clip-rule="evenodd" d="M676.508 307.243C676.409 314.915 670.232 321.092 662.66 321.092C654.989 321.092 648.812 314.915 648.812 307.243H676.508Z" fill="url(#paint65_linear_2665_440)"/>
<path fill-rule="evenodd" clip-rule="evenodd" d="M346.587 558.734H332.512L328.53 767.14H350.014L346.587 558.734Z" fill="url(#paint66_linear_2665_440)"/>
<path fill-rule="evenodd" clip-rule="evenodd" d="M346.587 558.734H332.512V561.423H346.68L346.587 558.734Z" fill="url(#paint67_linear_2665_440)"/>
<path fill-rule="evenodd" clip-rule="evenodd" d="M339.549 558.734H332.512L328.53 767.14H342.976L339.549 558.734Z" fill="url(#paint68_linear_2665_440)"/>
<path fill-rule="evenodd" clip-rule="evenodd" d="M339.549 558.734H332.512V561.423H339.642L339.549 558.734Z" fill="url(#paint69_linear_2665_440)"/>
<path fill-rule="evenodd" clip-rule="evenodd" d="M328.808 754.531L328.715 757.313H349.921L349.828 754.531H328.808Z" fill="url(#paint70_linear_2665_440)"/>
<path fill-rule="evenodd" clip-rule="evenodd" d="M315.38 547.053L281.395 539.544L225.277 543.716L225.463 546.497L315.38 552.616V547.053Z" fill="url(#paint71_linear_2665_440)"/>
<path fill-rule="evenodd" clip-rule="evenodd" d="M225.277 543.716L225.463 546.497L315.38 552.616V549.834L225.277 543.716Z" fill="url(#paint72_linear_2665_440)"/>
<path d="M315.38 547.053H324.085V552.523H315.38V547.053Z" fill="url(#paint73_linear_2665_440)"/>
<path fill-rule="evenodd" clip-rule="evenodd" d="M354.273 543.067H327.326C327.233 543.067 327.233 543.067 327.233 543.159V558.734H354.273C358.533 558.734 362.052 555.211 362.052 550.947C362.052 546.59 358.533 543.067 354.273 543.067Z" fill="url(#paint74_linear_2665_440)"/>
<path fill-rule="evenodd" clip-rule="evenodd" d="M327.326 550.947V558.734H354.273C358.533 558.734 362.052 555.211 362.052 550.947H327.326Z" fill="url(#paint75_linear_2665_440)"/>
<path fill-rule="evenodd" clip-rule="evenodd" d="M328.9 563.833L337.975 597.486L367.516 645.415L369.923 643.932L333.716 561.237L328.9 563.833Z" fill="url(#paint76_linear_2665_440)"/>
<path fill-rule="evenodd" clip-rule="evenodd" d="M367.516 645.415L369.923 643.932L333.716 561.237L331.308 562.535L367.516 645.415Z" fill="url(#paint77_linear_2665_440)"/>
<path fill-rule="evenodd" clip-rule="evenodd" d="M328.9 563.833L324.918 556.138L329.734 553.543L333.716 561.237L328.9 563.833Z" fill="url(#paint78_linear_2665_440)"/>
<path d="M325.196 757.313H353.44V767.14H325.196V757.313Z" fill="url(#paint79_linear_2665_440)"/>
<path fill-rule="evenodd" clip-rule="evenodd" d="M333.623 539.729L348.902 508.394L387.147 467.14L389.277 468.994L359.459 511.917L337.883 543.159L333.623 539.729Z" fill="url(#paint80_linear_2665_440)"/>
<path fill-rule="evenodd" clip-rule="evenodd" d="M387.147 467.14L389.277 468.994L359.459 511.917L337.883 543.159L335.753 541.491L387.147 467.14Z" fill="url(#paint81_linear_2665_440)"/>
<path fill-rule="evenodd" clip-rule="evenodd" d="M333.623 539.729L328.159 546.497L332.419 549.927L337.883 543.159L333.623 539.729Z" fill="url(#paint82_linear_2665_440)"/>
<path fill-rule="evenodd" clip-rule="evenodd" d="M327.326 541.954C322.325 541.954 318.343 545.941 318.343 550.947C318.343 555.953 322.325 559.939 327.326 559.939C332.326 559.939 336.308 555.953 336.308 550.947C336.308 545.941 332.326 541.954 327.326 541.954Z" fill="url(#paint83_linear_2665_440)"/>
<path fill-rule="evenodd" clip-rule="evenodd" d="M318.343 550.947C318.343 555.86 322.418 559.939 327.326 559.939C332.234 559.939 336.308 555.953 336.308 550.947H318.343Z" fill="url(#paint84_linear_2665_440)"/>
<path fill-rule="evenodd" clip-rule="evenodd" d="M327.326 543.901C323.437 543.901 320.288 547.053 320.288 550.947C320.288 554.84 323.437 557.993 327.326 557.993C331.215 557.993 334.364 554.84 334.364 550.947C334.364 547.053 331.215 543.901 327.326 543.901Z" fill="url(#paint85_linear_2665_440)"/>
<path fill-rule="evenodd" clip-rule="evenodd" d="M320.288 550.947C320.288 554.84 323.437 557.9 327.326 557.9C331.215 557.9 334.271 554.748 334.364 550.947H320.288Z" fill="url(#paint86_linear_2665_440)"/>
<path fill-rule="evenodd" clip-rule="evenodd" d="M1363.48 666.811C1363.48 666.811 1253.18 715.711 1145.98 749.211C1061.28 775.611 978.477 792.411 953.777 767.711C940.977 754.911 886.777 748.011 810.677 744.911C676.777 739.411 475.177 745.811 312.277 753.111V632.511L504.177 440.611H594.777L799.377 236.011H872.177L1060.58 424.311H1121.08L1363.48 666.811Z" fill="url(#paint87_linear_2665_440)"/>
<path fill-rule="evenodd" clip-rule="evenodd" d="M500.777 467.164C469.466 541.156 454.16 621.233 500.777 631.164C547.395 621.233 532.089 541.156 500.777 467.164Z" fill="url(#paint88_linear_2665_440)"/>
<path fill-rule="evenodd" clip-rule="evenodd" d="M261.5 286.161H0V176.361C8.1 174.161 16.7 172.961 25.5 172.961C53 172.961 77.9 184.361 95.6 202.661C103.3 210.661 114.5 214.261 125.5 212.661C128.9 212.161 132.3 211.961 135.9 211.961C158 211.961 177.8 221.661 191.4 236.961C198.1 244.561 207.8 248.861 217.9 248.761C218 248.761 218 248.761 218.1 248.761C240.1 248.861 258.3 265.061 261.5 286.161Z" fill="url(#paint89_linear_2665_440)"/>
<path fill-rule="evenodd" clip-rule="evenodd" d="M1405.08 161.1H913.277C923.477 120 960.677 89.5 1004.88 89.5C1006.88 89.5 1008.88 89.6 1010.88 89.7C1024.18 90.5 1036.98 84.7 1045.18 74.2C1065.68 47.9 1097.78 31 1133.68 31C1165.38 31 1193.98 44.1 1214.38 65.2C1223.28 74.4 1236.08 78.5 1248.78 76.7C1252.68 76.2 1256.68 75.9 1260.68 75.9C1286.08 75.9 1308.88 87 1324.48 104.6C1332.18 113.3 1343.28 118.2 1354.98 118.2C1355.08 118.2 1355.08 118.2 1355.18 118.2C1380.48 118.2 1401.48 136.8 1405.08 161.1Z" fill="url(#paint90_linear_2665_440)"/>
</g>
<defs>
<linearGradient id="paint0_linear_2665_440" x1="1761.83" y1="534.633" x2="1761.83" y2="-155.494" gradientUnits="userSpaceOnUse">
<stop stop-color="#F1EFE6" stop-opacity="0"/>
<stop offset="0.8667" stop-color="#F1EFE6"/>
</linearGradient>
<linearGradient id="paint1_linear_2665_440" x1="2227.16" y1="879.429" x2="2227.16" y2="482.429" gradientUnits="userSpaceOnUse">
<stop offset="0.272214" stop-color="#F1EFE6" stop-opacity="0"/>
<stop offset="0.9301" stop-color="#F1EFE6"/>
</linearGradient>
<linearGradient id="paint2_linear_2665_440" x1="2227.16" y1="879.429" x2="2227.16" y2="482.429" gradientUnits="userSpaceOnUse">
<stop offset="0.272214" stop-color="#F1EFE6" stop-opacity="0"/>
<stop offset="0.9301" stop-color="#F1EFE6"/>
</linearGradient>
<linearGradient id="paint3_linear_2665_440" x1="2227.16" y1="879.429" x2="2227.16" y2="482.429" gradientUnits="userSpaceOnUse">
<stop offset="0.272214" stop-color="#F1EFE6" stop-opacity="0"/>
<stop offset="0.9301" stop-color="#F1EFE6"/>
</linearGradient>
<linearGradient id="paint4_linear_2665_440" x1="2227.16" y1="879.429" x2="2227.16" y2="482.429" gradientUnits="userSpaceOnUse">
<stop offset="0.272214" stop-color="#F1EFE6" stop-opacity="0"/>
<stop offset="0.9301" stop-color="#F1EFE6"/>
</linearGradient>
<linearGradient id="paint5_linear_2665_440" x1="2227.16" y1="879.429" x2="2227.16" y2="482.429" gradientUnits="userSpaceOnUse">
<stop offset="0.272214" stop-color="#F1EFE6" stop-opacity="0"/>
<stop offset="0.9301" stop-color="#F1EFE6"/>
</linearGradient>
<linearGradient id="paint6_linear_2665_440" x1="2227.16" y1="879.429" x2="2227.16" y2="482.429" gradientUnits="userSpaceOnUse">
<stop offset="0.272214" stop-color="#F1EFE6" stop-opacity="0"/>
<stop offset="0.9301" stop-color="#F1EFE6"/>
</linearGradient>
<linearGradient id="paint7_linear_2665_440" x1="2227.16" y1="879.429" x2="2227.16" y2="482.429" gradientUnits="userSpaceOnUse">
<stop offset="0.272214" stop-color="#F1EFE6" stop-opacity="0"/>
<stop offset="0.9301" stop-color="#F1EFE6"/>
</linearGradient>
<linearGradient id="paint8_linear_2665_440" x1="2227.16" y1="879.429" x2="2227.16" y2="482.429" gradientUnits="userSpaceOnUse">
<stop offset="0.272214" stop-color="#F1EFE6" stop-opacity="0"/>
<stop offset="0.9301" stop-color="#F1EFE6"/>
</linearGradient>
<linearGradient id="paint9_linear_2665_440" x1="2227.16" y1="879.429" x2="2227.16" y2="482.429" gradientUnits="userSpaceOnUse">
<stop offset="0.272214" stop-color="#F1EFE6" stop-opacity="0"/>
<stop offset="0.9301" stop-color="#F1EFE6"/>
</linearGradient>
<linearGradient id="paint10_linear_2665_440" x1="2227.16" y1="879.429" x2="2227.16" y2="482.429" gradientUnits="userSpaceOnUse">
<stop offset="0.272214" stop-color="#F1EFE6" stop-opacity="0"/>
<stop offset="0.9301" stop-color="#F1EFE6"/>
</linearGradient>
<linearGradient id="paint11_linear_2665_440" x1="2227.16" y1="879.429" x2="2227.16" y2="482.429" gradientUnits="userSpaceOnUse">
<stop offset="0.272214" stop-color="#F1EFE6" stop-opacity="0"/>
<stop offset="0.9301" stop-color="#F1EFE6"/>
</linearGradient>
<linearGradient id="paint12_linear_2665_440" x1="2227.16" y1="879.429" x2="2227.16" y2="482.429" gradientUnits="userSpaceOnUse">
<stop offset="0.272214" stop-color="#F1EFE6" stop-opacity="0"/>
<stop offset="0.9301" stop-color="#F1EFE6"/>
</linearGradient>
<linearGradient id="paint13_linear_2665_440" x1="2227.16" y1="879.429" x2="2227.16" y2="482.429" gradientUnits="userSpaceOnUse">
<stop offset="0.272214" stop-color="#F1EFE6" stop-opacity="0"/>
<stop offset="0.9301" stop-color="#F1EFE6"/>
</linearGradient>
<linearGradient id="paint14_linear_2665_440" x1="2227.16" y1="879.429" x2="2227.16" y2="482.429" gradientUnits="userSpaceOnUse">
<stop offset="0.272214" stop-color="#F1EFE6" stop-opacity="0"/>
<stop offset="0.9301" stop-color="#F1EFE6"/>
</linearGradient>
<linearGradient id="paint15_linear_2665_440" x1="2227.16" y1="879.429" x2="2227.16" y2="482.429" gradientUnits="userSpaceOnUse">
<stop offset="0.272214" stop-color="#F1EFE6" stop-opacity="0"/>
<stop offset="0.9301" stop-color="#F1EFE6"/>
</linearGradient>
<linearGradient id="paint16_linear_2665_440" x1="2227.16" y1="879.429" x2="2227.16" y2="482.429" gradientUnits="userSpaceOnUse">
<stop offset="0.272214" stop-color="#F1EFE6" stop-opacity="0"/>
<stop offset="0.9301" stop-color="#F1EFE6"/>
</linearGradient>
<linearGradient id="paint17_linear_2665_440" x1="2227.16" y1="879.429" x2="2227.16" y2="482.429" gradientUnits="userSpaceOnUse">
<stop offset="0.272214" stop-color="#F1EFE6" stop-opacity="0"/>
<stop offset="0.9301" stop-color="#F1EFE6"/>
</linearGradient>
<linearGradient id="paint18_linear_2665_440" x1="2227.16" y1="879.429" x2="2227.16" y2="482.429" gradientUnits="userSpaceOnUse">
<stop offset="0.272214" stop-color="#F1EFE6" stop-opacity="0"/>
<stop offset="0.9301" stop-color="#F1EFE6"/>
</linearGradient>
<linearGradient id="paint19_linear_2665_440" x1="2227.16" y1="879.429" x2="2227.16" y2="482.429" gradientUnits="userSpaceOnUse">
<stop offset="0.272214" stop-color="#F1EFE6" stop-opacity="0"/>
<stop offset="0.9301" stop-color="#F1EFE6"/>
</linearGradient>
<linearGradient id="paint20_linear_2665_440" x1="2227.16" y1="879.429" x2="2227.16" y2="482.429" gradientUnits="userSpaceOnUse">
<stop offset="0.272214" stop-color="#F1EFE6" stop-opacity="0"/>
<stop offset="0.9301" stop-color="#F1EFE6"/>
</linearGradient>
<linearGradient id="paint21_linear_2665_440" x1="2227.16" y1="879.429" x2="2227.16" y2="482.429" gradientUnits="userSpaceOnUse">
<stop offset="0.272214" stop-color="#F1EFE6" stop-opacity="0"/>
<stop offset="0.9301" stop-color="#F1EFE6"/>
</linearGradient>
<linearGradient id="paint22_linear_2665_440" x1="1887.39" y1="769.853" x2="1881.14" y2="341.922" gradientUnits="userSpaceOnUse">
<stop offset="0.151628" stop-color="#F1EFE6" stop-opacity="0"/>
<stop offset="0.950694" stop-color="#F1EFE6"/>
</linearGradient>
<linearGradient id="paint23_linear_2665_440" x1="1887.39" y1="769.853" x2="1881.14" y2="341.922" gradientUnits="userSpaceOnUse">
<stop offset="0.151628" stop-color="#F1EFE6" stop-opacity="0"/>
<stop offset="0.950694" stop-color="#F1EFE6"/>
</linearGradient>
<linearGradient id="paint24_linear_2665_440" x1="1887.39" y1="769.853" x2="1881.14" y2="341.922" gradientUnits="userSpaceOnUse">
<stop offset="0.151628" stop-color="#F1EFE6" stop-opacity="0"/>
<stop offset="0.950694" stop-color="#F1EFE6"/>
</linearGradient>
<linearGradient id="paint25_linear_2665_440" x1="1887.39" y1="769.853" x2="1881.14" y2="341.922" gradientUnits="userSpaceOnUse">
<stop offset="0.151628" stop-color="#F1EFE6" stop-opacity="0"/>
<stop offset="0.950694" stop-color="#F1EFE6"/>
</linearGradient>
<linearGradient id="paint26_linear_2665_440" x1="1887.39" y1="769.853" x2="1881.14" y2="341.922" gradientUnits="userSpaceOnUse">
<stop offset="0.151628" stop-color="#F1EFE6" stop-opacity="0"/>
<stop offset="0.950694" stop-color="#F1EFE6"/>
</linearGradient>
<linearGradient id="paint27_linear_2665_440" x1="1887.39" y1="769.853" x2="1881.14" y2="341.922" gradientUnits="userSpaceOnUse">
<stop offset="0.151628" stop-color="#F1EFE6" stop-opacity="0"/>
<stop offset="0.950694" stop-color="#F1EFE6"/>
</linearGradient>
<linearGradient id="paint28_linear_2665_440" x1="1887.39" y1="769.853" x2="1881.14" y2="341.922" gradientUnits="userSpaceOnUse">
<stop offset="0.151628" stop-color="#F1EFE6" stop-opacity="0"/>
<stop offset="0.950694" stop-color="#F1EFE6"/>
</linearGradient>
<linearGradient id="paint29_linear_2665_440" x1="1887.39" y1="769.853" x2="1881.14" y2="341.922" gradientUnits="userSpaceOnUse">
<stop offset="0.151628" stop-color="#F1EFE6" stop-opacity="0"/>
<stop offset="0.950694" stop-color="#F1EFE6"/>
</linearGradient>
<linearGradient id="paint30_linear_2665_440" x1="1887.39" y1="769.853" x2="1881.14" y2="341.922" gradientUnits="userSpaceOnUse">
<stop offset="0.151628" stop-color="#F1EFE6" stop-opacity="0"/>
<stop offset="0.950694" stop-color="#F1EFE6"/>
</linearGradient>
<linearGradient id="paint31_linear_2665_440" x1="1887.39" y1="769.853" x2="1881.14" y2="341.922" gradientUnits="userSpaceOnUse">
<stop offset="0.151628" stop-color="#F1EFE6" stop-opacity="0"/>
<stop offset="0.950694" stop-color="#F1EFE6"/>
</linearGradient>
<linearGradient id="paint32_linear_2665_440" x1="1887.39" y1="769.853" x2="1881.14" y2="341.922" gradientUnits="userSpaceOnUse">
<stop offset="0.151628" stop-color="#F1EFE6" stop-opacity="0"/>
<stop offset="0.950694" stop-color="#F1EFE6"/>
</linearGradient>
<linearGradient id="paint33_linear_2665_440" x1="1887.39" y1="769.853" x2="1881.14" y2="341.922" gradientUnits="userSpaceOnUse">
<stop offset="0.151628" stop-color="#F1EFE6" stop-opacity="0"/>
<stop offset="0.950694" stop-color="#F1EFE6"/>
</linearGradient>
<linearGradient id="paint34_linear_2665_440" x1="1887.39" y1="769.853" x2="1881.14" y2="341.922" gradientUnits="userSpaceOnUse">
<stop offset="0.151628" stop-color="#F1EFE6" stop-opacity="0"/>
<stop offset="0.950694" stop-color="#F1EFE6"/>
</linearGradient>
<linearGradient id="paint35_linear_2665_440" x1="1887.39" y1="769.853" x2="1881.14" y2="341.922" gradientUnits="userSpaceOnUse">
<stop offset="0.151628" stop-color="#F1EFE6" stop-opacity="0"/>
<stop offset="0.950694" stop-color="#F1EFE6"/>
</linearGradient>
<linearGradient id="paint36_linear_2665_440" x1="1887.39" y1="769.853" x2="1881.14" y2="341.922" gradientUnits="userSpaceOnUse">
<stop offset="0.151628" stop-color="#F1EFE6" stop-opacity="0"/>
<stop offset="0.950694" stop-color="#F1EFE6"/>
</linearGradient>
<linearGradient id="paint37_linear_2665_440" x1="1887.39" y1="769.853" x2="1881.14" y2="341.922" gradientUnits="userSpaceOnUse">
<stop offset="0.151628" stop-color="#F1EFE6" stop-opacity="0"/>
<stop offset="0.950694" stop-color="#F1EFE6"/>
</linearGradient>
<linearGradient id="paint38_linear_2665_440" x1="1887.39" y1="769.853" x2="1881.14" y2="341.922" gradientUnits="userSpaceOnUse">
<stop offset="0.151628" stop-color="#F1EFE6" stop-opacity="0"/>
<stop offset="0.950694" stop-color="#F1EFE6"/>
</linearGradient>
<linearGradient id="paint39_linear_2665_440" x1="1887.39" y1="769.853" x2="1881.14" y2="341.922" gradientUnits="userSpaceOnUse">
<stop offset="0.151628" stop-color="#F1EFE6" stop-opacity="0"/>
<stop offset="0.950694" stop-color="#F1EFE6"/>
</linearGradient>
<linearGradient id="paint40_linear_2665_440" x1="1887.39" y1="769.853" x2="1881.14" y2="341.922" gradientUnits="userSpaceOnUse">
<stop offset="0.151628" stop-color="#F1EFE6" stop-opacity="0"/>
<stop offset="0.950694" stop-color="#F1EFE6"/>
</linearGradient>
<linearGradient id="paint41_linear_2665_440" x1="1887.39" y1="769.853" x2="1881.14" y2="341.922" gradientUnits="userSpaceOnUse">
<stop offset="0.151628" stop-color="#F1EFE6" stop-opacity="0"/>
<stop offset="0.950694" stop-color="#F1EFE6"/>
</linearGradient>
<linearGradient id="paint42_linear_2665_440" x1="1887.39" y1="769.853" x2="1881.14" y2="341.922" gradientUnits="userSpaceOnUse">
<stop offset="0.151628" stop-color="#F1EFE6" stop-opacity="0"/>
<stop offset="0.950694" stop-color="#F1EFE6"/>
</linearGradient>
<linearGradient id="paint43_linear_2665_440" x1="2081.78" y1="581.605" x2="2081.78" y2="375.287" gradientUnits="userSpaceOnUse">
<stop offset="0.204195" stop-color="#F1EFE6" stop-opacity="0"/>
<stop offset="1" stop-color="#F1EFE6"/>
</linearGradient>
<linearGradient id="paint44_linear_2665_440" x1="2423.49" y1="13.5461" x2="2424" y2="279.001" gradientUnits="userSpaceOnUse">
<stop stop-color="#F1EFE6"/>
<stop offset="1" stop-color="#F1EFE6" stop-opacity="0"/>
</linearGradient>
<linearGradient id="paint45_linear_2665_440" x1="662.58" y1="965.835" x2="666.546" y2="281.375" gradientUnits="userSpaceOnUse">
<stop offset="0.356868" stop-color="#F1EFE6" stop-opacity="0"/>
<stop offset="0.9301" stop-color="#F1EFE6"/>
</linearGradient>
<linearGradient id="paint46_linear_2665_440" x1="662.58" y1="965.835" x2="666.546" y2="281.375" gradientUnits="userSpaceOnUse">
<stop offset="0.356868" stop-color="#F1EFE6" stop-opacity="0"/>
<stop offset="0.9301" stop-color="#F1EFE6"/>
</linearGradient>
<linearGradient id="paint47_linear_2665_440" x1="662.58" y1="965.835" x2="666.546" y2="281.375" gradientUnits="userSpaceOnUse">
<stop offset="0.356868" stop-color="#F1EFE6" stop-opacity="0"/>
<stop offset="0.9301" stop-color="#F1EFE6"/>
</linearGradient>
<linearGradient id="paint48_linear_2665_440" x1="662.58" y1="965.835" x2="666.546" y2="281.375" gradientUnits="userSpaceOnUse">
<stop offset="0.356868" stop-color="#F1EFE6" stop-opacity="0"/>
<stop offset="0.9301" stop-color="#F1EFE6"/>
</linearGradient>
<linearGradient id="paint49_linear_2665_440" x1="662.58" y1="965.835" x2="666.546" y2="281.375" gradientUnits="userSpaceOnUse">
<stop offset="0.356868" stop-color="#F1EFE6" stop-opacity="0"/>
<stop offset="0.9301" stop-color="#F1EFE6"/>
</linearGradient>
<linearGradient id="paint50_linear_2665_440" x1="662.58" y1="965.835" x2="666.546" y2="281.375" gradientUnits="userSpaceOnUse">
<stop offset="0.356868" stop-color="#F1EFE6" stop-opacity="0"/>
<stop offset="0.9301" stop-color="#F1EFE6"/>
</linearGradient>
<linearGradient id="paint51_linear_2665_440" x1="662.58" y1="965.835" x2="666.546" y2="281.375" gradientUnits="userSpaceOnUse">
<stop offset="0.356868" stop-color="#F1EFE6" stop-opacity="0"/>
<stop offset="0.9301" stop-color="#F1EFE6"/>
</linearGradient>
<linearGradient id="paint52_linear_2665_440" x1="662.58" y1="965.835" x2="666.546" y2="281.375" gradientUnits="userSpaceOnUse">
<stop offset="0.356868" stop-color="#F1EFE6" stop-opacity="0"/>
<stop offset="0.9301" stop-color="#F1EFE6"/>
</linearGradient>
<linearGradient id="paint53_linear_2665_440" x1="662.58" y1="965.835" x2="666.546" y2="281.375" gradientUnits="userSpaceOnUse">
<stop offset="0.356868" stop-color="#F1EFE6" stop-opacity="0"/>
<stop offset="0.9301" stop-color="#F1EFE6"/>
</linearGradient>
<linearGradient id="paint54_linear_2665_440" x1="662.58" y1="965.835" x2="666.546" y2="281.375" gradientUnits="userSpaceOnUse">
<stop offset="0.356868" stop-color="#F1EFE6" stop-opacity="0"/>
<stop offset="0.9301" stop-color="#F1EFE6"/>
</linearGradient>
<linearGradient id="paint55_linear_2665_440" x1="662.58" y1="965.835" x2="666.546" y2="281.375" gradientUnits="userSpaceOnUse">
<stop offset="0.356868" stop-color="#F1EFE6" stop-opacity="0"/>
<stop offset="0.9301" stop-color="#F1EFE6"/>
</linearGradient>
<linearGradient id="paint56_linear_2665_440" x1="662.58" y1="965.835" x2="666.546" y2="281.375" gradientUnits="userSpaceOnUse">
<stop offset="0.356868" stop-color="#F1EFE6" stop-opacity="0"/>
<stop offset="0.9301" stop-color="#F1EFE6"/>
</linearGradient>
<linearGradient id="paint57_linear_2665_440" x1="662.58" y1="965.835" x2="666.546" y2="281.375" gradientUnits="userSpaceOnUse">
<stop offset="0.356868" stop-color="#F1EFE6" stop-opacity="0"/>
<stop offset="0.9301" stop-color="#F1EFE6"/>
</linearGradient>
<linearGradient id="paint58_linear_2665_440" x1="662.58" y1="965.835" x2="666.546" y2="281.375" gradientUnits="userSpaceOnUse">
<stop offset="0.356868" stop-color="#F1EFE6" stop-opacity="0"/>
<stop offset="0.9301" stop-color="#F1EFE6"/>
</linearGradient>
<linearGradient id="paint59_linear_2665_440" x1="662.58" y1="965.835" x2="666.546" y2="281.375" gradientUnits="userSpaceOnUse">
<stop offset="0.356868" stop-color="#F1EFE6" stop-opacity="0"/>
<stop offset="0.9301" stop-color="#F1EFE6"/>
</linearGradient>
<linearGradient id="paint60_linear_2665_440" x1="662.58" y1="965.835" x2="666.546" y2="281.375" gradientUnits="userSpaceOnUse">
<stop offset="0.356868" stop-color="#F1EFE6" stop-opacity="0"/>
<stop offset="0.9301" stop-color="#F1EFE6"/>
</linearGradient>
<linearGradient id="paint61_linear_2665_440" x1="662.58" y1="965.835" x2="666.546" y2="281.375" gradientUnits="userSpaceOnUse">
<stop offset="0.356868" stop-color="#F1EFE6" stop-opacity="0"/>
<stop offset="0.9301" stop-color="#F1EFE6"/>
</linearGradient>
<linearGradient id="paint62_linear_2665_440" x1="662.58" y1="965.835" x2="666.546" y2="281.375" gradientUnits="userSpaceOnUse">
<stop offset="0.356868" stop-color="#F1EFE6" stop-opacity="0"/>
<stop offset="0.9301" stop-color="#F1EFE6"/>
</linearGradient>
<linearGradient id="paint63_linear_2665_440" x1="662.58" y1="965.835" x2="666.546" y2="281.375" gradientUnits="userSpaceOnUse">
<stop offset="0.356868" stop-color="#F1EFE6" stop-opacity="0"/>
<stop offset="0.9301" stop-color="#F1EFE6"/>
</linearGradient>
<linearGradient id="paint64_linear_2665_440" x1="662.58" y1="965.835" x2="666.546" y2="281.375" gradientUnits="userSpaceOnUse">
<stop offset="0.356868" stop-color="#F1EFE6" stop-opacity="0"/>
<stop offset="0.9301" stop-color="#F1EFE6"/>
</linearGradient>
<linearGradient id="paint65_linear_2665_440" x1="662.58" y1="965.835" x2="666.546" y2="281.375" gradientUnits="userSpaceOnUse">
<stop offset="0.356868" stop-color="#F1EFE6" stop-opacity="0"/>
<stop offset="0.9301" stop-color="#F1EFE6"/>
</linearGradient>
<linearGradient id="paint66_linear_2665_440" x1="327.34" y1="867.947" x2="327.34" y2="499.9" gradientUnits="userSpaceOnUse">
<stop offset="0.279197" stop-color="#F1EFE6" stop-opacity="0"/>
<stop offset="0.9301" stop-color="#F1EFE6"/>
</linearGradient>
<linearGradient id="paint67_linear_2665_440" x1="327.34" y1="867.947" x2="327.34" y2="499.9" gradientUnits="userSpaceOnUse">
<stop offset="0.279197" stop-color="#F1EFE6" stop-opacity="0"/>
<stop offset="0.9301" stop-color="#F1EFE6"/>
</linearGradient>
<linearGradient id="paint68_linear_2665_440" x1="327.34" y1="867.947" x2="327.34" y2="499.9" gradientUnits="userSpaceOnUse">
<stop offset="0.279197" stop-color="#F1EFE6" stop-opacity="0"/>
<stop offset="0.9301" stop-color="#F1EFE6"/>
</linearGradient>
<linearGradient id="paint69_linear_2665_440" x1="327.34" y1="867.947" x2="327.34" y2="499.9" gradientUnits="userSpaceOnUse">
<stop offset="0.279197" stop-color="#F1EFE6" stop-opacity="0"/>
<stop offset="0.9301" stop-color="#F1EFE6"/>
</linearGradient>
<linearGradient id="paint70_linear_2665_440" x1="327.34" y1="867.947" x2="327.34" y2="499.9" gradientUnits="userSpaceOnUse">
<stop offset="0.279197" stop-color="#F1EFE6" stop-opacity="0"/>
<stop offset="0.9301" stop-color="#F1EFE6"/>
</linearGradient>
<linearGradient id="paint71_linear_2665_440" x1="327.34" y1="867.947" x2="327.34" y2="499.9" gradientUnits="userSpaceOnUse">
<stop offset="0.279197" stop-color="#F1EFE6" stop-opacity="0"/>
<stop offset="0.9301" stop-color="#F1EFE6"/>
</linearGradient>
<linearGradient id="paint72_linear_2665_440" x1="327.34" y1="867.947" x2="327.34" y2="499.9" gradientUnits="userSpaceOnUse">
<stop offset="0.279197" stop-color="#F1EFE6" stop-opacity="0"/>
<stop offset="0.9301" stop-color="#F1EFE6"/>
</linearGradient>
<linearGradient id="paint73_linear_2665_440" x1="327.34" y1="867.947" x2="327.34" y2="499.9" gradientUnits="userSpaceOnUse">
<stop offset="0.279197" stop-color="#F1EFE6" stop-opacity="0"/>
<stop offset="0.9301" stop-color="#F1EFE6"/>
</linearGradient>
<linearGradient id="paint74_linear_2665_440" x1="327.34" y1="867.947" x2="327.34" y2="499.9" gradientUnits="userSpaceOnUse">
<stop offset="0.279197" stop-color="#F1EFE6" stop-opacity="0"/>
<stop offset="0.9301" stop-color="#F1EFE6"/>
</linearGradient>
<linearGradient id="paint75_linear_2665_440" x1="327.34" y1="867.947" x2="327.34" y2="499.9" gradientUnits="userSpaceOnUse">
<stop offset="0.279197" stop-color="#F1EFE6" stop-opacity="0"/>
<stop offset="0.9301" stop-color="#F1EFE6"/>
</linearGradient>
<linearGradient id="paint76_linear_2665_440" x1="327.34" y1="867.947" x2="327.34" y2="499.9" gradientUnits="userSpaceOnUse">
<stop offset="0.279197" stop-color="#F1EFE6" stop-opacity="0"/>
<stop offset="0.9301" stop-color="#F1EFE6"/>
</linearGradient>
<linearGradient id="paint77_linear_2665_440" x1="327.34" y1="867.947" x2="327.34" y2="499.9" gradientUnits="userSpaceOnUse">
<stop offset="0.279197" stop-color="#F1EFE6" stop-opacity="0"/>
<stop offset="0.9301" stop-color="#F1EFE6"/>
</linearGradient>
<linearGradient id="paint78_linear_2665_440" x1="327.34" y1="867.947" x2="327.34" y2="499.9" gradientUnits="userSpaceOnUse">
<stop offset="0.279197" stop-color="#F1EFE6" stop-opacity="0"/>
<stop offset="0.9301" stop-color="#F1EFE6"/>
</linearGradient>
<linearGradient id="paint79_linear_2665_440" x1="327.34" y1="867.947" x2="327.34" y2="499.9" gradientUnits="userSpaceOnUse">
<stop offset="0.279197" stop-color="#F1EFE6" stop-opacity="0"/>
<stop offset="0.9301" stop-color="#F1EFE6"/>
</linearGradient>
<linearGradient id="paint80_linear_2665_440" x1="327.34" y1="867.947" x2="327.34" y2="499.9" gradientUnits="userSpaceOnUse">
<stop offset="0.279197" stop-color="#F1EFE6" stop-opacity="0"/>
<stop offset="0.9301" stop-color="#F1EFE6"/>
</linearGradient>
<linearGradient id="paint81_linear_2665_440" x1="327.34" y1="867.947" x2="327.34" y2="499.9" gradientUnits="userSpaceOnUse">
<stop offset="0.279197" stop-color="#F1EFE6" stop-opacity="0"/>
<stop offset="0.9301" stop-color="#F1EFE6"/>
</linearGradient>
<linearGradient id="paint82_linear_2665_440" x1="327.34" y1="867.947" x2="327.34" y2="499.9" gradientUnits="userSpaceOnUse">
<stop offset="0.279197" stop-color="#F1EFE6" stop-opacity="0"/>
<stop offset="0.9301" stop-color="#F1EFE6"/>
</linearGradient>
<linearGradient id="paint83_linear_2665_440" x1="327.34" y1="867.947" x2="327.34" y2="499.9" gradientUnits="userSpaceOnUse">
<stop offset="0.279197" stop-color="#F1EFE6" stop-opacity="0"/>
<stop offset="0.9301" stop-color="#F1EFE6"/>
</linearGradient>
<linearGradient id="paint84_linear_2665_440" x1="327.34" y1="867.947" x2="327.34" y2="499.9" gradientUnits="userSpaceOnUse">
<stop offset="0.279197" stop-color="#F1EFE6" stop-opacity="0"/>
<stop offset="0.9301" stop-color="#F1EFE6"/>
</linearGradient>
<linearGradient id="paint85_linear_2665_440" x1="327.34" y1="867.947" x2="327.34" y2="499.9" gradientUnits="userSpaceOnUse">
<stop offset="0.279197" stop-color="#F1EFE6" stop-opacity="0"/>
<stop offset="0.9301" stop-color="#F1EFE6"/>
</linearGradient>
<linearGradient id="paint86_linear_2665_440" x1="327.34" y1="867.947" x2="327.34" y2="499.9" gradientUnits="userSpaceOnUse">
<stop offset="0.279197" stop-color="#F1EFE6" stop-opacity="0"/>
<stop offset="0.9301" stop-color="#F1EFE6"/>
</linearGradient>
<linearGradient id="paint87_linear_2665_440" x1="837.902" y1="469.154" x2="837.902" y2="-343.374" gradientUnits="userSpaceOnUse">
<stop stop-color="#F1EFE6" stop-opacity="0"/>
<stop offset="0.8667" stop-color="#F1EFE6"/>
</linearGradient>
<linearGradient id="paint88_linear_2665_440" x1="500.791" y1="765.386" x2="500.791" y2="422.593" gradientUnits="userSpaceOnUse">
<stop offset="0.263256" stop-color="#F1EFE6" stop-opacity="0"/>
<stop offset="0.987502" stop-color="#F1EFE6"/>
</linearGradient>
<linearGradient id="paint89_linear_2665_440" x1="130.745" y1="-44.5767" x2="130.745" y2="285.674" gradientUnits="userSpaceOnUse">
<stop stop-color="#F1EFE6"/>
<stop offset="1" stop-color="#F1EFE6" stop-opacity="0"/>
</linearGradient>
<linearGradient id="paint90_linear_2665_440" x1="1159.2" y1="-164.664" x2="1159.2" y2="225.756" gradientUnits="userSpaceOnUse">
<stop stop-color="#F1EFE6"/>
<stop offset="0.885368" stop-color="#F1EFE6" stop-opacity="0"/>
</linearGradient>
<clipPath id="clip0_2665_440">
<rect width="2560" height="780" fill="white"/>
</clipPath>
</defs>
</svg>
