<svg xmlns="http://www.w3.org/2000/svg" width="2296" height="750" fill="none" xmlns:v="https://vecta.io/nano"><g clip-path="url(#A)"><g opacity=".9" fill="#fff"><path opacity=".043" d="M4178.73 660.621c17.68 0 35.11-.954 52.06-2.94l-.32-2.464c-111.23 12.794-235.05-16.052-378.48-88.129-43.43-21.774-86.45-45.693-128.1-68.738-69.82-38.621-141.9-78.673-217.45-109.903l-11.22-4.689c-17.51-7.311-35.67-14.86-54-21.376-25.58-8.98-48.75-15.576-70.95-20.185-21.95-4.53-45.36-7.708-71.67-9.695-21.31-1.51-43.18-2.145-67-1.907a992.57 992.57 0 0 0-136.41 10.887c-47.46 6.993-96.05 18.277-137.86 28.29l-3.55.874c-50.29 12-102.19 24.476-151.75 30.198-41.25 4.688-75.71 4.052-108.4-2.066-26.96-5.007-54.65-14.543-82.25-28.211-39.39-19.39-80.64-48.237-126.24-88.05-14.37-12.555-28.33-25.429-41.41-37.508l-30.67-28.767c-33.01-31.071-64.17-60.395-98.07-87.175-4.6-3.656-9.37-7.311-14.13-10.808-47.7-35.442-99.6-64.527-158.69-88.764-30.1-12.397-61.5-23.204-94.76-34.568l-13.64-4.689-8.72-3.02c-32.52-11.205-63.36-21.774-96.37-29.562-38.1-8.98-80.48-14.225-126-15.655-37.94-1.192-78.54.079-127.69 3.973l.24 2.463c49.08-3.894 89.51-5.165 127.37-3.973 45.36 1.43 87.58 6.675 125.51 15.575 32.94 7.788 63.61 18.277 96.14 29.482l8.71 3.02 13.65 4.689c33.25 11.364 64.65 22.092 94.68 34.489 58.84 24.237 110.58 53.163 158.12 88.526l14.13 10.808c33.82 26.7 64.97 56.024 97.9 87.016l30.76 28.767 41.4 37.508c45.77 39.972 87.26 68.898 126.81 88.447 27.85 13.827 55.69 23.363 82.9 28.449 32.93 6.198 67.64 6.834 109.21 2.066 49.64-5.801 101.7-18.198 151.98-30.277l3.56-.874c41.73-10.013 90.24-21.218 137.62-28.211 44.88-6.754 90.64-10.41 136-10.887 23.74-.238 45.61.398 66.76 1.908 26.15 1.907 49.48 5.085 71.35 9.615 22.12 4.609 45.2 11.205 70.63 20.105 18.32 6.437 36.4 13.986 53.92 21.297l11.3 4.689c75.39 31.23 147.46 71.123 217.2 109.744l128.18 68.818c66.19 33.217 126.32 56.739 184.04 71.759 49.56 13.112 97.74 19.628 143.67 19.628z"/><path opacity=".087" d="M4179.86 650.449a447.42 447.42 0 0 0 51.98-3.02l-.32-2.542c-108.4 12.635-228.75-15.099-367.99-84.792-46.01-23.045-91.69-48.157-135.84-72.394-64.25-35.283-130.76-71.838-199.05-102.433-9.04-4.053-18-8.344-26.64-12.476-12.18-5.881-24.78-11.92-37.69-17.244-26.72-10.967-49.56-18.278-71.84-22.807-22.36-4.609-46.41-7.073-73.45-7.391-20.18-.318-40.68.477-66.59 2.623-43.83 3.576-89.03 10.41-134.31 20.184-25.83 5.563-51.5 12.238-78.62 19.311l-59.65 15.098c-58.12 13.828-111.23 21.774-157.8 23.682-40.04 1.668-73.78-1.51-106.22-10.013-26.32-6.834-52.63-17.801-80.48-33.376-45.85-25.509-90.48-61.19-128.01-92.818l-18.33-15.496-25.34-21.376c-49.48-41.403-90.81-75.414-134.64-104.261l-14.36-9.139c-46.9-29.005-98.88-52.686-159.1-72.155-14.85-4.847-30.1-9.377-46.25-14.145-21.14-6.278-43.02-12.715-64.97-20.344-12.6-4.371-24.95-9.139-36.97-13.668-23.17-8.821-44.96-17.085-68.85-23.522-37.62-10.092-79.99-15.337-129.55-15.973-39.55-.556-79.91 1.828-118.9 4.132l-12.43.715.16 2.622 12.43-.715c38.99-2.304 79.27-4.609 118.74-4.132 49.4.636 91.53 5.801 128.9 15.893 23.73 6.437 45.53 14.701 68.61 23.443l37.05 13.668c21.95 7.629 43.91 14.145 65.06 20.344l46.17 14.145c59.97 19.469 111.79 42.992 158.52 71.918l14.29 9.138c43.67 28.767 84.91 62.7 134.39 104.022l25.35 21.377 18.32 15.496c37.7 31.628 82.41 67.467 128.42 93.056 28.01 15.734 54.48 26.701 81.04 33.614 32.69 8.503 66.67 11.761 106.95 10.092 46.73-1.907 99.93-9.933 158.28-23.76l59.73-15.099 78.46-19.31c45.2-9.775 90.32-16.529 133.99-20.105 25.83-2.067 46.25-2.861 66.35-2.623 26.88.398 50.69 2.781 72.97 7.391 22.11 4.529 44.79 11.761 71.35 22.727 12.83 5.324 25.34 11.364 37.53 17.244l26.72 12.556c68.2 30.515 134.63 66.991 198.8 102.353l135.93 72.474c118.09 58.806 222.54 87.811 317.7 87.811z"/><path opacity=".13" d="M4181.31 640.277a443.5 443.5 0 0 0 51.74-3.019l-.32-2.702c-105.66 12.556-222.54-14.145-357.49-81.454-50.77-25.35-101.22-52.925-150.06-79.626-56.58-30.912-115.1-62.937-174.18-91.386-10.82-5.166-21.15-10.967-31.24-16.609-10.33-5.722-21.07-11.682-32.12-17.006-27.04-12.794-50.13-20.82-72.81-25.509-22.6-4.609-47.87-6.357-75.23-5.165-24.29 1.033-47.06 4.212-66.19 7.152-42.61 6.675-87.17 16.608-132.29 29.403-16.06 4.609-31.96 9.536-48.75 14.781-28.74 8.979-58.44 18.277-89.76 25.667-52.95 12.556-108.4 18.198-160.3 16.37-38.83-1.35-71.84-7.072-103.97-18.038-24.86-8.424-50.6-21.059-78.61-38.542-41.33-25.827-82.25-58.964-121.72-90.989l-8.07-6.517-45.93-36.237c-54.41-41.243-97.75-69.772-140.45-92.499l-14.53-7.47c-46.01-22.807-95.16-39.972-159.49-55.547l-26.48-6.119c-28.41-6.437-57.79-13.191-87.58-23.681-16.22-5.722-31.72-12.397-46.65-18.834-19.13-8.185-38.82-16.688-59.81-23.045-37.13-11.205-80.72-16.45-133.18-16.291-28.17.159-56.99 1.748-84.84 3.258l-50.12 2.463.08 2.702 50.12-2.463c27.85-1.51 56.59-3.179 84.76-3.258 52.14-.238 95.48 5.086 132.37 16.132 20.75 6.278 39.55 14.383 59.49 22.966 15.01 6.437 30.51 13.112 46.82 18.913 29.86 10.569 59.32 17.244 87.81 23.761l26.48 6.119c64.09 15.576 113.08 32.582 158.85 55.309l14.45 7.47c42.54 22.648 85.8 51.097 140.12 92.261 15.66 11.841 31.32 24.396 45.85 36.237l8.07 6.516c39.55 32.105 80.56 65.242 122.04 91.149 28.25 17.641 54.16 30.276 79.19 38.779 32.36 10.967 65.62 16.768 104.77 18.119 52.14 1.828 107.83-3.814 161.03-16.45 31.39-7.47 61.18-16.767 89.99-25.747l48.76-14.781c45.04-12.794 89.43-22.727 131.97-29.323 18.97-2.94 41.65-6.119 65.86-7.152 27.12-1.192 52.23.556 74.59 5.086 22.35 4.609 45.36 12.635 72.16 25.27 10.97 5.245 21.63 11.126 31.96 16.927 10.09 5.642 20.5 11.443 31.4 16.688 59 28.449 117.44 60.394 174.02 91.387l150.14 79.625c113.72 56.978 214.86 84.95 307.28 84.95z"/><path opacity=".174" d="M4182.69 630.027a440.15 440.15 0 0 0 51.49-3.02l-.32-2.781c-102.83 12.396-216.32-13.112-347-78.037-60.13-29.879-119.78-62.54-177.41-94.089l-136.09-73.109c-11.54-5.96-22.44-12.874-32.93-19.549-9.45-6.04-19.22-12.238-29.47-17.721-26.87-14.463-50.28-23.363-73.69-28.131-23.25-4.689-49.16-5.722-77-2.941-22.04 2.225-42.22 6.278-65.71 11.761-41.49 9.695-85.31 22.728-130.27 38.701l-33.5 12.317c-33.26 12.476-67.64 25.35-105.42 34.25-51.49 12.159-107.75 15.258-162.8 9.06-37.53-4.212-69.82-12.477-101.7-25.986-23.9-10.092-48.35-23.999-76.85-43.707-29.78-20.582-60.53-45.375-90.24-69.295l-41.32-32.979c-18.41-14.463-33.74-25.747-48.19-35.68-50.45-34.648-98.31-61.031-146.34-80.818l-14.77-5.801c-43.83-16.45-90.16-27.734-159.82-38.939l-15.01-2.305c-31.4-4.847-67-10.331-101.79-22.807-18.4-6.596-35.35-14.781-51.74-22.648-17.59-8.503-35.83-17.244-55.45-23.84-36.97-12.317-81.76-17.721-136.73-16.529-22.76.477-45.93 1.907-68.45 3.338l-70.22 3.338.08 2.781c23.33-.397 47.22-1.907 70.3-3.338 22.44-1.43 45.61-2.861 68.29-3.338 54.72-1.113 99.12 4.212 135.76 16.37 19.46 6.516 37.54 15.258 55.05 23.681 16.47 7.947 33.5 16.132 51.98 22.807 35.03 12.556 70.79 18.039 102.35 22.966l15.02 2.305c69.49 11.125 115.58 22.33 159.25 38.78l14.69 5.722c47.78 19.628 95.49 46.011 145.77 80.5 14.37 9.854 29.63 21.138 48.03 35.521l41.33 32.9c29.78 23.919 60.53 48.713 90.4 69.374 28.65 19.867 53.27 33.853 77.32 44.025 32.13 13.589 64.74 21.933 102.51 26.224 55.38 6.278 111.96 3.099 163.78-9.139 37.93-8.979 72.48-21.853 105.82-34.329l33.41-12.318c44.88-15.973 88.55-28.926 129.96-38.621 23.41-5.403 43.5-9.456 65.38-11.681 27.52-2.782 53.19-1.828 76.11 2.86 23.09 4.689 46.25 13.51 72.89 27.814 10.09 5.404 19.86 11.602 29.22 17.642 10.57 6.754 21.47 13.668 33.17 19.707 45.61 23.523 91.54 48.714 136.01 73.03l177.5 94.169c110.01 54.752 207.76 81.533 297.36 81.533z"/><path opacity=".217" d="M4183.98 619.855c17.35 0 34.46-1.034 51.25-3.1l-.4-2.861c-100.09 12.318-210.11-12.158-336.43-74.698-81.6-40.37-161.92-85.03-239.48-128.26l-63.37-35.124c-12.1-6.676-23.16-14.622-33.82-22.331-8.8-6.357-17.92-12.873-27.52-18.754-26.48-15.893-50.85-25.985-74.58-30.753-24.06-4.848-50.53-5.086-78.78-.636-23.73 3.735-45.28 10.092-65.3 16.291-40.84 12.794-82.82 28.449-128.18 47.918l-23.97 10.49c-35.84 15.814-72.89 32.184-115.27 42.197-51.33 12.079-108.56 12.635-165.3 1.748-36.16-6.914-67.72-17.721-99.53-33.932-22.68-11.603-45.84-26.622-75.06-48.873-20.42-15.575-41.01-32.502-62.8-50.461l-70.55-56.422c-18.4-13.906-34.87-25.349-50.44-35.044-50.61-31.469-98.96-53.482-152.15-69.057-4.77-1.431-9.77-2.781-14.94-4.132-49.64-12.795-99.84-17.483-160.22-22.331l-6.29-.476c-34.87-2.702-74.34-5.802-113.33-19.947-19.86-7.231-37.7-16.767-54.89-25.986-16.71-8.98-33.98-18.198-52.95-25.191-37.05-13.43-82.97-18.993-140.36-16.847-19.54.715-39.47 2.146-58.85 3.576-27.44 1.987-55.77 4.053-83.46 4.053v2.94c27.77 0 56.18-2.066 83.63-4.053l58.68-3.576c56.98-2.066 102.51 3.338 139.23 16.688 18.73 6.914 35.92 16.132 52.55 25.032 17.27 9.298 35.19 18.834 55.29 26.145 39.39 14.304 79.1 17.403 114.13 20.105l6.3.477c60.29 4.768 110.26 9.456 159.74 22.25l14.85 4.053c52.95 15.496 101.05 37.35 151.42 68.739 15.5 9.616 31.97 21.059 50.29 34.886 23.57 17.801 47.38 37.429 70.46 56.342l62.88 50.541c29.3 22.33 52.63 37.508 75.47 49.19 32.05 16.37 63.85 27.257 100.33 34.25 57.23 10.967 114.78 10.41 166.6-1.748 42.7-10.013 79.83-26.463 115.83-42.356l23.97-10.49c45.36-19.469 87.18-35.124 127.94-47.839 19.93-6.198 41.32-12.476 64.89-16.211 27.93-4.371 54.08-4.132 77.73.636 23.41 4.688 47.46 14.622 73.62 30.356 9.52 5.722 18.56 12.238 27.36 18.595 10.73 7.788 21.87 15.735 34.14 22.569l63.36 35.124c77.65 43.23 157.97 87.891 239.65 128.26 105.5 52.289 199.94 78.037 286.63 78.037z"/><path opacity=".261" d="M4186.16 609.603c17.11 0 33.9-1.033 50.28-3.099l-.4-3.02c-97.26 12.159-203.89-11.205-325.93-71.361-87.02-42.912-179.84-93.612-292.12-159.57-12.51-7.311-23.57-16.29-34.22-24.952-8.31-6.755-16.95-13.748-26.15-19.867-26.32-17.562-51.02-28.529-75.47-33.376-24.46-4.927-52.39-4.371-80.64 1.589-23.33 4.927-43.18 12.397-64.89 20.821-39.64 15.655-80.88 34.329-126.16 57.216l-17.44 8.9c-37.37 19.231-76.03 39.098-122.2 49.826-65.71 15.337-127.54 5.404-167.81-5.563-34.71-9.456-65.63-22.807-97.27-41.958-26.71-16.132-52.06-36.396-73.21-54.038l-38.42-32.74c-31.32-26.939-63.6-54.753-96.7-78.911-18.8-13.748-36.08-25.032-52.7-34.409-51.26-28.926-101.54-47.203-158.05-57.296-4.84-.874-9.92-1.668-15.09-2.384-39.31-5.562-77.57-5.562-121.8-5.562-12.43 0-25.27 0-38.74-.08h-3.31c-34.71-.318-77.98-.635-119.14-15.814-20.99-7.708-39.23-18.515-56.91-28.925-16.22-9.536-32.93-19.469-51.57-26.86-36.97-14.622-84.11-20.264-143.92-17.165-17.44.874-35.27 2.384-52.55 3.814-30.67 2.543-62.47 5.165-93.39 4.689l-.08 3.02c31.08.556 62.88-2.146 93.63-4.689l52.47-3.814c59.41-3.099 106.06 2.464 142.62 16.926 18.41 7.311 35.04 17.165 51.18 26.621 17.76 10.49 36.16 21.377 57.39 29.165 41.65 15.257 85.15 15.655 120.18 15.973h3.23l38.83.079c44.15 0 82.25 0 121.4 5.563 5.16.715 10.25 1.51 15.01 2.384 56.18 10.092 106.14 28.21 157.07 56.977 16.63 9.298 33.74 20.503 52.47 34.251 33.01 24.158 65.3 51.892 96.54 78.751l38.42 32.741c21.31 17.8 46.73 38.144 73.61 54.355 31.88 19.311 63.12 32.74 98.07 42.276 40.68 11.126 103.08 21.139 169.34 5.643 46.5-10.887 85.32-30.834 122.93-50.144l17.44-8.9c45.2-22.807 86.37-41.482 125.92-57.058 21.55-8.423 41.32-15.813 64.41-20.74 27.85-5.881 55.29-6.437 79.34-1.59 24.06 4.768 48.35 15.576 74.42 32.979 9.12 6.119 17.68 13.033 25.99 19.708 10.74 8.741 21.88 17.721 34.63 25.191 112.36 65.957 205.26 116.737 292.36 159.649 56.42 27.813 108.4 47.362 158.93 59.679 40.52 10.093 80.23 15.099 118.17 15.099z"/><path opacity=".304" d="M4187.61 599.431c17.03 0 33.74-1.033 49.96-3.099l-.4-3.099c-94.44 12.079-197.68-10.172-315.44-68.024-98.96-48.554-193.64-100.923-281.46-155.755-12.75-7.947-23.73-17.88-34.3-27.416-7.91-7.152-16.15-14.542-25.11-21.138-26.23-19.231-51.17-31.072-76.43-36.078-31.97-6.357-62.48-1.43-82.42 3.894-23.08 6.119-42.86 15.099-64.49 25.429-38.34 18.437-78.94 40.131-124.06 66.435l-12.59 7.39c-36.57 21.536-78.05 46.011-127.37 57.455-67.08 15.575-129.63 1.589-170.31-12.874-33.26-11.841-63.45-27.734-95.09-49.905-25.18-17.642-49.15-38.939-71.43-59.283l-16.15-14.701c-36.64-33.535-78.13-71.441-120.75-101.638-19.29-13.748-37.29-24.794-55.05-33.853-52.78-27.019-104.85-41.482-163.93-45.534-4.92-.318-10.09-.557-15.34-.716-35.03-.953-68.12 2.225-106.38 6.04l-54.57 4.927c-38.17 2.94-82.41 4.688-125.11-11.126-22.03-8.185-40.6-20.184-58.6-31.866-15.74-10.172-32.04-20.741-50.52-28.608-37.3-15.893-85.48-21.536-147.47-17.483-15.99 1.033-32.37 2.622-48.19 4.132-33.34 3.179-67.8 6.437-101.38 5.324l-.08 3.099c33.74 1.113 68.37-2.146 101.78-5.324l48.11-4.053c61.5-4.053 109.29 1.589 146.02 17.244 18.24 7.788 34.38 18.198 50.04 28.37 18.16 11.761 36.89 23.84 59.25 32.184 43.34 16.132 87.98 14.304 126.48 11.364l54.56-4.927c38.18-3.735 71.19-6.993 105.98-5.96 5.25.159 10.33.397 15.18.715 58.6 3.894 110.26 18.198 162.64 45.058 17.6 8.98 35.44 19.946 54.65 33.614 42.45 30.039 83.86 67.945 120.42 101.4l16.15 14.781c22.36 20.343 46.41 41.72 71.76 59.521 31.88 22.409 62.31 38.382 95.81 50.302 41.08 14.622 104.36 28.767 172.16 12.953 49.89-11.602 91.54-36.157 128.34-57.852l12.59-7.39c45.04-26.304 85.56-47.998 123.9-66.355 21.47-10.251 41.09-19.151 63.93-25.191 19.62-5.165 49.56-10.092 80.96-3.814 24.78 4.927 49.32 16.529 75.15 35.521 8.8 6.517 16.95 13.828 24.86 20.98 10.65 9.615 21.71 19.628 34.79 27.733 87.9 54.833 182.66 107.281 281.78 155.835 53.75 26.383 105.49 45.614 153.92 57.296 38.91 9.377 76.85 14.065 113.25 14.065z"/><path opacity=".348" d="M4188.98 589.26c16.95 0 33.5-1.033 49.72-3.179l-.4-3.178c-90.4 11.761-192.99-10.013-304.95-64.686-105.57-51.574-194.12-101.241-270.8-151.862-13-8.582-23.81-19.39-34.23-29.8-7.58-7.629-15.49-15.496-24.21-22.489-25.99-20.9-51.34-33.614-77.33-38.7-33.09-6.517-64-.239-84.18 6.198-24.86 7.867-45.69 19.628-64.09 30.039-37.13 21.058-77.01 45.773-122.05 75.732l-8.79 5.88c-37.13 24.794-79.27 52.925-131.57 65.084-68.77 15.972-131.97-2.146-172.82-20.185-31.8-13.986-61.34-32.423-92.82-57.931-23.49-18.914-45.93-41.005-69.66-64.448-36.4-35.919-86.28-85.109-138.67-121.108-19.85-13.747-38.58-24.555-57.31-33.217-54.72-25.429-108.72-36.157-169.82-33.773-5.01.159-10.26.477-15.5.953-30.19 2.543-59.17 8.344-89.92 14.463-22.28 4.451-45.36 9.06-71.35 13.033-38.91 5.96-84.51 9.774-127.86-6.516-22.92-8.583-41.73-21.854-59.97-34.648-15.5-10.887-31.48-22.092-49.88-30.436-37.62-17.085-87.02-22.886-151.1-17.801-14.94 1.192-30.19 2.781-44.96 4.371-35.6 3.814-72.41 7.708-108.24 5.96l-.17 3.179c36 1.748 72.97-2.146 108.73-5.96l44.88-4.371c63.52-5.086 112.44.636 149.48 17.483 18.17 8.265 33.99 19.39 49.32 30.198 18.41 12.953 37.37 26.303 60.7 35.044 44.15 16.53 90.24 12.715 129.55 6.676 26.07-3.974 49.16-8.583 71.43-13.033 30.68-6.119 59.57-11.92 89.6-14.463 5.25-.477 10.41-.795 15.42-.954 60.61-2.304 114.13 8.344 168.37 33.456 18.49 8.582 37.13 19.311 56.83 32.899 52.14 35.84 101.94 84.871 138.26 120.711 23.81 23.442 46.25 45.613 69.9 64.686 31.81 25.667 61.51 44.263 93.63 58.328 41.33 18.198 105.26 36.555 174.92 20.344 52.87-12.238 95.24-40.528 132.61-65.56l8.8-5.881c44.96-29.879 84.84-54.594 121.88-75.573 18.25-10.251 38.99-21.933 63.45-29.721 19.77-6.277 50.2-12.476 82.57-6.039 25.51 5.006 50.29 17.483 75.87 38.065 8.56 6.913 16.39 14.701 23.98 22.25 10.57 10.569 21.47 21.456 34.7 30.198 76.77 50.779 165.39 100.525 271.13 152.099 51.82 25.271 101.86 43.787 148.92 54.912 37.05 8.821 73.29 13.271 108 13.271z"/><path opacity=".391" d="M4190.43 579.088c16.87 0 33.34-1.033 49.4-3.179l-.48-3.258c-87.66 11.682-186.7-8.98-294.46-61.348-108.07-52.528-190.73-99.572-260.06-148.047-13.24-9.218-23.82-20.9-34.07-32.184-7.34-8.106-14.93-16.45-23.48-23.92-25.43-22.251-51.74-36.157-78.22-41.402-26.64-5.245-57.23-2.225-85.96 8.423-24.78 9.219-44.56 22.092-63.69 34.568-36.32 23.841-74.42 50.859-120.02 84.951l-5.73 4.291c-37.46 28.131-79.99 59.997-134.96 72.712-74.58 17.244-141.9-9.774-175.32-27.416-30.83-16.211-58.76-36.555-90.64-65.878-19.37-17.721-37.94-37.667-57.63-58.726l-10.17-10.887c-39.8-42.435-87.66-90.592-140.45-125.796-20.18-13.51-40.28-24.476-59.57-32.582-56.26-23.601-113.73-30.833-175.8-22.012-5.08.715-10.41 1.589-15.74 2.623-26.96 5.244-52.46 13.032-79.5 21.376-25.35 7.788-51.66 15.894-82.09 22.807-33.74 7.629-84.03 15.814-130.68-1.907-23.73-9.059-42.78-23.443-61.11-37.35-15.25-11.522-30.99-23.522-49.39-32.422-37.94-18.277-88.55-24.237-154.66-18.118-14.12 1.271-28.57 3.02-42.53 4.609-37.62 4.45-76.52 8.98-114.3 6.596l-.24 3.338c38.1 2.463 77.08-2.146 114.86-6.596l42.46-4.609c65.54-6.04 115.5-.239 152.87 17.801 18.08 8.741 33.74 20.582 48.84 32.025 18.56 14.066 37.77 28.608 61.99 37.826 47.46 18.039 98.39 9.775 132.61 1.987 30.59-6.914 56.91-15.019 82.33-22.887 26.88-8.264 52.31-16.052 79.11-21.297 5.32-1.033 10.49-1.907 15.57-2.622 61.43-8.742 118.33-1.59 173.95 21.774 19.13 8.026 38.98 18.833 59 32.263 52.55 35.045 100.17 83.043 139.88 125.32l10.17 10.887c19.78 21.138 38.42 41.084 57.88 58.964 32.04 29.562 60.21 49.985 91.37 66.434 26.23 13.828 73.05 33.376 127.93 33.376 15.99 0 32.69-1.668 49.81-5.562 55.69-12.874 98.47-44.979 136.25-73.269l5.73-4.291c45.52-34.091 83.62-61.031 119.86-84.871 18.97-12.397 38.58-25.191 62.96-34.25 28.25-10.49 58.11-13.43 84.19-8.264 25.83 5.085 51.65 18.754 76.6 40.607 8.39 7.311 15.9 15.655 23.16 23.602 10.33 11.443 21.07 23.204 34.63 32.661 69.5 48.633 152.23 95.757 260.55 148.364 49.88 24.238 98.31 41.879 143.92 52.449 35.43 8.185 69.98 12.317 103.07 12.317z"/><path opacity=".435" d="M4191.97 568.916c16.71 0 33.01-1.112 48.99-3.258l-.48-3.417c-84.92 11.523-180.4-7.947-283.96-57.931-108.4-52.369-185.33-96.791-249.42-144.233-13.31-9.854-23.73-22.41-33.74-34.489-7.1-8.582-14.44-17.403-22.76-25.35-25.26-23.919-51.9-38.7-79.1-44.024-37.13-7.232-70.95 3.576-87.82 10.728-24.86 10.49-44.39 25.111-63.28 39.177-34.95 26.224-72.4 56.183-117.93 94.248l-3.23 2.702c-37.61 31.469-80.31 67.149-137.78 80.341-76.84 17.721-144.4-14.145-177.9-34.727-29.46-18.119-56.74-40.926-88.46-73.904-15.9-16.45-31.24-34.33-47.38-53.243l-18.65-21.615c-52.22-59.998-97.42-101.48-142.22-130.564-20.83-13.589-41.65-24.317-61.91-31.946-58.76-22.33-118.17-25.668-181.69-10.172-5.17 1.272-10.58 2.702-15.91 4.371-24.94 7.47-48.1 17.165-72.64 27.416-27.36 11.443-55.61 23.204-89.27 33.297-53.03 15.893-96.7 16.767-133.43 2.781-24.53-9.377-43.66-24.953-62.15-40.051-15.01-12.238-30.59-24.953-49.07-34.33-38.34-19.549-90.08-25.588-158.29-18.436-13.56 1.43-27.36 3.178-40.68 4.927-39.47 5.085-80.23 10.33-119.78 7.231l-.25 3.417c39.96 3.099 80.88-2.146 120.51-7.231l40.6-4.927c67.48-7.073 118.58-1.192 156.27 18.039 18.16 9.218 33.58 21.774 48.43 33.932 18.73 15.258 38.02 30.992 63.12 40.608 17.68 6.754 36.81 10.171 57.79 10.171 23.57 0 49.4-4.291 77.9-12.794 33.82-10.172 62.15-21.933 89.59-33.376 24.46-10.251 47.54-19.867 72.32-27.337 5.33-1.589 10.58-3.019 15.74-4.291 62.8-15.257 121.48-11.999 179.6 10.093 20.01 7.549 40.6 18.197 61.18 31.627 44.47 28.926 89.51 70.17 141.5 129.929l18.64 21.615c16.23 18.913 31.56 36.793 47.54 53.322 31.89 33.217 59.33 56.104 89.11 74.46 25.67 15.814 53.92 27.575 81.77 34.092 33.98 7.946 67.16 8.344 98.72 1.033 58.35-13.43 101.38-49.349 139.31-81.056l3.23-2.702c45.44-37.985 82.9-67.865 117.77-94.089 18.72-13.986 38.09-28.449 62.55-38.78 16.47-6.993 49.48-17.562 85.72-10.49 26.56 5.166 52.63 19.708 77.41 43.151 8.23 7.788 15.5 16.529 22.52 25.032 10.17 12.238 20.66 24.953 34.38 35.045 64.26 47.521 141.34 92.102 249.98 144.55 84.76 40.767 164.26 61.428 236.99 61.428z"/><path opacity=".478" d="M4193.18 558.745c16.71 0 33.01-1.113 48.99-3.338l-.48-3.496c-82.09 11.443-174.11-6.914-273.47-54.594-71.27-34.171-162.72-81.056-238.68-140.418-13.48-10.489-23.57-23.919-33.41-36.793-6.86-9.059-13.97-18.357-22.2-26.78-25.02-25.509-51.9-41.244-79.99-46.727-38.34-7.47-72.57 5.006-89.6 13.033-24.94 11.84-44.23 28.051-62.79 43.786-34.07 28.846-69.82 60.792-115.91 103.466l-1.13 1.033c-37.62 34.806-80.32 74.301-140.29 88.129-82.33 18.913-153.52-23.046-180.4-41.959-36-25.35-63.76-55.627-86.2-81.851-13-15.178-25.51-31.071-38.83-47.998l-25.42-32.025c-48.84-60.236-97.27-105.77-144-135.253-21.39-13.588-43.02-24.157-64.17-31.309-33.26-11.364-67.4-16.45-101.46-15.099-28.5 1.192-56.67 6.596-86.13 16.688-5.32 1.828-10.73 3.814-16.14 6.039-23.57 9.616-45.28 21.059-68.21 33.217-28.57 15.099-58.11 30.754-94.11 44.105-52.55 19.469-98.39 21.932-136.17 7.39-25.26-9.774-44.47-26.542-63.04-42.674-14.85-12.953-30.27-26.383-48.83-36.396-38.75-20.82-91.7-26.939-161.84-18.674l-39.23 5.165c-41.16 5.722-83.62 11.682-124.87 7.867l-.32 3.497c41.65 3.814 84.43-2.146 125.76-7.867l39.15-5.166c69.41-8.105 121.63-2.145 159.73 18.278 18.24 9.774 33.5 23.045 48.19 35.919 18.81 16.37 38.18 33.296 64.09 43.309 38.66 14.94 85.32 12.477 138.75-7.311 36.16-13.43 65.87-29.085 94.52-44.263 22.84-12.079 44.47-23.522 67.88-33.058 5.33-2.146 10.74-4.212 15.9-5.96 64.01-21.853 124.55-22.41 185.25-1.589 20.9 7.072 42.21 17.562 63.36 30.992 46.41 29.323 94.52 74.54 143.11 134.537l25.43 32.025 38.9 48.078c22.6 26.383 50.61 56.898 86.85 82.486 25.35 17.88 53.84 31.469 82.25 39.336 34.63 9.537 68.61 10.649 101.06 3.179 60.94-13.986 103.96-53.799 141.9-89.003l1.13-1.033c46.09-42.674 81.76-74.54 115.75-103.386 18.48-15.576 37.53-31.628 62.07-43.23 16.62-7.868 50.04-20.026 87.33-12.715 27.37 5.324 53.68 20.661 78.14 45.693 8.07 8.265 15.09 17.483 21.87 26.463 9.93 13.112 20.18 26.621 34.06 37.429 76.2 59.6 167.97 106.565 239.33 140.815 80.71 38.462 156.67 58.011 226.57 58.011z"/><path opacity=".522" d="M4194.31 548.573c16.63 0 32.93-1.113 48.91-3.417l-.56-3.576c-79.35 11.363-167.81-5.881-262.9-51.257-68.93-32.899-157.15-78.116-228.02-136.524-13.56-11.205-23.41-25.35-33.01-39.097-6.62-9.537-13.48-19.39-21.64-28.211-24.78-27.178-51.98-43.786-80.95-49.349-28.9-5.563-62.24 0-91.38 15.337-25.1 13.112-44.07 31.072-62.39 48.316-41.81 39.654-82.81 81.056-113.89 112.684-35.35 36.078-79.34 80.897-141.74 95.201-84.99 19.47-156.18-27.972-182.9-49.269-34.39-27.416-60.7-59.441-84.03-89.877-10.57-13.748-20.74-27.973-31.56-43.071l-30.83-42.197c-47.22-62.461-96.3-109.506-145.78-140.021-22.03-13.668-44.39-23.999-66.42-30.674-63.37-19.469-128.42-14.94-193.48 13.43-5.41 2.384-10.9 4.927-16.31 7.708-22.76 11.602-43.34 24.873-65.22 38.859-29.38 18.914-59.81 38.383-97.42 54.992-36.32 16.052-89.92 31.071-138.91 11.999-25.99-10.172-45.29-28.052-63.85-45.296-14.77-13.748-30.03-27.893-48.75-38.383-39.23-22.012-93.31-28.29-165.47-18.992-12.67 1.589-25.59 3.576-38.1 5.404-42.7 6.436-86.93 13.032-129.71 8.503l-.4 3.576c43.26 4.529 87.65-2.067 130.68-8.503l38.01-5.404c71.28-9.139 124.63-3.02 163.13 18.595 18.32 10.331 33.42 24.317 48.03 37.906 18.88 17.482 38.34 35.601 64.97 46.011 16.87 6.596 34.15 9.218 51.18 9.218 33.74 0 66.1-10.41 90.64-21.217 37.94-16.688 68.45-36.317 97.91-55.23 21.8-13.986 42.3-27.178 64.9-38.7 5.41-2.702 10.81-5.325 16.14-7.629 64.17-28.052 128.42-32.502 190.9-13.271 21.71 6.675 43.82 16.847 65.54 30.356 49.07 30.277 97.83 77.083 144.8 139.147 10.74 14.224 20.91 28.449 30.76 42.117l31.64 43.151c23.4 30.674 49.88 62.858 84.59 90.512 17.43 13.907 46.01 32.979 82.73 44.581 35.27 11.126 70.06 12.954 103.32 5.325 63.44-14.543 107.84-59.839 143.59-96.155 31-31.628 72-73.03 113.73-112.605 18.16-17.165 36.97-34.806 61.59-47.759 28.49-14.94 60.86-20.344 88.95-14.94s54.64 21.615 78.86 48.236c7.91 8.742 14.77 18.436 21.31 27.893 9.68 13.907 19.69 28.29 33.66 39.813 71.11 58.726 159.57 104.102 228.75 137.001 77 36.316 149.48 54.753 216.4 54.753z"/><path opacity=".565" d="M4195.44 538.481a342.13 342.13 0 0 0 48.91-3.497l-.56-3.655c-76.6 11.284-161.52-4.848-252.4-47.919-66.35-31.389-150.94-74.857-217.29-132.709-13.64-11.841-23.25-26.86-32.53-41.323-6.46-10.013-13.08-20.344-21.07-29.721-16.87-19.787-44.71-44.899-81.84-52.051-29.79-5.721-63.77.716-93.23 17.642-25.27 14.463-43.91 34.012-61.91 52.846l-.08.079c-39.71 41.8-78.78 85.109-111.79 121.982-34.47 38.541-77.41 86.46-142.14 101.241-90.17 20.582-164.75-38.065-185.41-56.501-31.24-27.814-55.29-59.283-81.77-97.824-8.55-12.397-16.79-25.032-25.58-38.383l-35.03-52.05c-31.48-44.502-82.74-105.771-147.55-144.789-22.69-13.668-45.85-23.84-68.69-30.118-66.19-18.277-133.27-9.774-199.37 25.27-5.49 2.941-11.06 6.04-16.55 9.457-22.2 13.589-42.13 28.608-63.2 44.581-29.87 22.569-60.78 46.011-99.77 65.799-29.86 15.257-88.06 37.667-141.73 16.608-26.8-10.569-46.09-29.562-64.74-47.918-14.61-14.384-29.7-29.324-48.51-40.37-39.79-23.283-95.08-29.641-169.02-19.31l-37.13 5.642c-44.23 7.073-90 14.384-134.31 9.139l-.49 3.735c44.8 5.245 90.81-2.066 135.37-9.218l37.04-5.643c73.05-10.171 127.54-3.973 166.52 18.834 18.41 10.808 33.34 25.588 47.79 39.813 18.96 18.675 38.5 37.985 66.02 48.793 23.01 9.059 49 11.205 77.09 6.516 22.03-3.735 44.88-11.523 67.72-23.204 39.23-20.026 70.3-43.469 100.33-66.196 21.07-15.894 40.92-30.913 62.96-44.422 5.41-3.338 10.89-6.437 16.3-9.298 65.22-34.568 131.33-42.912 196.55-24.953 22.6 6.199 45.36 16.212 67.8 29.642 64.33 38.621 115.1 99.492 146.42 143.676 12.43 17.482 23.89 35.045 34.95 51.971l25.59 38.462c26.63 38.78 50.85 70.408 82.41 98.539 17.27 15.337 45.68 36.475 83.3 49.826 35.91 12.794 71.43 15.257 105.57 7.549 65.87-15.019 109.21-63.494 144.08-102.433l111.71-121.902.08-.079c17.84-18.675 36.25-37.906 61.03-52.131 28.65-16.449 61.66-22.727 90.56-17.165 36 6.914 63.2 31.39 79.67 50.78 7.83 9.218 14.44 19.469 20.82 29.323 9.45 14.701 19.21 29.88 33.26 42.117 66.67 58.17 151.66 101.798 218.17 133.266 72.73 34.33 141.66 51.654 205.67 51.654z"/><path opacity=".609" d="M3215.46 541.818c12.67 0 25.26-1.43 37.69-4.211 68.21-15.497 112.36-69.296 144.65-108.632l109.69-131.12.08-.159c17.52-20.185 35.6-41.085 60.54-56.66 28.9-17.96 62.47-25.032 92.18-19.39 36.97 7.073 64.09 32.899 80.39 53.322 7.75 9.695 14.13 20.423 20.34 30.833 9.2 15.496 18.73 31.469 32.77 44.422 63.45 58.568 148.84 101.956 207.61 129.531 40.35 18.993 80.39 32.582 118.81 40.449 43.75 8.9 85.96 10.41 125.35 4.45l-.56-3.814c-73.86 11.125-155.22-3.815-241.91-44.581-58.52-27.496-143.51-70.726-206.55-128.816-13.64-12.556-23.01-28.29-32.05-43.548-6.29-10.489-12.75-21.376-20.58-31.31-16.71-20.9-44.56-47.441-82.73-54.673-30.68-5.88-65.3 1.43-95.01 19.946-25.42 15.894-43.75 36.952-61.42 57.375l-.08.159c-37.7 43.707-75.07 88.924-109.78 131.2-31.88 38.859-75.63 92.102-142.46 107.281-93.07 21.138-167.41-43.469-187.91-63.733-30.19-29.879-52.79-62.62-79.59-105.85l-20.5-33.932c-12.03-20.105-24.46-40.926-38.26-61.746-20.02-30.118-41.97-57.693-65.3-81.851-27.12-28.052-55.37-50.779-84.02-67.626-23.33-13.748-47.22-23.681-71.03-29.482-37.21-9.139-75.15-9.615-112.68-1.351-31.32 6.914-62.48 19.866-92.59 38.462-5.57 3.496-11.22 7.231-16.7 11.125-21.88 15.575-41.33 32.502-61.91 50.461-30.19 26.304-61.43 53.482-101.46 76.527-30.11 17.324-88.87 43.23-144.49 21.138-27.44-10.887-45.92-30.118-65.38-50.461-14.53-15.178-29.54-30.833-48.51-42.436-40.28-24.555-96.7-30.992-172.65-19.628l-36.32 5.881c-45.69 7.787-92.99 15.734-138.67 9.854l-.49 3.814c46.33 6.04 93.88-2.066 139.88-9.854l36.25-5.88c74.9-11.205 130.51-4.927 169.98 19.072 18.49 11.363 33.34 26.859 47.71 41.879 18.97 19.787 38.58 40.21 66.83 51.415 23.65 9.377 50.21 11.205 78.94 5.404 28.49-5.722 53.19-17.722 69.01-26.86 40.28-23.284 71.68-50.541 102.03-77.004 20.5-17.88 39.95-34.727 61.67-50.223 5.41-3.894 10.97-7.549 16.46-10.966 66.19-41.005 134.23-53.323 202.2-36.634 23.41 5.722 46.97 15.496 69.98 29.005 52.46 30.754 105.01 83.44 148.03 148.285 13.72 20.741 26.16 41.482 38.18 61.587l20.58 33.932c26.88 43.469 49.65 76.447 80.16 106.565 17.03 16.847 45.36 40.052 83.78 55.071 23.25 9.377 46.73 13.986 69.82 13.986z"/><path opacity=".652" d="M3239.67 554.374c11.87 0 23.98-1.272 36.17-4.053 30.34-6.914 58.11-21.933 84.91-45.932 23.33-20.9 42.54-45.455 60.21-68.898l107.68-140.418.08-.159c17.19-21.774 34.95-44.263 60.13-61.11 28.66-19.231 63.69-27.336 93.8-21.615 37.93 7.232 65.05 34.33 81.2 55.865 7.58 10.172 13.88 21.456 19.93 32.343 8.96 16.212 18.25 32.979 32.29 46.647 45.44 44.422 108.08 84.394 197.03 125.797 38.5 17.959 76.84 30.753 113.81 37.985 41.81 8.185 82.17 9.377 119.86 3.576l-.64-3.894c-70.06 10.887-150.13-3.338-231.42-41.243-88.54-41.164-150.77-80.898-195.9-125.002-13.64-13.271-22.76-29.8-31.56-45.773-6.13-11.046-12.43-22.41-20.17-32.82-16.55-22.091-44.4-49.905-83.63-57.375-31.07-5.88-67.23 2.384-96.78 22.172-25.66 17.244-43.66 39.971-61.02 61.984l-.08.159-107.75 140.418c-38.91 51.494-79.11 98.857-142.87 113.32-76.36 17.323-148.44-25.35-190.49-71.044-32.37-35.124-55.94-75.493-77.33-113.876l-16.3-29.721c-12.68-23.204-25.75-47.282-40.6-71.122-24.46-39.257-76.6-111.572-151.11-154.246-23.97-13.748-48.67-23.522-73.29-28.846-89.59-19.549-164.25 15.814-211.07 48.951-5.65 4.053-11.38 8.344-16.87 12.795-21.71 17.562-40.84 36.475-61.1 56.421-30.43 29.959-61.83 60.951-102.59 87.175-24.38 15.655-87.58 49.588-147.23 25.748-28.09-11.205-46.57-31.549-66.11-53.005-14.44-15.893-29.38-32.343-48.51-44.581-40.76-25.827-98.39-32.343-176.2-19.946l-35.68 6.119c-47.14 8.424-95.89 17.165-142.95 10.49l-.56 3.894c47.78 6.754 96.86-2.067 144.24-10.57l35.6-6.119c76.84-12.237 133.5-5.88 173.37 19.39 18.65 11.92 33.42 28.211 47.71 43.866 18.97 20.9 38.58 42.515 67.56 54.038 61.5 24.555 126.08-10.093 150.94-26.145 41.16-26.462 72.72-57.614 103.23-87.652 20.18-19.867 39.23-38.7 60.86-56.183a306.78 306.78 0 0 1 16.71-12.635c46.17-32.661 119.7-67.547 207.85-48.316 24.21 5.245 48.51 14.781 72.16 28.369 73.53 42.595 125.27 114.274 149.56 153.213 14.78 23.76 27.85 47.759 40.52 70.964l16.39 29.72c21.55 38.542 45.28 79.149 77.89 114.591 36 39.257 94.04 76.289 158.12 76.289z"/><path opacity=".696" d="M3263.57 566.93c11.86 0 23.48-1.272 34.95-3.894 67.07-15.178 108.72-68.103 145.69-121.028l105.66-149.636.08-.08c16.87-23.363 34.3-47.442 59.73-65.719 28.89-20.741 64.49-29.641 95.41-23.84 38.74 7.311 65.94 35.84 81.92 58.408 7.51 10.649 13.56 22.41 19.46 33.774 8.71 16.926 17.83 34.488 31.8 49.031 42.21 43.706 103.15 83.599 186.37 121.981 77.89 35.919 155.14 49.19 223.26 38.224l-.64-3.973c-67.32 10.807-143.76-2.225-220.92-37.906-82.82-38.144-143.36-77.798-185.17-121.108-13.56-14.065-22.52-31.31-31.07-48.077-5.89-11.523-12.03-23.363-19.7-34.25-16.38-23.205-44.39-52.448-84.51-60.077-31.96-6.04-68.77 3.099-98.55 24.475-25.91 18.596-43.59 42.992-60.62 66.594l-.08.079-105.66 149.716c-36.48 52.289-77.57 104.499-143.19 119.359-78.78 17.801-151.34-28.767-192.99-78.275-31.4-37.27-53.44-78.91-75.15-121.822l-12.83-25.748c-13.08-26.303-26.56-53.481-42.3-80.341-23.89-40.766-75.47-115.624-152.88-159.013-24.61-13.827-50.04-23.363-75.55-28.211-93.3-17.959-169.42 23.125-216.96 60.792-5.81 4.609-11.55 9.457-17.11 14.463-21.64 19.629-41.49 41.403-60.62 62.541-30.51 33.535-61.99 68.262-103.48 97.665-19.13 13.588-86.61 55.865-150.05 30.356-28.74-11.602-47.22-32.979-66.76-55.547-14.36-16.688-29.21-33.933-48.51-46.647-22.68-14.94-51.57-23.761-85.88-26.224-27.6-1.987-58.36-.08-93.87 5.96l-35.19 6.357c-48.51 9.139-98.64 18.595-147.15 11.205l-.65 3.973c49.16 7.47 99.69-1.987 148.52-11.205l35.11-6.357c78.7-13.271 136.5-6.834 176.85 19.628 18.81 12.477 33.5 29.482 47.71 45.932 18.97 22.012 38.58 44.74 68.28 56.66 24.78 9.933 52.55 11.046 82.58 3.258 30.35-7.867 55.61-22.886 71.43-34.091 41.81-29.641 73.53-64.527 104.12-98.221 19.94-22.013 38.83-42.753 60.38-62.223 5.49-5.006 11.14-9.774 16.87-14.304 46.82-37.111 121.8-77.56 213.58-59.998 25.1 4.768 50.04 14.145 74.34 27.734 76.6 42.913 127.69 117.055 151.34 157.503 15.66 26.78 29.14 53.878 42.13 80.102l12.92 25.748c21.79 43.15 43.99 85.029 75.63 122.617 23.33 27.734 53.43 51.097 84.75 65.64 25.35 11.999 51.58 18.039 77.17 18.039z"/><path opacity=".739" d="M3287.22 579.565c11.54 0 22.92-1.271 34.06-3.735 31.8-7.152 60.3-23.602 87.09-50.302 23.98-23.84 43.02-52.21 59.09-77.004l103.64-158.933c16.54-24.874 33.66-50.7 59.32-70.249 29.06-22.251 65.3-31.946 97.02-25.986 39.8 7.47 66.92 37.27 82.66 60.951 7.42 11.205 13.4 23.522 19.13 35.442 8.47 17.642 17.27 35.84 31.15 51.177 39.07 43.071 98.24 82.884 175.81 118.247 73.77 33.694 147.38 45.773 212.84 34.806l-.72-4.053c-81.61 13.589-159.5-11.284-210.35-34.488-77.08-35.204-135.76-74.62-174.43-117.293-13.4-14.861-22.11-32.82-30.51-50.144-5.81-11.999-11.78-24.476-19.37-35.919-16.22-24.317-44.15-54.991-85.4-62.699-32.85-6.199-70.38 3.814-100.33 26.78-26.15 20.026-43.5 46.091-60.21 71.282l-103.64 158.934c-35.6 55.15-76.04 110.22-143.6 125.398-81.28 18.357-156.1-34.568-195.57-85.506-30.51-39.416-51.1-82.169-72.89-129.849L3042 334.41c-13.24-29.244-26.96-59.521-43.34-89.241-18.25-33.138-40.85-64.845-65.22-91.546-27.93-30.675-58.04-54.912-89.44-72.156-25.26-13.907-51.49-23.204-77.89-27.575-41.32-6.914-82.97-2.781-123.82 12.317-34.62 12.794-67.88 33.058-98.95 60.316-5.9 5.165-11.71 10.569-17.28 16.211-21.71 21.694-41.32 45.614-60.37 68.739-30.51 37.111-62.07 75.493-104.13 107.995-19.29 14.86-87.33 61.428-152.79 34.966-29.38-11.92-47.87-34.33-67.32-58.091-14.29-17.403-29.14-35.442-48.59-48.792-22.93-15.655-52.39-24.794-87.42-27.258-28.17-1.986-59.57.239-95.97 6.676l-34.79 6.595c-49.88 9.775-101.38 19.947-151.18 11.841l-.73 4.053c50.53 8.264 102.51-1.987 152.72-11.841l34.71-6.595c80.55-14.305 139.47-7.788 180.24 19.866 18.96 13.033 33.57 30.833 47.7 47.998 18.97 23.125 38.58 47.045 69.01 59.283 25.35 10.251 53.68 10.966 84.35 2.145 31.32-8.98 56.82-25.429 72.64-37.747 42.46-32.74 74.18-71.281 104.77-108.631 18.97-23.045 38.59-46.885 60.14-68.5 5.49-5.563 11.3-10.887 17.03-15.973 47.38-41.482 123.9-87.652 219.23-71.6 25.91 4.291 51.65 13.43 76.51 27.098 79.35 43.469 129.88 120.234 152.96 162.113 16.31 29.561 29.95 59.759 43.19 89.003l10 22.012c21.96 47.919 42.62 90.831 73.46 130.644 23 29.72 53.27 54.911 85.23 70.884 26.56 13.191 53.84 19.946 80.56 19.946z"/><path opacity=".783" d="M3310.62 592.201c11.22 0 22.36-1.192 33.34-3.656 32.53-7.311 61.34-24.476 88.22-52.448 23.09-24.078 41.73-53.163 58.52-80.977l1.05-1.748 100.49-166.404c16.23-26.462 33.02-53.799 58.85-74.778 29.3-23.761 66.1-34.33 98.63-28.211 42.94 8.026 70.71 43.23 83.46 63.494 7.35 11.841 13.24 24.715 18.89 37.191 8.23 18.277 16.79 37.19 30.43 53.163 36.56 43.071 92.1 81.613 165.23 114.512 48.59 21.933 123.09 45.217 202.43 31.469l-.72-4.212c-78.22 13.51-151.83-9.536-199.86-31.151-72.56-32.74-127.61-70.884-163.77-113.399-13.24-15.576-21.63-34.171-29.78-52.21-5.74-12.635-11.63-25.588-19.13-37.667-13.08-20.821-41.73-57.057-86.29-65.401-33.74-6.358-71.92 4.529-102.19 29.084-26.39 21.456-43.34 49.111-59.81 75.891l-100.57 166.404-1.05 1.748c-33.26 55.389-74.58 115.863-144 131.439-83.78 18.833-159.01-38.224-198.08-92.738-29.7-41.561-49.64-87.017-70.7-137.875l-7.27-17.483c-13.4-32.502-27.28-66.117-44.23-98.936-17.92-34.41-40.52-67.15-65.22-94.804-28.25-31.549-58.92-56.342-91.21-73.666-25.91-13.986-52.87-23.045-80.15-26.939-42.62-6.198-85.56-.477-127.53 16.927-35.68 14.781-69.74 37.508-101.06 67.547-5.97 5.721-11.86 11.681-17.43 17.88-21.8 23.919-41.41 49.985-60.38 75.176-30.51 40.607-61.99 82.486-104.53 118.087-19.45 16.212-88.3 66.991-155.62 39.575-30.03-12.238-48.43-35.76-67.88-60.554-14.29-18.198-28.98-37.031-48.67-50.938-23.25-16.37-53.2-25.827-89.03-28.29-28.42-1.908-61.35.556-97.99 7.39l-34.47 6.834c-51.17 10.49-104.04 21.377-155.14 12.556l-.72 4.212c51.9 8.98 105.25-1.987 156.83-12.556l34.38-6.834c81.29-15.178 143.03-8.424 183.63 20.184 19.21 13.589 33.74 32.105 47.79 50.065 18.97 24.237 38.58 49.269 69.66 61.904 25.83 10.49 54.88 10.887 86.12 1.113 25.1-7.867 51.34-22.569 73.94-41.323 42.86-35.919 74.5-78.036 105.17-118.803 18.89-25.112 38.42-51.177 60.13-74.858 5.57-6.119 11.39-11.999 17.28-17.641 39.31-37.588 120.75-98.38 224.95-83.282 26.72 3.814 53.2 12.715 78.7 26.463 59.65 32.025 116.07 92.817 154.66 166.642 16.95 32.74 30.75 66.196 44.15 98.618l7.26 17.483c21.23 51.018 41.17 96.711 71.19 138.67 22.68 31.707 53.11 58.726 85.72 76.129 27.37 14.542 55.7 21.933 83.38 21.933z"/><path opacity=".826" d="M3334.03 604.835c10.98 0 21.96-1.192 32.69-3.576 73.05-16.37 114.3-80.658 147.23-139.702l6.05-10.808 93.47-166.562c15.9-27.973 32.37-56.899 58.36-79.308 22.76-19.549 61.02-37.747 100.17-30.436 43.99 8.264 71.68 44.898 84.19 65.957 7.34 12.397 13.07 25.906 18.72 39.018 8.08 18.834 16.39 38.304 29.63 55.151 33.49 42.355 87.01 80.738 154.65 110.856 45.68 20.343 116.15 41.799 191.94 28.131l-.8-4.291c-74.75 13.43-144.24-7.708-189.37-27.814-66.99-29.8-119.94-67.705-153.03-109.505-12.92-16.37-21.15-35.601-29.06-54.117-5.65-13.191-11.46-26.86-18.97-39.495-12.91-21.774-41.49-59.521-87.17-68.103-17.84-3.338-37.21-1.828-56.26 4.45-17.28 5.642-33.74 15.019-47.71 26.939-26.63 22.887-43.26 52.131-59.32 80.421l-93.55 166.642-6.06 10.807c-32.44 58.17-73.13 121.505-144.32 137.558-80.55 18.118-158.77-37.191-200.66-100.049-29.22-44.104-48.27-92.182-68.45-145.822l-5.32-14.145c-13.24-35.363-26.96-71.918-44.4-107.519-17.51-35.601-40.03-69.454-65.14-97.982-28.49-32.423-59.81-57.693-92.98-75.176-26.56-13.986-54.32-22.886-82.41-26.303-109.7-13.509-193.96 54.514-234.4 96.314a406.12 406.12 0 0 0-17.68 19.549c-21.79 25.906-41.25 54.117-60.05 81.295-30.51 44.183-62.15 89.877-105.18 128.577-40.44 36.158-103.31 66.752-158.44 44.184-30.67-12.556-49.08-37.111-68.53-63.097-14.21-18.992-28.9-38.541-48.83-53.084-23.49-17.006-53.92-26.86-90.57-29.323-28.98-1.907-62.63.795-100.01 8.106l-34.14 7.072c-52.46 11.205-106.71 22.807-159.09 13.192l-.81 4.291c13.97 2.543 28.01 3.655 42.14 3.655 39.71 0 79.66-8.503 118.73-16.847l34.06-7.072c83.06-16.211 146.02-9.377 187.1 20.423 19.37 14.145 33.9 33.455 47.87 52.13 18.97 25.35 38.58 51.495 70.38 64.527 13.64 5.563 27.77 8.026 41.81 8.026 44.8 0 89.76-24.793 121.24-53.004 43.51-39.098 75.23-84.95 105.9-129.372 18.73-27.098 38.18-55.15 59.81-80.977 5.57-6.596 11.46-13.112 17.43-19.31 39.88-41.164 122.94-108.234 230.69-94.963 27.53 3.338 54.81 12.079 80.88 25.827 61.67 32.423 118.65 94.884 156.27 171.252 17.27 35.362 30.99 71.838 44.23 107.121l5.33 14.145c20.26 53.958 39.47 102.194 68.93 146.696 22.44 33.694 53.11 62.54 86.28 81.374 28.42 15.973 57.8 24.078 86.53 24.078z"/><path opacity=".87" d="M3357.12 617.55c10.65 0 21.47-1.113 32.28-3.576 74.59-16.688 115.35-84.076 147.72-145.901l97.5-186.668c15.5-29.482 31.56-59.918 57.95-83.758 22.93-20.661 61.75-40.051 101.79-32.661 45.04 8.424 72.56 46.568 84.99 68.5 7.35 13.112 13.08 27.258 18.65 40.926 7.83 19.39 15.9 39.336 28.73 56.898 39.15 53.481 100.01 87.732 144.16 107.122 29.14 12.794 59.09 21.535 88.79 25.985 32.05 4.768 63.28 4.371 92.74-1.192l-.8-4.371c-71.28 13.351-136.58-5.959-178.87-24.475-43.59-19.152-103.72-53.005-142.3-105.612-12.51-17.085-20.51-36.872-28.25-55.944-5.57-13.828-11.39-28.132-18.89-41.482-12.76-22.648-41.17-61.984-88.06-70.726-41.65-7.787-81.93 12.318-105.74 33.694-26.96 24.397-43.19 55.23-58.93 85.03l-97.5 186.668c-31.88 60.951-72 127.306-144.73 143.596-82.89 18.596-161.83-40.528-203.16-107.28-28.57-46.409-46.17-95.042-66.27-153.848l-3.79-11.125c-13-38.144-26.48-77.639-44.07-115.784-37.13-79.784-95.41-144.709-159.9-177.926-27.28-14.066-55.78-22.727-84.67-25.668-45.36-4.689-90.73 4.132-134.88 26.065-37.29 18.595-73.77 46.965-105.33 82.01-6.14 6.834-12.11 13.986-17.84 21.218-22.04 28.131-41.49 58.567-60.3 87.97-30.43 47.6-61.91 96.79-105.41 138.431-40.76 38.859-104.45 72.156-161.19 48.713-31.32-12.873-49.64-38.462-69.1-65.56-14.12-19.708-28.81-40.131-48.91-55.229-42.54-31.867-107.92-39.098-194.12-21.536l-33.91 7.311c-53.75 11.92-109.29 24.238-162.96 13.907l-.89 4.371c54.56 10.489 110.58-1.908 164.82-13.907l33.9-7.311c84.92-17.244 149.01-10.331 190.49 20.661 19.54 14.702 33.99 34.807 47.95 54.276 18.97 26.383 38.5 53.72 71.03 67.15 27.04 11.125 57.23 10.728 89.76-1.113 26.47-9.615 53.59-26.86 76.36-48.554 43.82-42.038 75.47-91.467 106.06-139.306 18.72-29.323 38.18-59.679 60.05-87.652 5.65-7.152 11.54-14.224 17.68-20.979 40.35-44.74 124.7-118.088 236.41-106.644 28.42 2.94 56.34 11.364 83.06 25.191 63.69 32.82 121.24 96.871 157.88 175.861 17.52 37.905 30.92 77.242 43.91 115.306l3.8 11.126c20.18 59.043 37.85 107.995 66.67 154.722 36.72 59.679 102.83 113.081 175.64 113.081z"/><path opacity=".913" d="M3380.36 630.186c10.66 0 21.23-1.192 31.72-3.497 34.63-7.708 64.58-27.019 91.54-59.044 23.65-28.052 41.24-61.348 56.74-93.055l95.49-195.886c15.17-30.993 30.91-63.097 57.47-88.288 23.08-21.854 62.39-42.435 103.4-34.807 46.17 8.583 73.53 48.237 85.72 71.044 7.34 13.827 13.07 28.767 18.64 43.15 7.59 19.788 15.5 40.211 27.77 58.488 28.01 41.641 75.47 78.354 133.58 103.386 56.51 24.397 117.29 32.026 171.12 21.456l-.88-4.45c-52.87 10.41-112.68 2.861-168.38-21.138-57.31-24.714-104.04-60.792-131.57-101.718-12.02-17.8-19.77-38.064-27.28-57.534-5.57-14.542-11.38-29.561-18.89-43.706-12.59-23.602-40.92-64.528-88.95-73.428-42.78-7.946-83.54 13.43-107.51 35.999-27.2 25.826-43.1 58.249-58.44 89.638l-95.49 195.966c-31.07 63.653-70.46 132.948-145.12 149.636-84.92 18.993-166.12-46.091-205.75-114.512-30.19-52.448-48.19-110.538-64.09-161.794l-2.58-8.265c-12.67-40.925-25.67-83.202-43.43-123.73-36.24-82.407-95.16-149-161.67-182.694-27.93-14.145-57.15-22.569-87.02-25.032-46.73-3.894-93.38 6.437-138.59 30.674-38.42 20.582-75.55 51.494-107.51 89.321-6.22 7.39-12.27 15.098-18 22.966-22.28 30.435-41.73 63.176-60.54 94.804-30.35 50.938-61.66 103.624-105.49 148.205-39.15 39.734-105.58 77.56-164.02 53.323-31.96-13.192-50.2-39.893-69.66-68.024-14.12-20.502-28.65-41.72-48.99-57.375-43.1-33.138-109.62-40.449-197.76-21.854l-33.74 7.55c-55.05 12.635-111.87 25.588-166.76 14.622l-.97 4.45c55.86 11.205 113.25-1.907 168.7-14.622l33.66-7.549c86.77-18.357 151.99-11.285 193.88 20.979 19.78 15.258 34.14 36.157 48.03 56.342 18.89 27.495 38.5 55.945 71.67 69.692 27.2 11.285 58.85 10.49 91.62-2.145 27.2-10.49 54.72-29.085 77.57-52.21 44.39-45.296 75.87-98.221 106.3-149.398 18.81-31.548 38.18-64.209 60.29-94.406 5.65-7.709 11.71-15.338 17.84-22.728C2644.79 80.672 2730.52.967 2846.1 10.662c29.22 2.463 57.87 10.728 85.24 24.555 65.62 33.217 123.74 98.936 159.57 180.469 17.68 40.37 30.68 82.487 43.27 123.254l2.58 8.264c15.9 51.495 33.98 109.903 64.49 162.748 21.72 37.588 52.71 70.17 87.26 91.864 30.02 18.834 61.26 28.37 91.85 28.37z"/><path opacity=".957" d="M3403.53 642.9c10.33 0 20.74-1.112 31.32-3.417 35.35-7.867 65.62-27.893 92.58-61.189 23.97-29.562 41.81-65.719 56.18-97.109l93.47-205.183c14.85-32.582 30.27-66.196 57.06-92.818 23.25-22.966 63.04-44.819 105.02-37.031 47.21 8.741 74.5 49.826 86.52 73.586 7.43 14.701 13.24 30.515 18.89 45.694 7.35 20.025 15.01 40.766 26.56 59.679 25.42 41.482 69.17 76.924 123.01 99.731 52.46 22.171 109.53 28.608 160.7 18.119l-.96-4.53c-50.21 10.331-106.23 4.053-157.8-17.801-52.95-22.409-95.9-57.136-120.84-97.823-11.3-18.437-18.88-38.939-26.15-58.806-5.65-15.337-11.46-31.23-19.05-46.25-9.52-18.833-21.87-35.442-35.67-48.077-16.39-14.94-34.55-24.396-54.17-27.972-43.82-8.106-85.15 14.463-109.29 38.303-27.44 27.177-42.94 61.269-58.03 94.168l-93.47 205.183c-32.45 71.203-72.56 139.385-145.45 155.676-87.34 19.469-169.18-49.508-208.33-121.743-29.62-54.912-46.74-115.942-61.83-169.821l-1.61-5.721c-12.19-43.548-24.78-88.527-42.62-131.518-16.23-39.177-38.75-76.447-64.98-107.757-29.38-35.045-62.55-61.905-98.47-79.705-28.58-14.225-58.6-22.41-89.28-24.396-48.1-3.179-95.97 8.662-142.3 35.204-39.47 22.648-77.41 56.024-109.61 96.552-6.3 7.947-12.43 16.211-18.24 24.635-22.52 32.661-42.06 67.785-60.86 101.718-30.19 54.275-61.43 110.458-105.58 157.9-39.47 42.356-106.79 82.884-166.84 57.932-32.53-13.589-50.85-41.244-70.14-70.487-14.05-21.298-28.58-43.31-49.16-59.601-43.59-34.409-111.31-41.879-201.31-22.171l-33.66 7.788c-56.25 13.271-114.45 27.019-170.55 15.258l-.97 4.529c15.34 3.258 30.84 4.609 46.33 4.609 42.22 0 84.76-10.092 126.32-19.867l33.58-7.708c88.55-19.39 154.9-12.238 197.35 21.218 19.94 15.814 34.31 37.508 48.19 58.487 18.89 28.609 38.42 58.17 72.32 72.315 13.32 5.563 27.04 8.026 40.68 8.026 50.05 0 99.69-32.978 131.49-67.07 44.56-47.839 75.88-104.26 106.22-158.774 18.81-33.853 38.26-68.819 60.62-101.321 5.73-8.264 11.79-16.449 18-24.396C2688.87 40.78 2779.19-6.582 2866.52-.861c30.03 1.987 59.41 10.013 87.42 23.919 67.56 33.535 126.32 100.923 161.19 184.999 17.68 42.673 30.27 87.572 42.37 131.04l1.62 5.722c15.17 54.117 32.29 115.465 62.23 170.774 35.19 64.845 104.69 127.306 182.18 127.306z"/><path d="M3426.53 655.536c10.42 0 20.75-1.113 31-3.417 76.84-17.086 117.12-89.162 149.24-164.497l91.45-214.402c14.53-34.091 29.55-69.374 56.59-97.347 23.4-24.158 63.68-47.123 106.7-39.256 35.28 6.516 67.08 34.25 87.26 76.129 7.59 15.814 13.56 32.661 19.29 48.872 7.1 20.105 14.45 40.926 25.1 60.236 22.6 40.846 61.91 74.778 110.91 95.36 48.91 20.582 102.83 26.065 151.82 15.417l-1.04-4.689c-98.88 21.536-211.97-26.065-257.41-108.392-10.49-18.914-17.76-39.575-24.78-59.521-5.81-16.37-11.78-33.297-19.53-49.349-9.37-19.47-21.8-36.714-35.68-49.826-16.55-15.496-35.03-25.27-55.05-28.926-19.37-3.576-40.36-1.192-60.7 6.834-18.64 7.391-36.08 19.072-50.36 33.774-27.69 28.608-43.59 65.878-57.55 98.777l-91.38 214.402c-31.64 74.142-71.19 145.106-145.85 161.715-89.76 19.946-172.17-52.846-210.83-129.054-29.14-57.455-45.12-120.393-60.46-181.264-11.7-46.091-23.73-93.851-41.49-139.067-22.03-56.183-56.58-107.678-97.26-145.186-22.68-20.9-47.14-37.429-72.73-49.269-27.76-12.794-56.98-20.026-86.68-21.456-54.49-2.622-108.33 13.748-159.9 48.713-43.75 29.641-83.95 71.521-116.24 121.187-22.76 35.045-42.29 72.474-61.26 108.711-30.03 57.614-61.1 117.134-105.66 167.437-42.86 48.475-111.95 86.698-169.66 62.54-33.18-13.906-51.42-42.594-70.71-73.03-14.05-22.092-28.49-44.899-49.32-61.746-44.07-35.68-113-43.23-204.94-22.489l-33.58 7.947c-57.47 13.986-116.95 28.449-174.26 15.973l-1.05 4.688c58.36 12.795 118.41-1.827 176.44-15.972l33.5-7.947c90.32-20.423 157.88-13.192 200.74 21.456 20.18 16.37 34.47 38.859 48.27 60.554 18.89 29.72 38.34 60.395 72.89 74.858 28.33 11.84 61.18 10.33 95.24-4.292 28.5-12.317 56.91-33.455 79.99-59.441 44.88-50.779 76.12-110.538 106.31-168.39 18.89-36.158 38.34-73.507 61.02-108.314 71.43-109.823 173.06-172.443 271.77-167.675 127.05 6.119 215.43 118.485 252.48 212.892 17.68 44.978 29.71 92.499 41.33 138.511 15.5 61.11 31.48 124.286 60.86 182.217 20.74 40.846 52.87 78.116 88.22 102.354 31.32 21.694 64.41 32.661 96.94 32.661z"/></g></g><defs><clipPath id="A"><path fill="#fff" d="M0 0h2296v750H0z"/></clipPath></defs></svg>